<mxfile host="app.diagrams.net" modified="2023-11-03T02:19:45.987Z" agent="Mozilla/5.0 (Windows NT 10.0; Win64; x64) AppleWebKit/537.36 (KHTML, like Gecko) Chrome/118.0.0.0 Safari/537.36" etag="Ku7GVkiNW5qcjbhlNd1-" version="22.0.8" type="github">
  <diagram name="第 1 页" id="u83hLH0zkRCwXxb0CGhH">
    <mxGraphModel dx="4310" dy="1317" grid="1" gridSize="10" guides="1" tooltips="1" connect="1" arrows="1" fold="1" page="1" pageScale="1" pageWidth="1920" pageHeight="1200" math="0" shadow="0">
      <root>
        <mxCell id="0" />
        <mxCell id="1" parent="0" />
        <mxCell id="XgqZpSQLJunnmOZwg-OT-3" value="" style="shape=image;verticalLabelPosition=bottom;labelBackgroundColor=default;verticalAlign=top;aspect=fixed;imageAspect=0;image=data:image/png,iVBORw0KGgoAAAANSUhEUgAAB4AAAAQ4CAIAAABnsVYUAAAABGdBTUEAALGPC/xhBQAAAAlwSFlzAAAOxAAADsQBlSsOGwAA/7JJREFUeF7s3V10XOV96H/Wf/1v8784F109Vz1X9OKss7J6oKtntWlXmrThLE5KXk7zUgoNSYlJGuOmiZMsEwIBE46bGDtAjWowYDDm5QDB2BYYApgUG5BtSciy/IItW5ZtWbJk2fKLZMuW5//b+/fM1p5n9tvM7BntPfP9rCfO7D3PbI1mJI389cOeqwoAAAAAAAAAANQBARoAAAAAAAAAUBcEaAAAAAAAAABAXRCgAQAAAAAAAAB1QYAGAAAAAAAAANQFARoAAAAAAAAAUBcEaAAAAAAAAABAXRCgAQAAAAAAAAB1QYAGAAAAAAAAANQFARoAAAAAAAAAUBcEaAAAAAAAAABAXRCgAQAAAAAAAAB1QYAGAAAAAAAAANQFARoAACDUhYvThw8f7+nd19u3f8v73Ywqxpw/dNt27Dp46Kh5RgEAAAA0FgEaAAAg2IWL0719+/fuO3TmzDmzC5Xb8n73mbNTczhGxyb27hv4oGOnuUMAAAAAGogADQAAEOzQwLG9+w6ZDVRrzgO0jr37BlgHDcyVo0eP7ty5c0fGyF2SO2buoisv9zMJeQnb3rnL+29Bcj3kE5FPx3xiifEIrH2n8E8PF75yXzMM+UTk06kUXwPN9Ag0cvAdV913XDQCNAAAQLCe3n0TE6x9rpX8Hm+14DkZo2MT23bsMvcJQAPt3bv38OHDU1NTZjsz5C7JHZO7p5t5uZ9J7Ny1/0D/4OTkBbOdc/KJyKcjn5TZToBH4K6n7aLUBEM+qeT4GmiyR6CR+I7TUdF3XCwCNAAAQLDevgp+70SYjARoGXJPzH0C0ChHjx49fPiw2cgkuXtyJ/NyP81GpEMDxw70D5qNJiKfVMI1iTwCa9+xQ1LTjISrMvkaaNZHoJH4jpOR4jpoAjQAAEAwemUqCNBAK9u5c2cG1xT7yd2TO5mX+2k2Im3v3NWUax7lk5JPzWxE4hFomvMAlA/51JLga6BZH4FG4jtORsLvuCQI0AAAAMHolakgQAOtbMeOHeZShumpls1GhiW8k038sy7hp8YjYCWkJhtJ8DXQxI9AI/EdJyMtBGgAAIBg/O6eCnkYrRA8V4MnFGi8vITdvNxPcylSE/+sS/ip8QhY/ajJRhJ8DTTxI9BIfMfJSAsBGgAAIBi/u6dCHkYrBM/V4AkFGi8vYTcv99NcitTEP+sSfmo8AlY/arKRBF8DTfwINBLfcTLS0sAAPVBY9YIZ7w2YfRW7WDi4uxD6bvRDhbc/KkzPmK0IIwfCD1Kd4cLRs+ZisKlC77ZCl46dhWmzFwAAZBe/u6dCHkYrBM/V4AkFGi8vYTcv99NcitTEP+sSfmo8AlY/arKRBF8DTfwINBLfcTLS0sAA3TV771d1mX0VmCp0vVL4/v3OzX/6htln2bTCPf79hZ8+Gd64Txeec88OXn6Q3vbZRB482oOy9cVC1wuFG+8r3LiiMGJ2BRkq/LT46X/l4aiZIzuLnTpo9Lrvezx91N5fMgjcAACkgd/dUyEPoxWC52rwhAKNl5ewm5f7aS5FauKfdQk/NR4BUx6adCTB10ATPwKNxHecjLSkGaBjquirs/f+nlfLrvUNbay2s4VVS2ePUJ6wR95wKrCZcH9I454oLHUTduBBNsW+bWVQOF7/4OyEsDLuSBygo++Gfgj5ZK39JSPy+AAAICF+d0+FPIxWCJ6rwRMKNF5ewm5e7qe5FKmJf9Yl/NR4BOxE0FwjCb4GmvgRaCS+42SkJc0AHVNFE4+wjDu9s/Bt37SX/WucDxa+77sqYoW11ak3+WJ3dQHa+tDrA+u5IEADAJA3/O6eCnkYrRA8V4MnFGi8vITdvNxPcylSE/+sS/ip8QjYiaC5RhJ8DTTxI9BIfMfJSEvWA/S5j0pOgnH/suKcNSX77/Etjv7KspKr1n9kDuX58MnZyc55M4rnjF7lLY7+ZaHNd4T7f13cHxJ2971cnCDj14WjgSehrjxA+9eJt3mfuBWglxXe9haPe2vMCdAAAKSB391TIQ+jFYLnavCEAo2Xl7Cbl/tpLkVq4p91CT81HgFTBpp0JMHXQBM/Ao3Ed5yMtKQZoK1YbI/HZu/99x8ru9Y3/Mm49qgdsJ76bOHBYmu+8eHCPn3zwIOF73m3WuPuKepdW9wfFnanfKcHub/w8sdmd4nKA7R/Hbe30w7Q/kN5Z9kmQAMAkIYqf3fvXn7NNQvWRb0Y98iMsjlj62539qoFr46Z3UbJtcaDPebKbJOH0QrBczX4yxjQeHkJu3m5n+ZSpEz8rBtZt+Caa5anfUcSfmpz+gi4r9e3r7NexdOS8FMzZaBJRxJN/Iqfh++C5sF3nIy0ZP1NCOsSoAuFcx8Ubry/sPSN2TcV9C+L/vHrZqeaDdD3F94bLpw77Y4pc61yDig3fKEwctHssVUeoP2Z/qe/NDvtAO1frO0lfgI0AABpqPh3dyc9q6gA3fNg+Rz5+6pvU49T0pfr+xfaupKH0QrBczX4yxjQeCmE3ctnDu8/OHrZbNWD25/rGaAvjx7cf/hMzZ9CwjuZ9s+6ql6ARsbWOS92y9P9l9KEn1otj8DYqwsC/33Xee1298uFsn8knuXcPOYfoWuS8FMzZSC90TvlLLx7umz/nIwkUvguiF9PEMFZahDxdVKLBnwXwDNX33EVjbflC22suPlbp3Me/Wj22tpHWtIO0AOzzdQeyVZAv+c/s3NpgH7ZO9eEdcaJoHc1vKd4VWCAFiPD5oKQjzJ7Yuj7CutL78NsgPaNtrKXfv8BA3AOaAAA8qaS393dv58X/2oa9TcWd1GYK+JvNe7RSv7e7i6azsmSZ4s8jFYInqvBX8aAxqs17F4+c3h3V9fuw6fDFvqkwe3P9QzQF0/rZ1Fjg054J9P+WVf1v4Cm3+ASfmq1PAJjI+vcfwS2X6OLAXps7FX3+sAHZPYlvkxK/4Sc8FOzE0GFw8nNXs/y9pQGaKd5xSXpsHfI6v2tPbOikUTt3wXOvyW4z1px3UCgkN/laorXMRrwXeBbURHL92lGfP2XMf95RAUfyJAbuv/MU5mqfxDV+zvu6dL8qHo/ml0sG8D9vvNHZ/9lPeDbvg9R+0hL2gHat8y5umEtjvaX1l6zryhySfWq4lVhAdpz7sOS+nzjk/YzfbR99lpvbDphrg00stMO4l3v+E7x4T9xc3H0Fn82E6ABAMiI6n53jwzQ5q/x7rqwqL+ZuAchQKc8avrLGICq1BR2i/W59rXD0dz+XM8ALdL4XBLeybR/1sUE6Mg8F6Lal7OEn1rNj8DsPyp7igFaOS/KZScYCQnubpVLK8Qn/NTsRFDhqDhAl73zlgheg+nOrLGOJZHK14A+a6VPvY/zzJrf5apIopn/LrCFPg4e3wPifwAdTmj2fq0N/Pbxq+rfruoT/RvzHeeNgP/UIORbJixAh/2rTy1rotOSpwBd4wroo+/Zq63NyaZnCu89XjzU0kKvnhLa72xh/cqSSP2VXxb2BZ7z+j1zi+iIHDhiQ7nDt8B8dqn42cK+bYX33iis2lA4ZXYBAIAUVPe7u/tX8eDfgL3/Mjdijqv8b/utEaAHfvfMypUr1+80F4xXu82EneuczbWbB2Zv0r3e2bXuo9k9ESP1v4wBiFVD2D1zuK9n955dXSF6du3ed2g4lZXRbn9OIUBfnho9sn/Prp3d5i6W2bVnd0/f4TNmesUS3sm0f9aVvySFKGlMpdwIW/spoRN+avX4ae+8cEc9CO7LdMCEsP1VSvipWbWh0lH1Cmhn9aV/p3s2AP96Z3tCVSOJWr8GfC01SYAuUZ8S6qn3d0H1Md39Nk8o6qdBVQ9g3HdolRrxHfdR4dyAc8H5niprzWHfMoEBOvC7svaRlrQD9LgdgmdHZC/2xsFxcyQVs9Q3wfDCbvmZNGab70xh0wrnFM+bwv6xQEwVz/5cPAF0wH1b686sOkDP+D5E0Dj65uz8p+Vr1N058s7szud2z06erud/pAYAQCuo7nf30Ljs/l4+u5om/HfrgGt9t80deRitEBw6ZruzFZ2Lm16h1s2PXpWtZ949ZjbjRtV/GQNQtVrC7rlje3q6uvccPX1m4kz5GB0a2N/Xs6Oze/fgqRpXSLv9ucYAfW54f29X546evv0DQ6PWXdVx+uie7q6ePcei/tPqaAnvZC0/6ypqT2WvSuELGyPadCUSfmr1+Gnv5q0F9qOjwct0t4BPMPrlvgoJPzUvEVQ3qg7QMk1Tmhllizf91azqkUSNXwPON0IxOjtPYgUB2v0Hm3quGJir74LQxyFSFbdyHvyKU3L4D5/aNOY77qi8hLiZsfzsNPb3VHEEBGj32805gneh9CZVj7S00JsQRgTo3vbCqucK96ycXV8cMcy66cD7VmOA9p8nuuaR/EEGAACBqvvdPeRvmyUryILmuIukVPlv6mWLSurxS3adyMNoheDQYQJ0yRpnKzoPvLu2OOHYZrnimd8NeDPjRup/GQMQq8awe+7Ynu7OngNjoYX58qmBXV07eg7U9CaFbn+u5X5eHt3fs6Nr10B4Cb88dqCns7uW+iwS3slaftYFpZ/AFdDOzvJ/FpVXt8B/K60uXZVL+KlV/wiUhnL3xbpE4Itv+bQotT0OCT81Kw5UOqoM0OXZS/aUzpHj1P72aEnU9orv/kpWfKZCv3oDA3Rx9W70V0UtSwrq/l3gSvpV7f1kcD7xysw+CMlu63/Qavunsgo05juu/J0Dne+vEPovOuUBWv40K6nlOMVuGRivKx1pSS9A13zyDf/w4mmKp+CICNAV9WLvVqfeLXxvmTNuub94bTFAB0jyJoQEaAAAsqS6393dX9ntv5BYOwPneMxv1eF/R9W/FdTy+3QjycNoheDQYS1wNsMKze6a6Gd+1z1bopOOGv8yBqAKtYVdh9ugew+eNpsBzh3e1dVzoIafiG5/rv5+Xh7a07WjdyCiLZ8+2FtzfRYJ72QtP+tqDNDBK53df0NN5d9NE35qVT8CYyNjpruVvQS7L81Ri7idG5beKsmeSiX81Kw4UOmoLkCX3yr2jBzVjSRq/S7wfQ2YL4lg1u9yJeU6QPhi+eTq/V2gknz1Bv24sCX6mg/8uVHC/oFT8qHtm/tXQ4f8pEqsMd9xMqxvFn9fnh1uVg4L0GZO6XCuCjqFdEUjLXkK0Gm9CWH5VdUFaM/szWsM0KcL68sWXJvxnO89DIvjx4+XTfON2ZNEAwCAqlT3u7v7F5WSv5Do32T8f/cun2Mpv0kpNwdEHiE75GG0QnDoiAjQsyflMGfeEMlPvqGjxr+MAahCLWHXc+5MzFv3ne7v6dozZDYq5/bnqu/nmYM7d/T0RwRycfnMmVrrs0h4J2v5WRdUlNxXnIQB2k0/1v4klSqhhJ9arT/tnZ5V9gobskjTe6VOEuwSxbhICT81Kx1UOpyUnISvlzn5zM+9ytnp72K+fFbLSKKGr4Hif5FWfKZKnjV/6yxbAe3+dhf2y5v+5lbrF4BozHeBfi7x7G/t4qMXyX6IygJ02XeK/QOnaQK0BmLL0Y9KmvJRb3F0St9BlY605ClA32811sdmr/r+Y6VXvVD4fvGqJAHaOQWH3Gpt4dtLCg+WHkfH/b82N3Fu9Za5lSe1AB3oovOltnRZ8bb3OWuuzeX7Cz99obBv0EwEAADpqu53d/dXdv9fSKJ/Fw+JyO4amYjfmOMKdYbIw2iF4NCRMECbM3UQoIEcqCHsVmL8QE/XvmGzUTG3P1d7Py8f3rWj50DpWxnVScI7WcvPupoDdFkMSm/5s0j4qaX00979xEtFvC6XJbNEeyqV8FPz6kFaI2YFtLu0WWgm89ZyBsY1Vcs66CSq/hpwvgUe7Al9pspS6SznKkfQV7v5WkrlG6Ex3wVJvnqDflz442+goAkpBGhb8UOE/6RKpmHfcfItpqfL0NycKEAXz7MRpfTbtrqRljqfA/ps4eUV9l2Xccsa8+PJc2pH4cf3ByxkTvEc0J7AxdHndjp3IHC+fBYPeifZuL/w4Vmz25NagHbf5/DgR84pRN57wwniP15auNG7lTvuaXceuoPtpfvvL3yvzQnlb7unH9k36L4PYcJ/tAQAACGq+93d+aU5bm1y/BwC9Oww59wonoLDnJFj83rZyyk4gKyrPuxW5sjuHbuPmMsVc/tztfdzbH93DR+6IgnvZC0/61II0CXzndhUS/2xJPzUav5pL3e7/DW6NJzJy3TpY5Ik2JXvqVTCT222FaQ0ygO0f7ztnnzWy2T2mTes4VazzAbongedEhr6TIUFaPNr2zr3i8T9Fohlf08l1ZjvgiRfvWEBOlYdArT/5v5v1YifVIk07DvOBOjiaWqsAG2+X4ICdMSC6JjvxMQjLfUM0AOFpUt9d3ppYf2Ls5tt3kvnxcLbjxdz6v2FTaX/4VQjAvSJwqmpwqpfzt6kpIPPFDb5Gvr975rdfmkF6OkPihPKx/2Fn64t9Pr/TX+4sP4pO0/7x4MfmIkAAKA61f3u7vzSXHOAjuvL+neboL8CZY88jFYIDh1mafOrs4udZbgn3PAWO8++CWFwrY4aNf5lDEAVqg+7FXGWIc9RgB4/0LNj1+Fa3gMxsYR3spafdfrqk1B41nEj1IPrnJeq2nqrJeGnVutPe6dnlb9Gu6+8+um4tfGa25f3+Oa4r+wJ1PaAJPzUrDhQ2QgKxAEBuuxt0yoK0LWcRiCJGr8GTADVJzqWu2La/XYo/VeKWbVmUL/GfBck/XoOCtDhv76KoAlBAbr04bIfwGYN0CX/9YAGaP+Z0+MCtHwP+t91sFUC9NF3Ct/zVg3LWFroPet85qu8JH1/Yf1AYWSbWXfsjRtXFk6ZYzjOfVRyKoySEXkKDm+sd58Sv5IAfdSp5O+dLpzrKny7uF/u28sfm8n+ty68cUVwOA4I0BcLvbvNRSPJCuijhR97c4rjp08V1n9YGDnhLmr21jW7a6VlnBoqfPhq4R7fGUK8semEOxMAAFSrut/d3V/ZKwvQzq/R/r+ROr9Jl/wd1ZqgfyuI/P0+Q+RhtEJw6CieW2N2vbPusTaL0dmN0SvXfVS8edyo8S9jAKpQfditxOVje7p2Hjxjtirm9ueq7+fwvq6uPccaUaAT3slaftaVZB3DDa9BO6Oyjr6Qpf1SlfBTq/GnvfMia3++Dn1weuTPoPju3CouLieZEy3hp2bFgcpGSgH6bfmzXHF/PgJ0Kdm5/EH5wl6w4PawFQDNFaBLH4HyPUE/LpxHIFZcgC5/GFslQHubswHaX5kJ0LbhwtNekC0ObxlySee1xv2FtncK52bMzHiRb0IYwQvQP36h8KAbxJ92Y/HIG74FxXJntha6XvDt0YYexArQejqR721wr/MkOwf0wW2FNt/pnsuHPpIxC8OXOefi8Hd8AABQhep+d3d+Qa98BbTzm/Qs++al14qwv/lkkTyMVggOHcW+rGXZ8NY4mzz9qm99tHt2jsQn4qjxL2MAqlBD2E3u3EDvjl2Hqz8Fodufq7+fJz7u3tE7cM5s1VHCO5n2zzqn4AQG2VBufV7w6pj7YldrcvVL+KnV9giEFytT1Wdfgv0VrDzP1UPCT81OBBWNlAJ0WPZyrs1hgJY9zleFts6yE7AUNU+ALpfsKzzsEfAETSgtyN4vvb5HzH4AywK0rWkCtP9cHDEB2t0U3ndlUwfoqdJi6xv+82CUdF4d9xeWvlE4ddFMUFFrn3UkWwGtw78O2gvQ3vDeV9C/3rlk3F/YJD9NQ8wG6McLm7zTiVin40j8JoSzRwsaiQJ05PEBAEBCqf/u3prkYbRCcOgoXeCc+uAJBRqvlrCbzOXR/T07evaP1rAE2e3PNdzPySO7u2q8C4kkvJNp/6yrJECXJVrvJAap1LeEn1pNj4B7h8sKmvsgGLOfnT/JJQ7QNRWxhJ+anQgqGg0I0LVFsSRq/C4ofTbdZ183vVQqFwK+KZolQAcl3TCln5fzCMSKKtTuN6BzzOJ9CHzcygK072dOybNQ6yPfiO84d1gB2gz3u0wF/JtNaYB2muXY7LehDO97raRiVz7SklqAPvpm4ZbSk2l85f7Z0OwP0KJrjW/afYUbHy50leXd2s/+7B/+O1AeoL/9irmqMFP48Cn7WhkPbjPXBwpOxlYFrjxA/3TNbEC/v3iSDStA37Jids6qNYVbEhwfAAAkVOPfXqDkYbRCcOggQANNp6awG+fymRMH+7p2dO85VtvyY7c/13Q/L48d7O3a0dV38MSZOlbohHcy7Z91bn2LC9BOsBNh07xz6SYM2SESfmq1PALu6svwgK6b5rMoaVslRSxCcOBOKuGnprmgylFDgJ4VnpidQ9XQwmQkUeN3wWyAdjPobMH0t073qtKnslkCdJBk/8QS9gh4oibo2ueSB6r4DWjdpCUCtPudqDudglx6eo2SoZ3a/abzB2hvBNftxCMt6a2A7ipZ13zjg4WuYfvt/qYHC2+3F+5Z6sz89jJ7HfQtKwqbPipMF0/BUa8Afbpwf+lVP365+E8KZwtdrxS+b2V0HfcX7n+lsK+skqvAAL30rcK0ud5VeYD2vx+jtzTbCtD+sD77IQjQAACkIfXf3VuTPIxWCA4dBGig6dQYdsOcOtjb1bVjR2f3rv1DtSdftz/XfD8vnjy8u8c5UFdX78G6nBAx4Z1M+2ddTIDW9Jws8biHEolWCgdI+KnV8Aj4Plk3LwZ84rrf8J8yy8leiVT76YuEn5rmgiqH7z8fj5VwBbSzx8eq25WOJGr8LtDY6vbQ0rOi2a3T/YKZfUKtuur/kvDfqib1/i4w/5hUEfdtGCs2+81VfKDCfs6YDD37XGiqTigXAVq+ffyNWOtjSUr2VWZvp4Zp4X1PBbbmwCqdfKQlvQA9U1il6dY9n4ZzKuepwoPFu3vjksK3S8Puqq7CyNbSNyrUcX/he22F9TvrdQqOcx+UhO975K5OFPa9U3hwhR3Eg8f9hXueLGzaWjjovcWf94kXh8Z3W+UB+uW9xTcePF14r7gu2wrQP94wO+fc3uJ7GBKgAQBIQ41/e4GSh9EKwaGDAA00nRTCbpDLU+fOTJwvWfFTA6cap3Y/p89PnDk3VZd10AnvZNo/62ICdCMl/NRqeAScEBafq4qrMmtJydVJ+KlpLqjvKFsB3bCRRI3fBaGrfe0APQfq/13QOMWObL/3STDnwTczS1ZAR3F+fGU5QPv/bUZPpqF7whYs639A4N0q4Bsw8B+Q6v/fHCSR5jmge9cWfry2cPC02Tz1ln2n/cO8beBp30mTi+PGFYWRJG9FWN2bEB6dDcFL3y18WHoyEP/48QuF9U+FVmlvefJ06dLvH78S8j6KnAMaAIC8ycXv7tknD6MVgudq8IQCjZde2K0jtz/n436aS5Ga+Gddwk+NR8BOBM01kuBroIkfgUbiO05GWlJ9E0IrvO4qnpK4dNz4y8L9awu942aWODdQeNpbgBz5dn8lqgvQbr2Vj7X0XXfjbOHBslXY33+q0OstYR4uPPeYnaG/v8Fcqcz5Me4vPLfT7AlAgAYAIG/43T0V8jBaIXiuBk8o0Hh5Cbt5uZ/mUqQm/lmX8FPjEbATQXONJPgaaOJHoJH4jpORllQDdJm328zdvXGJE53f3l04N2WuCjBeeO+VQttWsxWv2gBdmCl0+V64T71TPI57oueDvjI+a7zQ9Ubhnl+aaR+eNbuNmcLTDxc+9E7KEajyAN32TqFrmxkvrzQ7rQD9vbWzc7reKXwvwfEBAEBC/O6eCnkYrRA8V4MnFGi8vITdvNxPcylSE/+sS/ip8QhoLmjWkQRfA038CDQS33Ey0lLfAF3YXXj6jcLBOp0samD2FM/vlZ7SvjIzhQ/fKOwbNFsxzhb2HTAXK3O6sN47J3V78W0Pg4zsNEF5xBfrTx0wO3vd5eHTR0s2jalCr5bonaXvfwgAAKrC7+6pkIfRCsFzNXhCgcbLS9jNy/00lyI18c+6hJ8aj4DVj5psJMHXQBM/Ao3Ed5yMtNQ5QAMAAOQWv7unQh5GKwTP1eAJBRovL2E3L/fTXIrUxD/rEn5qPAJWP2qykQRfA038CDQS33Ey0kKABgAACNbbt99cQg3kd3crBM/V4C9jQOPlJezm5X6aS5Ga+Gddwk+NR8DqR002kuBroIkfgUbiO05GWgjQAAAAwXp6901MRJw3C4nI7+5WCJ6TMTo2sW3HLnOfADRKXsJuXu6nuRSJ9MYjYPWjJhtJ8DXQxI9AI/EdJyMtBGgAAIBghw8f37vvkNlAteR3d6sFz8nYu2/g4CH/u2cAaIS8hN283E9zKRLpjUfA6kdNNpLga6CJH4FG4jtORloI0AAAAMEuXJzu7du/d9+hM2dYB109+d3dasENHqNjE3v3DXzQsdPcIQANtHPnzqkp37urZ4/cPbmTebmfZiPS9s5dk5MXzEYTkU9KPjWzEYlH4J8ethNS0wz51JLga6BZH4FG4jtORsLvuCQI0AAAAKEuXJw+NHCsp3dfb9/+Le93M6oYc/7Qbduxi7XPwFw5evTo4cOHzUYmyd2TO5mX+2k2IsnL1oH+QbPRROSTkk/NbETiEVj7jl2RmmbIp5YEXwPN+gg0Et9xMhJ+xyVBgAYAAAAA1MvevXsPHz6cwfXFcpfkjsnd08283M8kdu7af6B/sGnWP8onIp+OfFJmOwEegbuetkNSEwz5pJLja6DJHoFG4jtOR0XfcbEI0AAAAACAOjp69OjOnTv1VMvZIXfJWlOcl/uZxKGBY9s7d1n/RUhOh3wiCdch+vEIrH2nec4MIJ9IFSsx+RpopkegkYPvuOq+46IRoAEAAAAAAAAAdUGABgAAAAAAAADUBQEaAAAAAAAAAFAXBGgAAAAAAAAAQF0QoAEAAAAAAAAAdUGABgAAAAAAAADUBQEaAAAAAAAAAFAXBGgAAAAAAAAAQF0QoAEAAAAAAAAAdUGABgAAAAAAAADUBQEaAAAAAAAAAFAXBGgAAAAAAAAAQF0QoAEAAAAAAAAAdUGABgAAAAAAAADUBQEaAAAAAAAAAFAXV508dZbBYDAYDAaDwWAwGAwGg8FgMBiM1AcBmsFgMBgMBoPBYDAYDAaDwWAwGHUZBGgGg8FgMBgMBoPBYDAYDAaDwWDUZTTtOaD10zMbAICqeK8WDAaDwWAwGAxGyw7zyzEAoCoEaABAqLHxMzq8X74ZDAaDwWAwGIxWG+aXYwBAVQjQAIBQXoD2hvdbOIPBYDAYDAaD0SLD/HIMAKgKARoAEMqqz97wfhdnMBgMBoPBYDCafphfjgEAVSFAAwBCjZ48UxwTNGgGg8FgMBgMRmsO88sxAKAqBGgAQKgTJydOjE34MjQNmsFgMBgMBoPRcsP8cgwAqAoBGgAQamTstAwnQ5eU6NnV0N4v5QwGg8FgMBgMRrMO88sxAKAqBGgAQKiR0dMyTvgyNA2awWAwGAwGg9Fqw/xyDACoCgEaABBq+MQpGVaG1gZNgGYwGAwGg8FgtMgwvxwDAKrSzAF6bPyM2QAAVOX4yLgML0PToBkMBoPBYDAYLTjML8cAgKoQoAEAoY6fGHdGMUNrg/bOB02AZjAYDAaDwWC0wjC/HAMAqkKABgCEGho5KcNt0Ce9Bu1bBG3OBO3/7ZzBYDAYDAaDwWiyYX45TsnZ85M79/RXMQ4eHjKHAIBcadoArU3EbAAAqnJseExGsUGXLILmLBwMBoPBYDAYjBYZ5pfjNBw8PLT2lbeqHsOj4+ZAAJAfBGgAQKijx0/KKG/QziJozsLBYDAYDAaDwWiNYX45TsPOPf1rX3nr7PnJ4dFx+VP2JLwwPHZSbig3l00AyBcCNAAg1NGhsdAA7S6CJkAzGAwGg8FgMJp+mF+O06ABenh0XP+s6IL8mSBAT3SsnNe2bcJsJTaxrW3eyo6Sm413tM2b11634h3wEedQf3vCz1XudsjDK4dIdIT+jfPmbWzGf0ho4GOI3CFAAwBCOQHa36BHThKgGQwGg8FgMBitNswvx2nwr4CWzYouVByg3YJc1NYx7jbfWSWlrzwHO5204hroNMhwMR9xLiWOp/qolvVT52Gft7K933miok1MbHMepMh/JHCPVsq9cwH7I4/TWI16DN2vzHArO8w8ZAkBGgAQ6six0dIAzfsQMhgMBoPBYDBabphfjtOgAVouDBdPr5GETq4qQDvd2bsw23zLWqGdg0vitZ97wCQCc6Rv51wF6Jh8WaY8qTr3vGS/ltOAz6XCj+U9tr4n0eE9atZ+a7NxGvcYln8dlsyZs0cAlSJAAwBCHRkqDdDuWTgI0AwGg8FgMBiMlhrml+M0aIAeLp5Vw+yN5E1uYIB2a6C9RjUkEYZwGmX5iSZqC9BDW9tX/+aDj+sRewJzeSltpgnMNvrgByGQ92Q5rK6aZoDO3WPoCvlMSx40ZBoBGgAQSgP0kaExK0CfIEAzGAwGg8FgMFpmmF+O06AB2jurRhLJT8HRbuKd0b4tSYB2LpVq73AqYVuHc6aI2brnLnpNHPucjxgUI32NsooAXbh8cnv7+tXPvvnhkctmT1oSxlPrDpffqjSJlgZop6L6Z5dcWxagLe4NA/ZXGqBz9xi6SgO0c5MQlX5FoVEI0ACAUF6APnqcAM1gMBgMBoPBaNFhfjlOgwZouTBcr1NwOHHOpDov5BUvBAVow4mhJt7NXufMd29YWX02NyxV9nEDWmQi0wMfvLnm6fVv7D5TbUCN6JdlfOuXq42nLvdjyvMyMT7hPpjmVu5l6xDCWvDrfRhrv7WZXO4ew/IAXfaYBR4cmUGABgCEGjx2YvDoiSPHRo8MjZpF0MP6PoSnnLNwjE2cGDs96pRok6EZDAaDwWAwGIw5HFY4TmuYX47ToAFaz6eRcBG0NzlRgC6GTudyBQG62BPL+p0W0orqc8DR5SBaIX3X1JILzx744KU1L7/0u0OpPTf2XQ7g3OFErMfKfWyLn2nx8fRn2ZIJoWRWyUEqekYC5OoxDA/QvssE6CwjQAMAQhGgGQwGg8FgMBh5HFZBrnGYX47ToAG6TqfgELOBb2NHR9npGsqZdOcm0HkrO/pLEp5T/Xxi2qLHyaMlHdA5uqmH6eXCy6c+fuOFl59t33kilTNJ+JtmiIA7XH4ra/Wu+6l7m1qfnRs408KWBlsPewIrO9xjVCwfj6GDAJ17BGgAqJetW7cuWrRI/jTbOXT46InDR04MHh0dPOachePY8Mmh4yeHhseHT5waHj09Mjrhno5jQoZ7Og4Gg8FgMBgMBmNux+zCCCsi1zLML8dp0AAtF4brcgqOiY6VbW1uquvfmPAc0MK5VftGc1X/RpnpXK1l08t5ZulubOArr4f1y4WTe9rXvvzs746ZzSS0/FakeCerjafKZOXZ2XpPEj0C7m31nweCD16DfDyGBOjcI0ADQL0sXbpUXmoXLVq0YcMGs6tCR48effHFF8+cSfrTTGbKfLmV2a7ZoSPDhwaHB46MDBw9MTg0euT46NHjo8fc80EPnRg/fuLU8RPjw6OnZIyMnWYwGAwGg8FgMOZknDg5YYZZGJHy+5SYX47ToAFaz6eRcBG0Nzk+QI93tLkLn02q80Je8YJT6MpOheFcLln77Fw3G/tKzZ78wa6QerRiKHSOoXvdS95SX9/HrTEXprh6112y3d5e+g6B5Zw7nEhZI559NMyOInNF1Mc1j7M55uzjn4b8PIYE6NwjQANAvWzYsEFfPKtu0AcOHJDbPvHEE0katMyRmTJfbmV21Wz1i68PDQ0/9eKm48Mnnn75jZETo2tefnN0dGztK789OT7+7Lq3x50/3zp16tRzr759+vRp609zFAAAAKA+Tp4629O7e/2G19Y+93/lT7kse3Q1dIoN2nywNGiArtMpOPo3zmvv96U6p126ba4YoJ1KaAdoZ75cKo13zs5g0YFPDmudVsJRbIUipVzonr943SsfHLtodlTPTbruXZL7VnJ/nPvqD/EBd9j36RjFh7rImeEKrcbFR8meUNxfcqYOhzlk6AETys9jKEIDtP+AAQdHZhCgAaAu9u3b5/5aYFTXoK9cudLV1ZWkQXv1WebLrczemg0dHx4aGj5+fOT48ImRE6MyTpwYHR0dOynGxSnnf67TZQjQyLKRkZH9+/fL9ykAoGXJC4G8HJgXBuRWT+/utc/9X/+QPSecNynJdICWC8N1OAVHm1PffKnO63RRAbq/3d1TGu9Ke19RxYHP+SilcTEkHVZieuCDN9c8vf6NPefMjhq45XS2dcqm+1mb/i6XJ8Yj76Dv0wngfvrOBHMhQnu/8xy5fd83OfzQwn/QdrMvqfw8hkZogJ79kq7+KwqNQIBOamZmZvXq1XfddVd3d/f09LTZW5Xe3t5f/epXO3bsmJwMeLEZGBj4u7/7u2uuuUb+lMtmbzInT5587rnnlixZ8r3vfe/hhx++eLH2f8cCULGxsTH5ceG82JaqX4OuU30WtQRoYY4CZMzIyMjw8PDly6m82QoAIK/khUBeDmjQeadrn/1D9uhJOVJs0OaDpUEDtJ5PI+EiaG9ybIDuKIY/TXWzPc4EaF/FK6t+6QdoDaQBq3fNx60mF14+ub19/ern394+WvMvchp8Hf7HQe902KLjivgOW/Zolwi41tRbP3dGwP7ypylGLh9D/yeuQV+v0oOaaQToLCNAJ3Xs2LFvfOMb11xzzXXXXdfZ2Sl7Lly48Itf/EL2RCiPyFeuXFm1apVeKzeXg0xOTp48eXJmZkYn1BKg5VeoFStW6MGruDmAKoy5zIa78HnRokXu62IAuUommKmJRTfo+tVnwQpoNKX9+/dTnwEAQl4O5EXBbCCfrPqsw3mj7GwH6DqdgsM1245nF4eaAO0rnb6LKt0A7cwUVoIsVUUuHNravvo3H3xca+wxNdP5BMseB9M0I+/5rICbB4meFnCt9fh7M6z9wU9TtJw9hu6RXAFznK/wlR0dzhLsih8HNBgBOpErV64888wzGnaXL1+uK4urC9CnTp26/fbb9drXXntN9nR2dsrlz3/+87/+9a8nJydjA7R89EceeeR7IW688Ub32I5bbrnF7C21e/ducywAtdm6dau81HlZ2TvpczmvSlcRoEVYg65rfRasgEZTqu7bEADQlHhRyDsrPesYGXXfmXAstbciNB8sDRqg5cJw8RQcyS9UGKB9YU8DdL/8Wax4ZdUvvQDtS5ORqgjQKdBFu14b9T0OGs11wz2tRIKmGR1PPdHTAq61Hn9vhrU/+Gmquzl5DG36ZVa8od6lxn85ITECdCLe8md/FK4uQH/00Ud//ud/LlfJAeWwsufll1/WyQ888MD09HRsgE7ycaPJfTDHAlCbsbEx50XV7ctCLwfShdLC3LJy5Q263vVZsAIaTYnWAADw8KKQd1Z61jF84pQG6NGTToO2anIVw3ywNGiAHi6eVaOiC/Jn8gDtpkB/nmtr39gWGA1VaQ7WuhckrvGVfNwAzgf2VNEdU+a7O+WpVHNq1N1MGE9LPulA1kECHn93RsD+OQjQlsY8hn76Ee0V1qVJGhlDgI43MzPzxBNPaLr9zW9+I5s7duwYHR31h2Ar6YZFZLltW1ub3kRz88WLF5csWaJ7Xn75ZZlTUYAOW+McjRXQQIp0EXS0tP5i4zXolStXDg4Oyp91rc+CFdBoSrQGAICHF4W8s9KzjuETp074TgNt1eQqhvlgadAA3T84NOyeVeNs8fQasRfkz4oCdP9GTXHFOriyvWNjm+zRdanCaoXlATo4JjbXIlM9h0P1n1HCeBo9LeBa6/H3Zlj7g5+mBmvQY2g4syM+nH6Jmg1kCQE63scff/y3f/u311xzzcKFC8fHx48dO/atb33rL//yLx944IEf/vCHGoITBujR0dHvfve7epMPP/xQ9pw4cUK+d3SP1uRbb71Vl0jLn3JZk7FYvHjxxITzLRYRvtetWyd37Lbbbnvuued4B0KgYaIb9NKlS828NHgNWo78L//yL9u2batffRasgEZTojUAADy8KOSdlZ51ZDlAD7sLmasemqQBIF8I0DEmJyfvu+++a9z3Hty2bZv/Xf5++ctf/vznP9fLCQP022+/rfOF3kT+1Nwca/78+afd5YT+AN3V1TUxMaGt59ChQ7fddpvuX79+ve4sd/bs2brmKqA1hTXoRYsWmRnpOXPmzL//+7/LwR9++GH9d6n6YQU0mhKtAQDg4UUh76z0rMM5BcfoqWwGaHHw8NDOPf1VDLmhOQQA5AoBOsbatWs16erKYiEXZPNb3/pWf39/2KkwvFXM/gA9OTnpBWvx0UcfXblyZdWqVWY7TmCAfvfdd2W/Xk5IbitH0LsEIEWBDTr1v9J4531+5pln9FwcdW3QrIBGU6I1AAA8vCjknZWedWQ8QANAqyFAxwhcoSx73njjDX8IDuMP0Lt27bruuuvMFW6AnpiYWLhwoW5u2rRJk01fX9/XvvY12SN/ymXdKWTyzMyMHIcADWTQ6tWr5U+rQW/YsEGvTYv1roN6Lg7vPQnrgRXQaEq0BgCAhxeFvLPSsw4CNABkCgE6xqlTp26//fZbbrnlu9/97uc//3ltuEuWLJmcnKwoQPvP3aE+cmnd/uY3vzk0ZP5TmrDTd3j8H3fr1q0vvfTSk08++b3vfU/3LFiwYHWkTZs2TU9Pm2MBSIN8Z80rnm1jw4YNWp9Fun+fseqz7GlAg2YFNJoSrQEA4OFFIe+s9KyDAA0AmUKAjnHlyhVdd3zw4EHtwt/4xjfksuzxh+CP4s4B7b2Toaerq+vxxx/Xyw888IAXhSsK0PpxvZvIh5APJHvee+89zc07d+50bwSgXrziLN9x1p5Fixal9Vea8vqs6t2gWQGNpkRrAAB4eFHIOys96yBAA0CmEKATmZiY+MlPfnKNe/KN119/XetPRQH6hRde0JkeucnMzMyePXt+9rOfdXR06A1FpQH64sWLy5cv180nnnhCc/ljjz2me1577TW9FYB6kL+xaGu2zrZRXqVrEVafVV0bNCug0ZRoDQAADy8KeWelZx0EaADIFAJ0vMuXL69evVp7rp58Q/dXFKA//PBD2fzSl770la98xb2Fc5ODBw/ucG3btk0viNdee02m6WS5bPa6Alde7969W08tfcMNN7S3t+vM++67TyesXLlS93hOnTrl3kcAtfLqc+DfWzZs2LB06dLa/0oTXZ9V/Ro0K6DRlOrXGgY6N2/e3Bnwr8cAgKwiQOedlZ51EKABIFMI0DEuX778wgsveO9D+K//+q+PPfbYD3/4w+9///vym4oXgm+55Zbv+dx66616Ey9AHzp06Gtf+9ratWu9NPzRRx9565QTkvlyqPPnz//sZz/TPXIQoZcTkvnuZwagVotcdf1LS5L6rOrUoFkBjaZUw7ftQGdkX04QoMd3b928eevucbNpca+NuN7HmZpkHgAgEgE676z0rIMADQCZkmaAllfu5Mxt6iatAH3s2LFvfOMbpt36zJs378iRI16ADuMF6PHx8QceeODEiRP+xcvVBejTp0/Pnz9fNvXgBGhgTmzdutU67UY9bN++PUl9Vl6DlluZXTVjBTTidD9ydYBHur0r568/7l6OEnyQIEmOFq/630MOO4G52IdNLE6i87DePqY/u/1axS6jHh/odD88660BoDYN+Msp6spKzzoI0ACQKekE6K1bt+p/h57c0qVLx8bGzO3rIK0APTMz09bWZtqtz09+8hN/TQ7jBeiLFy/K52udPcN7q0C/Bx98UE+pIX/KZbPXJfPlUHJAOaxM+OY3vzk0NDQ9PW1Kj8+KFSvcD3LNb37zG7OryHu3QwC1qOtPMI/8CJqamkpSn5XMlPl6LvhUsAIacdzGvGHUbAk3JkcF6OPr5y9Y77uBcG+zQm8TLvBoVampNUSuUY5fAe0k7IjbaqpOsJBauUGcZdAAUAsCdN5Z6VkHARoAMiWFAD02NuY1ZRNKI8m0RYsWyfy6Lh5MK0CLPXv2/OpXv1q3bt1HH3108uTJ8+fP6/6KzgGtIm7iCbutp7OzU49w++23Hzt2zJSeUhEBWsjdMMcCgEisgEacCgO0e+3VCx7pLunI7t68BGgxvntr5+5xp/r6lixHcAtx8HrpYjz21WdX4rIcuaIaABCPAJ13VnrWQYAGgExJLUAvWrTIbCegK6ZXr15ttusgxQAdaGZmZnJyck4C9Msvv6xHuPfee++66y69XJHXXnvNHAsAIrECunX9bknhm08ULputcG4V3jDqrGvW7uzG5MAAPbpBppTWaiNvATpc3NJlNxfb12uatiNy8N4AgccEACRFgM47Kz3rIEADQKakuQJ6Q2JLly7V+eYQdZBWgL5y5crZs2dHRka6urrWrVu3YsWKf/7nf/7yl7/84x//eHR0tPEB2v8OhM8884x3tIoQoAEkxAro1vXajwt/80BhymyFSxigR9cvcOJzSD52b5NI2BH6nrn5T6/+6+Xdyf4LnzkL0NqKvWXOQk8qvXWrE5vLdHa610bHZQ3V1mEBAIkRoPPOSs86Ug/Qw6PjDAaDwah6pHMOaD2lRqXqegbVtAK0t9zY8vnPf/673/2u/Kmbt9xyy/d8br311j//8z+X/fKnXH7++ef1aLUH6F27dnlniO7p6dm0aZOe2MSyYMEC94Nc87Of/czs8tm5c6c5HABEYgV0a5n4XeF/f6Xwcr9zeefKwj+vc3fuKPzjVwrPuDsDJAnQbn22z/vs596mphXQjQjQxdLr2Lp73L8ZTyOyOQG0k6mdXpzoPBvux4mYpAk7wYEAAIEI0HlnpWcdrIAGgExJJ0ALedneWol6v39XWgHaO+FyLR577DE9Wo0BemZmZs2aNXrzhQsXTkxMmCvKyEfUaSx2BlALVkC3Fm3Nf/OVwsodhZH2wiM9hXM9hW9+wdmzadjMsSUJ0O7lLKmtNTj5uLrYW7xlMUCnway5Nmnb7AQAJEeAzjsrPesgQANApqQWoLMmrQB96NChG2+88dZbb/35z3++du3aDz/88NixY+fPn3/ttde08CaRVoAWk5OTS5YskWvXrXMXpoUgQANIBSugW87lc4XfPeNk6F8sKTzfXvjHGwsP/7YQlTXDArSecyPCI93uTaoWdC7ppOYoQJtWrBeKAdrd6VN65Ljlz7oM2zmmeyn6ZB0AgCAE6Lyz0rMOAjQAZAoBukoXLlwwiSWB8+fPe7eqMUCLkydPLl++XP4020EI0ABSwQroVnWxsGlJ4Sf/N7VzQHvXhuteMXu7eksxQCc4EUexCmsidrqzHaCLl50Z7pFLLkQEaP/VMVMBACEI0HlnpWcdBGgAyBQCdEPpWxpql5menjZ7S12+fHliYkImyJ9y2ewtNTMzYy4BQD2xArrlmBXQ8wq/a69tBfTsle4pONwF0VFneXZvFnsa6JSkHaBDs6+7vLkYoL2TNft0Hq4lQLuHn73WncwiaACoEAE676z0rIMADQCZUt8AvWHDhkWVWLp0aVov/9kM0ACQL6yAbi0TO8wZn18bLgz838LKSs4B7bXm4AAdt8DZf6v6m5sAPcsfnd0pPl539i6EHd69zjuOizNBA0DlCNB5Z6VnHQRoAMiUOgboDRs2zKvcokWLUnl/QgI0ANSOFdCtZfS3ha/MK7zjtuYtDxR+0u5c0HcmXNnjXA7gD9BuQA4J0NFn4RjdkPR00LWc+tmTdoCOFh+gq1kBbfKzdezw+QCAEATovLPSsw4CNABkSh0D9OrVq+fNmyd/mu048sK/aNEiuQkBGgAyghXQrWvdvxT+90pzOQF3gbMoLcz+AK1zFqyvvh+7CTuTATq0+LrLm4MDtNq6e3dVAdrdH3i6jeg7BAAoQ4DOOys96yBAA0Cm1D1Ab9iwYSwZeeF3lkAToAEgM1gB3bqen1f45jPmcjznFM/zVzziLmP2NejSAF1rQfavrbb1PXPzn1791Uf6LpjtaCkF6PHdnbsHInuvP0BrM/bUcgoOk5/9J9/wIUEDQEUI0HlnpWcdBGgAyJQsnoLD3L42BGgAqB0roJGIF5rdxDy7zNkK0CIqIsdwT9NRejTPhb7HGxygOzu18lpZOUjKp+DQjxgZmHVK0PpoAEAZAnTeWelZBwEaADKl7m9CuLQSq1evTuvlnwANALVjBTTiWeuafQ16Nhk7O0071tM9V74O2k3XK6pK12VqD9BeAg4oxD7u1CoCtMc+fIL6rPRO0qABIB4BOu+s9KyDAA0AmVLfAD2HCNAAUDtWQCOG5marC3c/Mn9Ft74vYVHpoufoddB6zHK1nD+6VE2t4bCTdr0EHB+gA66sMkBrVA79YLYKpwNAqyJA552VnnUQoAEgUwjQAIBQrIBGJPcUG+FrmWt918G6qaU1uMF4dmFxeYDW7uspxmU/f3TWy96N9FC60NnQme6MimuyHjfoPgAADAJ03lnpWQcBGgAyhQANAAjFCmg0JVoDAMDDi0LeWelZBwEaADKl7gF6QyXktX9sbMzcsjYEaACoHSug0ZRoDQAADy8KeWelZx0EaADIlDoG6LGxsXmVW7p0qbl9bQjQAFA7VkCjKdEaAAAeXhTyzkrPOgjQAJApdQzQGzZs0KC8NZnVq1cvWrRIbpLKImgCNADUjhXQaEq0BgCAhxeFvLPSsw4CNABkSh0D9OrVq+fNm7d161aznQABGgAyhRXQaEq0BgCAhxeFvLPSsw4CNABkSt1XQIulyWh9Fub2tSFAA0DtWAGNpkRrAAB4eFHIOys96yBAA0Cm1Pcc0F5TTq6iFdMRCNAAUDtWQKMp0RoAAB5eFPLOSs86CNBVGir89L7CpiGz5bfp4cJP3zCX0RBdbfPmtXWZDdG18u724+ZyhZxD3b1Rnteh9rtKjonGOd5+d+kTGmZo493z7moP+i7MtzoGaDVWIXOzmhGgAaB2rIBGU6I1AAA8vCjknZWedRCge9cWvnJf0tFrbhQQoL3uTIBuOCtAD3WttAPm0Ma73awcazZAD3U5GXTeSiL0HOhaKQ99bIKefd6dEh2s6n+KmEt1D9BzhQANALVjBTSaEq0BAODhRSHvrPSsgwDtBOi15nKUrsgA7W6uclsYAbrh7BXQ8ny03+Vrx25VbuuqKEAr2cxlwcwLNzRXqPi0Orct+ecB+8vArdKxFTuLCNAAgFCsgEZTojUAADy8KOSdlZ51EKBrWQEte7RBj7wxey0BuuHKA7Sz7+6VbnJ2rvRf67bpCiVbPY0GkqfVnHzDeULdJ8j6MnA2c/rEEaABAKFYAY2mRGsAAHh4Ucg7Kz3rIEAnXQHts+nhwqo33CXPctuHCyPuHi9Slw9dGY3UlZ944e6N7U5vDhW7HrZ06TQaJX4ptP9cz85Jos3KdPeGury9NEBbOTpXCNAAgFCsgEZT2r9//+XLl80GAKCFycuBvCiYDeSTlZ51EKA1QCdaB+22ZnPyjS5zCg65oZOhfafjYAV0o4W/Z13ZWRpiEaDnRvQzZb3ZoPUPD8Wn3knOxYN4y6JziQANAAjFCmg0pZGRkeHhYRo0ALQ4eSGQlwN5UTDbyCcrPesgQIetgF7lP8Wzn54M2ncOaGf5s+8IBOgG0xyZUoB2b+JfbIuGcBcyRwp4UkpPsuH+O0TxC8GN0UW5K9EEaABAKFZAo1mNjIzs379/HwCghckLAfW5CVjpWQcB2gvQsYug9RTPZr4XoH0lWhGgG8uc07ltZVt5aw4J0CV10q+ty15si6xyn3f7vByOktwcvjo+ywjQAIBQrIAGAABAllnpWQcBuiRA+xYyl6yAdivz7DsQirLu7CFAN9Tx9rvvuts7I0NbV+Ra2rIYXZ6b3fXUuSuWORa/9tmv+GS5typ9mtz10O0b5c/Z/c60HP5zAgEaABCKFdAAAADIMis96yBAV7oC2vAHaPekHBGj5IZI1dDGu/WNB4vpuSRKOnsiT8ERsN5ZO6b7BndogNjnyON7suw17PKsF//lwHf253wufxYEaABAKFZAAwAAIMus9KyDAB22YDn0HNCKFdCZ0NXmxGInR7qdcaj9rpJ2XE2Azm21zCnfc2TOplLGPBsBT5aPcxy91vwTQtk5OvKDAA0ACMUKaAAAAGSZlZ51EKA3PVxY1VUYecNethw4rJNyEKDnllMknXbpBWhbNQFa+2Xe3rYuv6wAbT/yvuc27Mlyd5Y8a84xHXldyU6ABgCEYgU0AAAAssxKzzoI0LrS2QnQDxf8b7VpVkB7Z3+2ijMBOgOGNra5hXE2UhbLY7jSHh24qHZ2La0rtmKjFlUGaLc8e4nZucr3bxDmy6Dsmc0LAjQAIBQroAEAQHI7Dhf+dlXh/1tYuGo+I4Xx/y4o/I+lhac7zMOrntthT0tr/OkD9p60Rv2OfFc7ATqIe/rm3sJsgF5VtupZhhOUCdDZ5YuUpWLbcbFpmpxpgqa7VTxgUBVFeqwAHcQO0PY/G7hnTSk+R+YgbV36nAZ+XWQdARoAEIoV0AAAIKE39xT+n9vtPshIZdzVbh5kQYD2DwJ0oN61JhZ7AXrTw05xLn+/wV4CdHZVFaC95uywbq0RU3eGHhypiFkB7RPybLpPpPZo85zOPl3OTXyn5sgLAjQAIBQroAEAQEL/9Rd2HGSkOD44ZB5nArR/EKAD+CJy+Sk4bCEBOtHJo6OPjFpVFqA1SoaGaeUuqp037+67nRKd11MJ50JIVvb4/6Eg6ImQ6331OaA161MZ/XRnDAEaABCKFdAAACCJE2ftMshId/xonXmoCdD+QYAu5y1/FhEBevakHGvNHkf4Cmg0XGUBOinToHPWLtEECNAAgFCsgAYAAEkcHrfLoDX+y12Fu9urGbesKXz6QftoLTi+/qR5qBsWoKt4yuTJ8h/BGwkDtHU0uQPWhPJBgEbzqk+ABuYIARoAEIoV0AAAIInYAP3kh2ZmFQ6dtI/WgqPxAbq6p2zzxyUH0ZEkQH/6QXMEj9wBa075IEADQC4QoAEAoVgBDQAAkogN0IdOOmnyv9xlljMnv3C3+/57cln2tPKoNEDfssZ5wIU88vIYWtcGDisT61Pm3xM95DmS+YH/WpBwBXQVgwANALlAgAYAhGIFNAAASCJJgH7yQ2dooEx+4ZY1zvFTCdB9x51h7Swfn3mo0D9auPd1e7+MVe8nOkI9RkUB2p+e5WHUy9ac8lEeoOW2ckEefO+EGNEX5MnSof+E4I3AAC3zKx36gfyDAA0AuUCABgCEYgU0AABIImGA/i93mYaY/ELjA7SMt/YWLl62G7Rsys7OQadQ+/db4+anC2cuuA9KCDm4dZMkI3mA/rR7Lgttxzrk0bP2BI6wAC1/Cnki9DhJLli9uzxA652sVPmnQIAGgFwgQAMAQrECGgAAJJE8QFtrYyOGTr6l8gAdm4AtMllu4j/CZx4qHD1Vsl/rc3k7lj0W/xy5lRwkcDF1pSN5gNZebO28u92OwuUjIkCXl9+IIU+Znm7F2xO4AlqG1urog+scOaa1XwcBGgBygQANAAjFCmgAAJBEpafgSDJ0chUBOmzEroDW7pyETPOvgw4LzW/ttWdWPZIHaC8c+0eShzEsQNc+ogO0xmX5U++edcE/p3wQoAEgFwjQAIBQrIAGAABJVHoKjiRDJ9/S8ABtLXMuv1V5VrYCtMwPYx08+ZjDAC1/3p3sbQx1fPrBylZAa1wOu+CfUz4I0ACQCwRoAEAoVkADAIAkMnUKDhmr3nfvVjIyWW+VYoC2biIj8ODJR0YCtD4pYUPnyIVKA3SSC9ZtdRCgASAXCNAAgFCsgAYAAElwCo6wAO1dzm+A9o9oXoO2BgEaAFocAboChwaObe/cteX9bgaDwcjgkB9Q8mPK/MBKCSugAQBAEpyCY24D9N3tzqJjHUIebW9Th+wR/j3WEWSwAjpiOHcCAFAtAnRSO3ftP9A/OD19yWwDQMbIDyj5MSU/rMx2GlgBDQAAksjUKTje2uvep0poF85vgJbHVvj7csSQ50KGdQQZBOiI4dwJAEC1CNCJHBo4dqB/0GwAQIbJD6sU10GzAhoAACSR8VNw3Py0E4j7RwujZ53L1rXe0EacRAYDdKUPrLVTRliA9o9oXoO2BgEaAFocATqR7Z27WPsMIBfkh5X8yDIbNWMFNAAASCLLp+DQ+qwVWP70J+BV7xcuXp4Nx4GN2CvI3ki+Atp/wMYH6N+/w1mJ/J3n7f2VBmj5kxXQzp0AAFSLAJ3Ilve7zSUAyLwUf2SxAhoAACSRqVNw+IfWZ68Xy+boWacUy7h42Rm/3uzs9N/EGuUBunyEBWj96Kvedy7PSYAWjQnQ/idINgnQAAA/AnQiBGgAOZKRAC3MUQAAQLPL5ik43iqeDNpfkFe9b3ZqF/aGzKmUd1jN2d5OHbJfP5Zezm+A9o8w0U9rEwTor9xXYOR6AJhbBOhECNAAcoQV0AAAoMGydgoOb4GzXPBysDe0C1sBOmyU39w/5CpVPkeXP3cOOn/qPbEmVDQyvgJar9Uhm823AtqqmYzcDQBziwCdCAEaQI6wAhoAADRYpafgSH7hlsoDtC589vqyV5B1DfKZC4Wbn3ZGwi7s3byioQXcu6HepaqXP8uYkzchlCFPgT9AJxlyEwI0I2vjwMEjDAZjDgcBOhECNIAcYQU0AABosEpPwZH8wi01vwlhX3GRcnlu1iQtIhJzFQFaP6K1wtpK0pWOJAH67vZEY/PH5hG2hpWJ9ZEXtTz4OmIDtFz2ErN1ISMB2rkTAADXROUI0IkQoAHkCCugAQBAgyUJ0LoqVmtm8gu31BagdaVzLUuPKwrQenKPsA9Xy2mgYwN0RZIEaBnysOsKaBnWVRGj0hXQ0QfXLwACNABkh4nKlSBAJ0KABpAjrIAGAAANFhugKy2kFutoLTiiA3QqIywT63N3S7ITZegF4T9CRIDe/LGZH+3T7llZygcBGgAaz0TlShCgEyFAA8gRVkADAIAGiw3Q/8Vdy2ydCyLhkNtaR2vBMYcBWp+7Tz/oXJCnI8kF+dN/hLAjy5CZsV8YcljrVt4gQANA45moXAkCdCKND9B79ux5+umn5Rky2wCQGCugAQBAg504a5dBRrrjR+vMQ934AF37qN+RCdAA0HjalCtCgE4kec2Rx/Tpp5/es2eP2fbZunXrSy+9dOHCBbMdKWGAPnLkyOOPPx744aLJnSk/vtw3uYdyldkG0BDyrdfb29ve3r5mzZqXX375gw8+OHXKfTecarECGgAANN5//YUdBxkpjg8OmceZAO0fBGgAaDynKFeIAJ1IdQFaL690vfTSS++++678+eqrr+oeodM0IptdcWSmzHc/lKO9vd0ftWXTzCsl+3WC0tDs7fTKuO4nQAON1Nvb+8QTT8j36ZNPPik/MZ566qnHHnvs0Ucfff3116empsykCrECGgAANN6bewr/z+12H2SkMu7y/X2OAO0fBGgAaDw3KVeGAJ1ILQHaW57sXwFtXVVOrpIJMs1sByk/SLvLbBSV7/Svm9borBMI0ECDvf/++48++uirr7568uRJs6tQmJ6elv2rVq16/vnnT1W1FJoV0AAAYE7sOFz421WF/2+hXQkZ1Y3/d0HhfywtPN1hHl5FgPYPAjQANN5EiDVr1phLZQjQiSSsOdZC5u3bt9c1QMsBNRzr0XRT9/iV7wy7JwRooJHk+27VqlW/+93vLl++bHb5DA4OPvnkk6+99lrgtdFYAQ0AAIAWYaVnHQRoAKifiSBrisx2KQJ0IrWsgNYY/dJL5hQc8qfuETqtPeS8GWE0EB85ckQOrqfj8Gp1eWsW1k6rMsttzXGDeJ0aQLomJydfeOGF6G+xjz76aNWqVf39/WY7sYwE6Gc/OP+f7ygwGAwGg8FgMBh1Gt95ngANAI3mFOVSpj0Xmb0+BOhEagnQelmErTu2ArGQmda5npXXjvWC3srbKZdljynHpfzH1+Ks8/23Ld8EUD+HDh2Sb/OdO3ea7SBnzpxZu3btb3/7W7OdWEYC9I+f2GX9DYHBYDAYDAaDwUhxEKABoPGcouxjqnMpc10RATqRRgZouexNEzJTNuVPuewFYr2gcVl4861DKf9O74Zamf3LqL1rCdBAA/T09Dz55JPDw8NmO4R887788ssXL14028mwAprBYDAYDAaD0QqDAA0AjTdRuboF6JnC8T2FVU8Xlj5deHlPYWrG7G6YOQ/Q27dvlz/lsjbiQF6bVnpbf/+VCTKtp6dHrjK7Sh05cuS5557zrvW3Zo9/px5Q6EeR/V68FgRooGHkG02+38O+tT3WN2lCWVsBLX8xADJl//79VZxdHXUiz4U8I2YDAIAE1vUQoAFgzkxUrj4BeqJw3x0lb037+3cU3o/JLCmb2wDtFV4/2RMRkjT+ah32aDiWP61U7bGukk1hNoq8nXrf9FTUcmfkI2ol12mCAA00TF9f3xNPPHHs2DGzHeTy5cvr169/5ZVXpqenza5ksrYCmgCNrNm3b5+5hGzgGQEAVIQADQBzyE3KlalDgJ4prF3sROfrny50HSkcP1RY9aCboe8qHGzgOug5CdDe+uLAXhwdoP28ZCxkvjxPslneheWjeNOUe7vQAH3kyJFXX31VjhZWmQnQQMPI9+Pjjz++bds2sx3k5MmTTz311ObNm812YikG6NUvvj40NPzUi5uOD594+uU3Rk6Mrnn5zdHRsbWv/Pbk+Piz694ed/5869SpU8+9+vbp06f9f7ICGplF7swanhEAQEUI0AAwh9ykXJn0A/RUR+H35xeuf9lsqrcfcRr0TzvMZgPMSYD+7W9/K4/p08WTO2tg0iRdrrzzevP15u1l7yioHVnpBzJXrFyp/y1/+U2U/4ZeZbaOECYwpgOo0fT09Lp165599tkzZ0J/Usn3aeD7kcZKMUCfOz957tzk+fNT5ycvTF24eOHi9MWLct8vXRYz4orzP5e5gY//LwZAppA7s4ZnBABQEQI0AMyhicqlH6C7nnZa89ohs2nscE/E8bTZaoA5CdBCHlMvQIvANcXlUUmnmeLrY8Vf2fRSslyWCXIrua3uEXKtvzUra2fEMueIqwCkbnBw8Mknn1y/fv3k5KTZ5dPb2/vYY4+9++67ZrsSBGggGrkza3hGAAAVIUADwBzSplwRAnQiVQdoceTIEdnj5WZd5hwbecuPIy5cuPDqq69GLIe0WrOydhKggezo6+tbtWrVmjVr5MLl4luijY6Oyvfso48+unLlypdffjkwT0cjQAPRyJ1ZwzMCAKgIARoA5pCblCd+l4xOTiNAnyq8vWN2tLsB+vpXzJXq7X93dn756ZKZu0+Za+shOwFayKbslKu0PvtzsJ9MeOmll+RPvewdZ2v4yaNlgrtUeqUuqXZTMwEayJPh4eEXXnhBv5E98h39wQcf9PX1yYUqGjQBGohG7swanhEAQEUI0C3l0MCx7Z275O84DEbzDfnalq9w87WeHxMuE5jj6OQ0AvRHTly2x+PmSqVvS2iN+z4y19ZDpgK02Lp1q3al8kCsZL9cK7ft7++XTe84Fy5c6OnpkctyrT9D63zraLJp7RHWTgI0kEEnTpzYvn37pk2b3nnnnf37909PT+v+vXv3VtGgk//IikWARlMid2YNzwgAoCIE6Naxc9f+A/2Dk5MBC/KAJiBf2/IVLl/nZjsn3KQ8RwH6j5YUlj7tG/9hrlTvry+59nt3tUqA1qTrhGf3hM6aoa1G7LVpf7Y+UnriDqGrp8tvLvwfJYIenwAN5EsVDZoADUQjd2YNzwgAoCIE6BZxaODYgf5BswE0L/k6z9c6aG3KJjDH0cmpBegvv262knj/8eYM0FqBn3bPtuFl5fKeu8d33ozu7m7505vjVWZRHpqFzNTjm+3KEaCB3Km0QROggWjkzqzhGQEAVIQA3SK2d+5i7TNagXydy1e72cgDNynPVYDeWDi+xzmzc1foO+TN0gD90w8Ku3udmxys+B224s1JgAaAOtEG3dHRYbYjEaCBaOTOrOEZAQBUhADdIkgxaB35+mrXpmwCcxydXJdzQP/+HYX2IXNlIA3Q/vGZfyvsTjVDE6ABNJnJycnLly+bjUgEaDSJ7keuvvrq+RtGzWZ66pc7Bzo3b97cOWC2kBQBGgBQEQJ0iyDFoHUQoBPQAL2g8I9PF9q3FpYuLfy+u9l+ylxfTgP0799RWPp6of31wj/e4W4uKRycMRNqR4AG0LII0Mij0Q3zrzbmrz/u7OleIZcfqccLcA25c6Azsi8nCNDju7du3rx197jZtLjXRlzv40xNMi8PCNAAgIoQoFsEKQatgwCdwHTh1EThlO+0PAdfdxr0Hz1jNgNMOjeZmjZbhZnC2iVOg/5pov+4PBECNICWRYDGnHPbcQTNyqPrF5htx4L1JUudj6+fX5/lz6L63HnYCczFPmxicRKdh/X2Mf3Z7dcqdhn1+ECn++GbYr01ARoAUBECdIsgxaB1EKCrMlNY+qPCVT8qdJntBPoKfzS/cNXjZqt2BGgALYsAjcZxM7GfJuOIxcvuSmf7Kmd+aYCOSdhWra5QTbkzco1y/ApoJ2FH3FZTdYKF1MoN4k2wDJoADQCoCAG6RZBi0DoI0FVae4+zovl9s5XAUOHLBGgASAMBGo3jBuhiTnbO2ZxOgC45bKk0Tgxda+4c3721c/e4U319S5YjuIU4eL10MR776rMrcVmOXFGdGwRoAEBFCNAtghSD1kGArsqwW5MXF9xTOCZy/HUnWH/mZbNZOwI0gJZFgEbj1CdAl2y6xdm7gXtkc5LoqtUvd8YtXXZzsX29pmk7IgfvDRB4zJwhQAMAKkKAbhGkGLQOAnQCfYXP3Fn48iOFg+5poKeGCj9131Twhx+41wbpesG5yQ/fKUzNOOfrOL618JkFzvsWvjxsJtQu3QC9vXPX9PQlswEAGSY/rORHltmoGQEaMWoK0G5aDjF745IA7W4EnH+j75mb//Tqv17e7XtHighzFqC1FXvLnIWeVHrrVic2l+nsdK+Njssaqq3D5g0BGgBQEQJ0iyBAo3Uk+WqfOHO+b9+gDLOdgEw+MjQmNzTbKdGmbAJzHJ2cRoD+yMnN1vjM04Upc3WA9x+358v4aXiwrkK6AfrQwLED/RU8wQAwV+SHlfzIMhs1I0AjRlSAjmC1affdCP0roDf4ErM/QJfEaL9GBOhi6XVs3T3u34ynEdmcANrJ1E4vTnSeDffjREzShJ3gQFlGgAYAVCTnAbq/fV57v7mMKARotI7Yr/a+fYPLH9ugw+xKwLvJB51p/r6tTdkE5jg6ObUA/UdLCt9b7Kxr/swvC2t7zTVhNEBf/8vCl2X+nYV/fKTw9glzVVrSDdBi5679B/oHWQcNILPkB5T8mJIfVmY7DQRoxEjlFBzuQYLWNbtCo3P1asudTj6uLvYWb1kM0Gkwa65N2jY7c4cADQCoSL4DdH/7PLGyY8Jsx5jY1ubMr7xZ92+s5laZQoBG64j9ateOrCuaza4g1rWyKTd5/Pm3ZZhdadCmbAJzHJ2cWoD+8utmKwkN0Pd9ZDbrIfUALQ4NHNveuUu+JhgMBiODQ35Apbj2WRGgEUPbsU9sgC7nJmlDb17c6Z7r2QvQbt+u8ezPao4CtGnFeqEYoN2dPqVHjlv+rMuwnWO6l6JP1pFhBGgAQEVyvgLaNOioNqyR2pidWIzRs9q2hXTs2A+RB/J3HHMJaHbRX+0TZ84vf2zDixvfN9shNFKXn3BDbhi4v2ralE1gjqOTCdAAgFAEaMSIWAHtrmie7cih3MAsFqzv1hK9Qg7nnpRDD1wM0KZTO9fWKsUAneBEHMUqrInY6c52gC5edma4Ry65EBGg/VfHTM02AjQAoCL5CdAlITmBYjF2bhdQj50APbt0eqJjZUiAjv2widdfz63KA3TP8muuuebBHrMVqFumLFg3YraAjIj+aj8yNBYboDVSB6501gAdvXS6ItqUTWCOo5MJ0ACAUARoxKg8QDtX+SOyc6NHHinOdzblgi6s1mnFAF2s0iksgk47QIdmX3d5czFAeydr9uk8XEuAdg8/e607OZ+LoAnQAICK5CtAJ12G7J9bS4Ae72gL/6DuGuq2jpDfLbKGAI3WUXuA/qBzn8wJPNdzUwXoP1pSWPp00vG9uwjQAJADBGjEqCxAuy3Z4e1xmrLcxJuvdLGzOexsgC4eoOZF0HMToGf5o7M7xcfrzt6FsMO713nHceX2TNAEaABARVo2QDundd7o7Q4K0M4Nm6Q+i8oDdAIEaGRS7QFaJsgIPM9GUwXoKgYBGgAyjgCNGMEB2l2q7GZiL0CbE2jMTna5t5BrSwO0m5m9TX+ATmkRdNoBOlp8gK5mBbTJz9axw+dnGwEaAFCR/ARoo/zczaXKirHbkf3c0GxlaTtA60dxJzhXWQfN43sSEqDROmoM0Lr8OeydBt/43UdNEaCnC6cmqhlT0+YA9UCABoDaEaARIzhAexdmu7PDXrlslj/LpZIA7RZn3e9tzmZr69qqZGEFtNq6e7dcrjxAu/sDT7cRfYeyigANAKhI7gJ0GDcKBy1JDloB7UwuPXfzbNfe2F96k4n+jc5VxTzt9uzZpdO5EZzkRtYtuOaa5d1j626/xpg954a7038KDic3q2J09gdo91ByMOcGUYcV7sk9DHe+q+fBa665fV3Pq+5hxO3rxuROeJu+mY7ZO3PNgldTS4FoDtEBWgty4Ok1VPSEvn2Dcq3MSet9CLUpm8AcRyenEaAziQANALUjQCOGnqzZx0nDvmRcDNAl656LZJ7Z7wvQusbZN98K0LptH7DvmZv/9OqvPtJ3wWxHSylAj+/u3D0Q2Xv9AVqbsaeWU3CY/Ow/+YZPHhM0ARoAUJGmCNDOIuXQJcllAdptzZWtX/Ytu87TaTf8IgJ0aVC+ZrmZWBKgnTo8u9h5bN2r7v7ZAO02ZTcZO6IOK4fyUrL7IYq3cj+EV5OLkdrcgZITUrtVungQ92PRoOEXFqD1rQU1H5tdZbw5ZjuIFmoZqTRobcomMMfRyQRoAEAoAjRilKyANpyaXNznnYKjhNOQS3bOBmj3gCULnO0A7R5zxfpR/zEv9D3e4ADd2amV18rKQVI+BYd+xMjArFOC1kdnFQEaAFCR/AfoyPosAlZAu6uYA4TGZXd5dYXROmMiV0CbrdLo7LtsTysyAbqkIzuiDlvKOYJJyU6A9h3E7dGzq56d6GyudWK0/85YNwQiAvTjz7+93F3dHNaOo8+/ofQ00DLMdm20KZvAHEcnE6ABAKEI0IgREKDdYFw820ZggC7fWXoO6FJlAbp2tQdoLwEHFGIfd2oVAdpjHz5BfVZ6J3PToAnQAICK5D1AO2uTS0+mYSurzU5HHu9os3JzQKfWtB0n+qNnRk0B2peJS7gBeoFVn0VMgHY3Z5mF0lZH9hVnx+yqZ/fgNgI0fMICtNL1y337Bs12Ka9Qm+0yWqgj1lBXSpuyCcxxdDIBGgAQigCNSuk5N7xeHB6gS5JyRIAOPEKNasqdh5206yXg+AAdcGWVAVqjcugHs1U4fU4RoAEAFclLgNY1yJXRMzUHlGVhvetgyWbxY7V19Jd16lLx+Tsz6hagr1lwuxzDOzuHK+Kwmo+9Xuwm7MoDdOmHA0pFB2h9E8LAgqzn30iy/Dn/b0KYSQRoAKgdARqV0fMz+99ssHyPnja6NDcHBGi9oavGtxwsV0vudIPx7MLi8gCt3ddTjMt+/uisl70b6aF0obOhM90ZFddkPW7QfcgWAjQAoCKtsQI66OQZzn4Tl8vfk9AoXyhdqlUCtD2tqJiP3dNl+KJw+GFnO7LL3awwQLun4OCkz4iQJEC/uPF9s+2jq5sjlj8LAnQdEaABoHYEaFRodP0C+2wZ7imhLSmvaK4UuTNreEYAABVp3QCtZ9hY2dEvRwieQID2Lmti9sJx+ZsQupO9Bh1xWN+SZ51WeYC2e7dcFRDH0cKqDtCyPzYuE6DriAANALUjQKMpkTuzhmcEAFCRlgnQzv8VeblZd4YnZgJ0MUALN/uqYvz112TToN2jRR3Wd5zb141VcQoOl7tpsBoaluoCdJLzbwgCdB0RoAGgdgRoNCVyZ9bwjAAAKpL3AB169gyXE4iN8jXOWp/b290zPgcvgW76AA00o6oDtOyMLcsE6DoiQANA7QjQaErkzqzhGQEAVCQvAXpxiTtv+8K1TjZ2PbShy+wu2rhxo7lZobDq//zztdfe/ANzjWNoaEjfZnDJa/vMrh/cfK3j5v+zapW5WaEgB1l8x203uFeoL3/5y+4HdJhd4gu33ekew9wsqwjQaB2xX+2PP//28sc29O0brKgjy2S5SZJV0hXRpmwCcxydTIAGAIQiQKMpkTuzhmcEAFCRfAZoh7miUOjqqiRA/+Dmm266ad5GZ8Hz0NCQ2al+cPNf/MVf6FWiGKBvuO0Oc718IL1K6J47v3MDARrImtivdn2zQR1mVwLeTfr2DZpdadCmbAJzHJ1MgAYAhCJAoymRO7OGZwQAUJG8BGjUiACN1pHkq12XM1eUknX+xJnzZjsl2pRNYI6jkwnQAIBQBGg0JXJn1vCMAAAqQoBuEQRotI58fbVrUzaBOY5OJkADAEIRoNGUyJ1ZwzMCAKgIAbpFEKDROgjQeUWABoDaEaDRlMidWcMzAgCoCAG6RRCg0ToI0HlFgAaA2hGg0ZTInVnDMwIAqAgBukUQoNE6CNB5RYAGgNoRoNGUyJ1ZwzMCAKgIAbpFEKDROgjQeUWABoDapRKgGQwGg8FgMBiMegwCdHMjQKN1EKDzigANALUjQDMYDAaDwWAwMjsI0M2NAI3WQYDOKwI0ANSOAM1gMBgMBoPByOwgQDe37Z27JicvmA2gecnXuXy1m4080KZsAnMcnUyABgCEqiVAAwAAAPVmpWcdBOjmcGjg2IH+QbMBNC/5OpevdrORB9qUTWCOo5MJ0ACAUARoAAAAZJmVnnUQoJvGzl37D/QPsg4azUq+tuUrXL7OzXZOaFM2gTmOTiZAAwBCEaABAACQZVZ61kGAbiaHBo5t79y15f1uBqP5hnxt52vts9KmbAJzHJ1MgAYAhCJAAwAAIMus9KyDAA0A9aNN2QTmODqZAA0ACEWABgAAQJZZ6VkHARoA6kebsgnMcXQyARoAEIoADQAAgCyz0rMOAjQA1I82ZROY4+hkAjQAIBQBGgAAAFlmpWcdBGgAqB9tyiYwx9HJBGgAQCgCNAAAALLMSs86CNAAUD/alE1gjqOTCdAAgFAEaAAAAGSZlZ51EKABoH60KZvAHEcnE6DTsWXLluuuu25sbMxsF8n+Z555xmz4TE5O3nbbbYFXWeQI9957r16W+XIrua1ultu7d+8nP/lJuYnZBoDaEKABAACQZVZ61kGABoD60aZsAnMcnUyATmTLli1XBfEKsgbodevWWYH4zTffDCzCCQP02NiYHHbZsmV6zNi+fO+99/rvgGyaO1rKK9oAEI0ADQAAgCyz0rMOAjQA1I82ZROY4+hkAnQiW7Zs0bA7Njb29a9/fe/evbLz3nvvtQL0kSNHZJo/AQuZ88lPflJv4kkYoK2gLGRP4FJrobXan6dlsjAbRYE7ASAQARoAAABZZqVnHQRoAKgfbcomMMfRyQToRLZs2fK5z33u61//+r59++TPdevWyZ/+gqwBemxsTMuyvwLrHuHvyEkCtBykvFxrZQ4syHI03a9zdLN8ZuBOAAhEgAYAAECWWelZBwEaAOpHm7IJzHF0MgE6kS3uCugf/ehHy5Yt+/rXvy4XNO+WB2jdtOzdu1duUlGAlgNeddVV/pDt0RNxWLeVnZ/73Oe0Vnt3JrA1B+4EgEAEaAAAAGSZlZ51EKABoH60KZvAHEcnE6AT0QA9WXYKjmXLll133XV6YmU/a71zuegAHZiY/XSC15H1aLrpP7LsMXeoFAEaQEIEaAAAAGSZlZ51EKABoH60KZvAHEcnE6AT0fXI5bxG7C061k2hjdia5tGzZASGYP1YEfVZ6RH0HB0anfVjCS9/y/HLP0TgTgAIRIAGAABAllnpWQcBGgDqR5uyCcxxdDIBOpGwFdBeJpYL2oJ10+Nfj+ynedorxR7dLx/ObMeRI1/lO1OH3FzuntfBA1tz4E4ACESABgAAQJZZ6VkHARoA6kebsgnMcXQyAboy/gDtd697sovycBwWoHWZc2CzFrq62VnMHK48Xgu5G/774KZmAjSA6hGgAQAAkGVWetZBgAaA+tGmbAJzHJ1MgE5EFxqX07KslflrX/taedgNC9CyR0Nw7GJnnWY2imRPeYCWQ1kz3ZsSoAFUjwANAACALLPSsw4CNADUjzZlE5jj6GQCdGUCV0DrzpUrV5ZH4cAArQuct7jKb2K513eiD6XHtCKytWhaLssemWO2SxGgASREgAYAAECWWelZBwEaAOpHm7IJzHF0MgG6MlaAls3JyUntyEeOHClv0/4ALZMfffRRuSDzNRCLwBN6eGSCpmqz7QoM0DLnqrLzcsic8tYcuBMAAhGgAQAAkGVWetZBgAaA+tGmbAJzHJ1MgI6nwVfXDlvuvfdef2Iub7vetV4gPnLkyHXXXectapYL1k38vFRttl2BATqQe3cI0ACqR4AGAABAllnpWQcBupkcGji2vXPXlve7GYzmG/K1LV/h5ms9P7Qpm8AcRycToKu0pXj2DH8j3rt37+c+9zn/imZ/vPYitd5QJwSucVZ6lZeqPWH7hWZuoW9vGNiaA3cCQCACNAAAALLMSs86CNBNY+eu/Qf6BycnL5htoLnI17Z8hcvXudnOCW3KJjDH0ckE6ET27t379a9/fd26dbfddtubb76pxfmZZ55ZtmyZ1YLvLe3LcsNPurRKy0zvsmfLli3lO7Vc+w/lkYNcddVVVrOWjys7rbLslGYCNIAaEKABAACQZVZ61kGAbg6HBo4d6B80G0Dzkq/zfK2D1qZsAnMcnVzPAD19/vz50cG9e/bo6O3t9S7vHRyVK6fNxHpIN0BrtPVWK+um7rcasc7Ra4WWa9kplwPDsbLCtFyQTe/IGqOdhc1F/uRdrnx+oMB7AgB+BGgAAABkmZWedRCgm8P2zl2sfUYrkK9z+Wo3G3mgTdkE5jg6Oe0APT0x2LVl3dq2ZT9fOC+JO5e0rV23pWtwIu0YnWKA3lt2Yg21JegEzSJwvkwuX+bs5zXoe921zNRhAFlAgAYAAECWWelZBwG6OWx5v9tcAppdvr7atSmbwBxHJ6cXoM8Pdbz00B2alRfevWzls+ve2NK1d8+e/qGJ85aJof49e/Z2bXlj3bMrl91tSvUdD63dvGfCHKx2KQZoAGhZBGgAAABkmZWedRCgmwMBGq2DAJ3IdH/7soVOd161saN/rOLFzNNj/R0bVzkleuGy9v501kIToAGgdgRoAAAAZJmVnnUQoJsDARqtgwCdwNneZxfOW/hvbw6eNzuqdH7wzX+TAz3bm8bPdgI0ANSOAA0AAIAss9KzDgJ0cyBAo3XU+NU+NXXRXGoIbcomMMfRyWkE6P72efPmrQs9uXEl9q6TQ7X3m61aEKABoHYEaAAAAGSZlZ51EKCbAwEaraOKr/ZTp88dPDy8Zfuet97r0SGXZfR9fOTY8EkzqT60KZvAHEcnpxagU1sBTYAGgMwgQAMAACDLrPSsgwDdHAjQaB0VfbVb3VnT846dB6w9Ms3cIG3alE1gjqOTUwvQrjvaNnbsOX6+wrM4T58/vqdjY5t5A0MCNABkBgEaAAAAWWalZx0E6OZAgEbrSPjVPjV10QvNmphPnT5nrnOvlc1jwyf7Pj7izanH2Tm0KZvAHEcnp3cKjp6hjpceKkbkO5Ysf+rFNzZ39O7Zs3dw9LxlYqh/z57ejs1vvPjU8iXeTR56qWOoh1NwAECGEKABAACQZVZ61kGAbg4EaLSOJF/tU1MXvYXPsaubZUL9GrQ2ZROY4+jk1AK0qcbTE4NdW9atbVv2c+dkGrEW/nxZ29p1W7oGJ3TVtP9QtSFAA0DtCNAAAADIMis96yBANwcCNFpH7Fe7V5937DyQMCjLNF0unXqD1qZsAnMcnZx2gPabPn/+/Ojg3j17dPT29nqXdVl0+ak6CNAAkCUEaAAAAGSZlZ51ZCxAO6Wj8tAx0bFy3ryVHRNm0+N2k41pdJPMI0CjdcR+tWtKlj/NdhAtzlZr9hq02U6DNmUTmOPo5HoG6CoQoAEgSwjQAAAAyDIrPevIcoCe2NY2L4w/Nzs3ausYN1uzwvY3IwI0Wkf0V/ux4ZNvuefTiF7IfOr0OW3NMt/scqu03ta/s0balE1gjqOTUwvQz/ZW+NaDgQjQAJAlBGgAAABkmZWedeR/BbS7/LlM27aJ/o3msp/sN7drLoFJbuzVBdcULXh1rDCybnbbx7lqVs9y3ftgj7PxoLkAZEd0gNaTbyQpyHrqZ5nvP0m09usUF0FrUzaBOY5OTi1Az1u47MVtg+dnzL5Yzvk5PF67Hti8bPmyzQNmqxYEaACoHQEazWpkZGT//v37AAAtTF4I5OXAvDAgt6z0rCMjATogFgecUiOArpIOaNZVpOw8CwvQGpfNBSdAL7dycs+DGqCL3fmaa5bPHkl2LljHtz4yJiJAaz6OPvmGX2CD1hNxnDp9zmzXRpuyCcxxdHJqAfqOO+9wfpguvHvVS1u6+ocmAk7w7Ffyr3n1+Mc6AjQA1I4AjaY0MjIyPDwsX8VmGwDQkuSFQF4OaNB5Z6VnHdlaAT3e0VZRNnYbi9tJnHLiv2H/xmI/aY0SXXOAVmPrbp8N0P4F1LNuX+dfLw00XkSA7vv4yFu+5c+nTp/bsfNA9JD52qC94qxVWg6lmzXSpmwCcxydnOY5oCf6O9ofu3uh25RddyxZvmzZ6hfffONNd/SOFgrT+99ct23ovAbo5eu6dqxbpj9YZyb6t77Zld5LPwEaAGpHgEZT2r9/P/UZACDk5UBeFMwG8slKzzoyFaBDlzOH6N/W1ua9x6ATr/WMz255KR5mYnzC2ZFsPXV+pR+gQyZzRg7MuYgAbZ1/QxdEJxz+bC2baZ2FQ5uyCcxxdHId3oRw+vxQf9eWN9Y9u3LZsp/7crRMmR5sX+JcWvjzJU6olp+V7r8EzrtzyZI73f1re8+bo9RKA/QkAKAGBGg0pX379plLAICWx4tC3lnpWUeWArT5779NM9GMHMFLz35aTuQq5+bJU3buJQ7QAZyrur0zcMyyS7Qzx07SQONFBGhNyf63H5TLSYaZ7ZLNJgnQUW9CWDzf89B/PDRv3pJ177Q/tHDeHSvf7D0+cf7sxFDvm213zlv4wIvr1i6eN29xe38ab2ZYDNBXoWYnAbQwAjSaEq0BAODhRSHvrPSsI0MBWtvxvHltK9vK47KzODpuFbOeSHq2OltLAJtaWIA2LXn2TQijV0A7Z4L2nQPaFXQrYA7FBmizUQM9NYcVpqujTdkE5jg6uYFvQjjRtcqZ9lD73onp6enzA28+5C6PXvjAi12D58/PnB/a+tTdsr3kzUFzg5pogNZPEgBQHQI0mhKtAQDg4UUh76z0rCM7AdpJzBvb251Tj3a4f5bU5pgAbZZLl9VmjdrNfv4NkXgF9PIe5zwbIW8tWFwHbRq0bN6+bkxv5fzJGxIiE8ICdIorl/VUHrkP0EnehPD8sY4XH3Cq87q9g28unjdvybObt657aOG8ha/s2fOas3/hAy92HEvnJBwEaACoHQEaTYnWAADw8KKQd1Z61pGZAN3f7pzB2YkmTkWW/3eqsbOpJboYoJ3TdPjbtJ422r2RG1wCtPebtdV6hujmlDRAO28h6AvQTlb2VkA7J4B263PPctOpS9ZNOyeA5h0IkQEVrYCeKjvbRtgwN3CVH6dqmgtMYI6jk9M8B/T5wa721UvcDq2cNyFsW7vuzTfe7C3+g9L5nmflivaeXvm/Ze8OFQqjzo/MlR17/sN5M8It6X3TE6ABoHYEaDQlWgMAwMOLQt5Z6VlHRgK0u/xZw7NvGbPbn7Uaeyug3eJsprjn3EiclTVQB545Ov8SBWhd0VwM0LJzdrGzcK5dvlzfhLB7+fIHi2d8LgZordX2CTqAhosI0Lpy+dTpc7pZ3ZsQ6q2a600IZ6ZHB/d0bX3zxdXLli03Pdq59mz/m485bz047862LcdGu56Qi3csca9f8tvBwXeXuUuglz31Tn8qS6AJ0ABQOwI0mhKtAQDg4UUh76z0rCMjAbp/o3Zkf4B235Ow2Iu9AK1zrBN0lHDXO8+GFyF7mv0sHEkCtFOcH+yRLV3pXLqcWc/+7FzlJubi8mfhBWj3OCyCxpyLCNB9Hx95672eg4eHdfPU6XNeX96x80D0sLK1HEo3a6S5wATmODo5jQDtnk7jqa7Ybjz45pJ5zrsVni9M7O3oHRzseKlt2fK2Z7f2D+3t2jMxfb7LWRy9cK1cnwICNADUjgCNpkRrAAB4eFHIOys968jQmxA6ZgO0u9J5dnWzL0CXLIJ2lPVlZ2W0b6Wzs9mqAdotzY4Fr/b44rL/bM6y6Z7iudimdQW0Wf4sfAHa7dScCRpzLCJAa3HesfOA2fYtgvaqdCy5ucz3FkTXSHOBCcxxdHIaAbow2vHEwvg3ISwUpvvbF3tni553x0Mb95w/X1wWPe+OO+6cN2/hqq6Uzl4UG6DXrFljLgFAC4v+YUiARlOiNQAAPLwo5J2VnnVkNUC7//24LyL7A7Re61sEHXhi6GKhdhZEl6yHbkrRK6Adsx25PEB7m8UA7VcSoIG5FxGgp6Yu6lk4/Lm5ogad7vk3hOYCE5jj6ORUAnShcGGo4zlneXP0mxAWCtN7Xlo478629m1bXlzs/mOd+1+RLF775ub/65yC46H/GDUTaxYdoNe4zAYAtLDon4cEaDQlWgMAwMOLQt5Z6VlHRgP07EpoozRAly1qtubPnoXDbtPNKiLJuZyy7J5/w1z2VWZ9y0FVepWzDtplbghkQvRXu1eQ/e8rKJe1QXvn2QjkTUtr+bPQXGACcxydnFKAdp0f6X2z7E0Il61+0f8mhIWzExPOKmn3tEcL7172gLP8WX9unj82lFp+jgzQWluE2QaAFmZ+IIb8SCRAoynRGgAAHl4U8s5KzzoyEqAXGz+4+dprb/6Bc8lc4XKuuOnaa29yr3CZK1zujjtv+4K5oTBXuNn62i/cdqfZbZjrmktMgC5dxew/NYeDvoxcif5qn5q6qOfQ8J+IQ+h+f5UuF3jDGmkuMIE5jk5OM0AbzpsQ9na8474JoduXRdl/GeIG6KJ6/MNdWIA2ocVldgFACzM/EF1mlw8BGk2pfq1hoHPz5s2dA2YLAJADBOi8s9KzjowHaGel87x51zpuuO0Od4pLr9WVz+61Jdx8YphdhnNsc9PmErcCGmgesV/tU8UTcVjroCN42TrFk28ozQUmMMfRyXUI0NkQFqCFCS0EaABgBTTqZXT9gquvXpHRvzPU0BoGOiP7coIAPb576+bNW3eHvOeFe23E9T7O1CTzAKAFDA4Oyu8tZqNCBOi8s9KzjoydggNVIkCjdST5avc36NhTP8sEmamTo8/RUQXNBSYwx9HJrRigRURtAYCWEv3zkACNKh3vXr9i/tVXX/1IdX9rOL7euXGIKo/pU31rOOwE5mIfNrE4ic7DevuY/uz2axW7jHp8oNP98Ky3BtBi9FcUs+EaHBxc6jLbFSJA552VnnUQoJsDARqtI+FX+9TUxb6Pj2hZ3rHzwLHhk/64LNfK5sHDw9qpdY65LlX6WmwCcxyd3KIBWhCgAUBE/zAkQCNG9yOmClfKXRzdvcJslZq//rgevYzz4cKvTaym1hC5Rjl+BbSTsCNuq6k6wUJq5QZxlkEDaHq7du16/fXXH330UQ3NQi6/8MILg4ODcpXukctmdoUI0HlnpWcdBOjmQIBG60j+1T41dfHY8EkvMeuwNnVP7CrpqmkuMIE5jk5u3QANAIhFgEaMkCI8umF++DplN1pbZ+coP467CNo6iBw2jQXQNbeG8d1bO3ePO9XXt2Q5gluIg9dLF+Oxrz67EpflyBXVAJB7g4ODL7zwgibmRx999HWX7PHHaFF1fRYE6Lyz0rMOAnRzIECjdVT61a4Zuu/jI+Ul+uDh4dTPuWHRXGACcxydTIAGAIQiQCNGeIC+2k7FMlVnlgdo94TRC9aPmk1XwJGDplWlfq0hbumym4vt6zVN2xE5eG+AwGMCQDPwzq3x+uuvy68lZm+Rf+1z+bXJEaDzzkrPOgjQzYEAjdZR41f7VLK3JUyLWwsI0C4CNADUjgCNRIqx2L9C2b1sCrL26Pkbuke7188vf2dCd7Hz/A2lYTkgQJeXa0/fMzf/6dV/vbz7gtmONmcBWluxt8xZ6Emlt251YnOZzk732ui4rKHaOiwA5J/W50cffdS/ulnPxSF/+uuzznz//ffNpAoRoPPOSs86CNDNgQCN1pGvr3bNBSYwx9HJBGgAQCgCNBJwFya73bn0FBmyf/764241tkt06Vpn50zQVmu2DuUK7NRGIwJ0sfQ6tu4e92/G04hsTgDtZGqnFyc6z4b7cSImacJOcCAAyBH5JWRpaX32irP/5Bt6rUzWnXJBJ1eEAJ13VnrWQYBuDgRotA4CdF4RoAGgdgRoxHO7sC5MtqqxeY/B0jXL7hxfbvbd3M+5bcBJOawmXaXaWoOTj6uLvcVbFgN0Gsyaa5O2zU4AyDs977NXn+V3EtmUnXJB1zv7rxXvv/++TjDblSBA552VnnUQoJsDARqtgwCdVxqgzQYAoPgiURECNGL51y97AVpXOvtDszPNVGb/qZx19XQJTczlAdou1zWYowBtWrFeKAZod6dP6ZHjlj/rMmznmO6l6JN1AEBOaGL2n1JD+7Jc8NdnpROENutdu3aZ7cQI0HlnpWcdBOjmsL1z1+Rksv/ADcgz+TqXr3azkQeaC0xgjqOTCdAA0Cr0535FCNCIU3Je5mJ3dpQuVS59/8DuR+av6JbLZom0N9ldDe1eDgjTfiEn4kgqxQCd4EQcxSqsidjpznaALl52ZrhHLrkQEaD9V8dMBYD8eP3115eWnk9D9ujpONz4bNY+ywV/btZrZabZTowAnXdWetZBgG4OhwaOHeif/XcmoFnJ17l8tZuNPNBcYAJzHJ1MgAaAVqE/9ytCgEZieq5nV9n5NPRauxo7uXn++m4vOvsDdDj342QsQIdmX3d5czFAeydr9uk8XEuAdg8/e607mUXQAPJP1zv7V0BrklZan+W3FLnsD9B6K1ZAtyArPesgQDeNnbv2H+gfZB00mpV8bctXuHydm+2c0FxgAnMcnUyABoBWoT/3K0KARrxiedZw7F8EXcI6obPHH52bO0DP8kdnd4qP1529C2GHd6/zjuPiTNAAmoX1poLeOxB69fmFF16QOXqtkD1yLeeAbk1WetZBgG4mhwaObe/cteX9bgaj+YZ8bedr7bNyYgEBWhGgAcCiP/crQoBGFLcXh5blhKoK0DFz4qQdoKPFB+hqVkCb/GwdO3w+AOSK/BLyqEsu+M+8IWSnXJY/5bJ/suyUC7qnIgTovLPSsw4CNADUj7zgChOY4+hkAjQAtAr9uV8RAjSqVv4ugsECAnT4CaDlgFkM0KHF113eHByg1dbdu6sK0O7+wNNtRN8hAMgPPaWGlmWhuXnXrl2y33+eDfl1xT+hCgTovLPSsw4CNADUj+YCE5jj6GQCNAC0Cv25XxECNJJw30vQbsKBATpgZoUroPUUH2Vz+p65+U+v/uojfclOD5hSgB7f3bl7ILL3+gO0NmNPLafgMPnZf/INHxI0gKbhnfo5LC7HTkiCAJ13VnrWQYAGgPrRXGACcxydTIAGgFahP/fLffGLXzSXyhCgkUTtAdovQYCev/642TQu9D3e4ADd2amV18rKQVI+BYd+xMjArFOC1kcDQH4Mlp55Qy48+uijL7zwwusub2W07JFrzW2qQoDOOys96yBAA0D9aC4wgTmOTiZAA0Cr0J/7li8Wme1SBGgkUXuANrviV0Dr2TmiG3W82gO0l4ADCrGPO7WKAO2xD5+gPiu9kzRoAHmlxVloXJY/9V0HdaeQy6+//nqN6VkRoPPOSs86CNAAUD+aC0xgjqOTCdAA0Cr0576fac9FZq8PARpJuFk5uUoDtHvW51lly58rV1NrOOykXS8BxwfogCurDNAalUM/mK3C6QCQJa+759YI7Mvy+4m5lBICdN5Z6VkHARoA6kdzgQnMcXQyARoAWoX+3PeY6lzKXFdEgEa6AtdKN14trcENxrMLi8sDtHZfTzEu+/mjs172bqSH0oXOhs50Z1Rck/W4QfcBALIuldXNSRCg885KzzoI0ABQP5oLTGCOo5MJ0ADQKvTnfkUI0GhKtAYAgIcXhbyz0rMOAjQA1I/mAhOY4+hkAjQAtAr9uV8RAjSaEq0BAODhRSHvrPSsgwANAPWjucAE5jg6mQANAK1Cf+5XhACNpkRrAAB4eFHIOys96yBAA0D9aC4wgTmOTiZAA0Cr0J/7FSFAoynRGgAAHl4U8s5KzzoI0ABQP5oLTGCOo5MJ0ADQKvTnfkUI0GhKtAYAgIcXhbyz0rMOAjQA1I/mAhOY4+hkAjQAtAr9uV8RAjSaEq0BAODhRSHvrPSsgwANAPWjucAE5jg6mQBdpcnJydtuu+2qq6669957za4QV65cOXTo0E9+8pNf/vKXly5dMnsLhfHx8Ztvvvlf/uVfdu7c6d8PAHWiP/crQoBGU6I1AAA8vCjknZWedRCgAaB+NBeYwBxHJxOgE/nggw+WlFq8ePGf/dmfXXXVVddff73Z5SPzzS1db7/99n/+z//5E5/4xJo1a2ZmZmTPpUuXZJrcXHauXbuWdgOgAfTnfkUI0GhKtAYAgIcXhbyz0rMOAjQA1I/mAhOY4+hkAnQizzzzzFWVkPlyq8uXL3d3d2/evPm3v/3tV7/6Vdm/cOFCuSx7Vq9e/Qd/8AeyR/brHpkp8/XDAUA96M/9ihCg0ZRoDQAADy8KeWelZx0EaACoH80FJjDH0ckE6EQGBgY2l3rjjTe++MUvXnXVVd/+9rfNLh+ZL7fyTtORhMyU+frhAKAe9Od+RQjQaEq0BgCAhxeFvLPSsw4CNADUj+YCE5jj6GQCdFK7d+82ddkVEaBlpt7EC9A33XSTnppDXH/99bLnz/7szxYvXqx75FoCNIAG0J/7FSFAoynRGgAAHl4U8s5KzzoI0ABQP5oLTGCOo5MJ0Ende++9VyXjvS2hF6D1jBxKj+PPzXp+DwI0gOnp6eeee27Tpk0z7sniU6c/9ytCgEZT2r9/v3wJmw0AQAuTlwN5UTAbyCcrPesgQDcN+QvI4cPHe3r39fbt3/J+N6MB444npr9yX4HRgHH3msIdTxbWvF1ItV82guYCE5jj6GQCdFIbN27UBcsq4k0IZabexAvQSRCggRZ35cqVjo6OJ11yoR5JV3/uV4QAjaY0MjIyPDxMgwaAFicvBPJyIC8KZhv5ZKVnHQTo5iB/++jt279336EzZ86ZXai/r9xnLqAB9h4pPPCSU6Lz1aA1F5jAHEcnE6DjzczMjI+Pj5U6evToN7/5zauuuuqOO+4wu3xkvtzKC9B/9Ed/9LmiP/zDP5Q9f/AHf/BXf/VXukeuJUAD2Ldv36OPPqo/muVCPf5rUD14RQjQaFYjIyP79++XbzQAQMuSFwLqcxOw0rMOAnRzODRwbO++Q2YDjUKAbrwHXio88465nAuaC0xgjqOTCdDxxsbGrrvuuqsqIfPlVl6A5hQcAKINDQ2tWLFC/gzcTIv+3K8IARoAAABZZqVnHQTo5tDTu4+1z41HgG68PYPOuThyRHOBCcxxdDIBOt7Zs2fb2trM+TWWLLn33nv/5E/+xMnMLv/bCf7iF7/42te+JhNkvtzKC9C8CSGACPKzuHzJs2zqgmiznQb3x35lCNAAAADIMis96yBAN4fePk7RPgcI0HPi7jXmQi5oLjCBOY5OJkBXZnJycvHixZ/4xCeuuuqqG2644Q9c7777rlx15syZO+644/d+7/fWrl2rLcYL0EkQoIHWdOHChWeffbb8pM8zMzObNm2Sq2SC2VUz/blfEQI0AAAAssxKzzoI0M1hy/vd5hIaiAA9J/L1sGsuMIE5jk4mQFfg0KFDf/d3f6e9ePHixRqj5fKf/MmfrFix4o//+I/1qvnz55875/xHIpcvX+7u7t5c6tvf/rbM+eIXv/jGG2+YXS6ZKfP1AwFoHdu3b3/uueemp6fNto+26c7OTrNdM/25XxECNAAAALLMSs86CNDNgQA9JwjQc4IAnVfpBuhz584tW7bsP/2n/6SJWehpnYeHh7/whS+YXVdd9fnPf3779u0zMzNy1ZkzZ9577z1Tl33CArSQ+XIr9wMCQPr0535FCNAAAADIMis96yBANwcC9JwgQM8JAnRepRigd+/e/Ud/9EeamP/rf/2vn/zkJ+WCBuhLly5t2LDh937v92TPJz7xiZ/85Cfem4bt3btXZyYn8+VWenMASJ3+3K8IARoAAABZZqVnHQTo5kCAnhME6DlBgM6rFAP0mTNnbr755k984hN33HHH8ePHb7311quuuuo73/mO7NQ10UuWLJHLbkN2MvQXv/jF5557rre396tf/ernyvzhH/6hTPuDP/iDv/qrvzK7imR+f3+/+agAkDb9uV8RAjQAAACyzErPOgjQzYEAPScI0HOCAJ1XKQZo8eabb/b391+5ciVwXfMzzzyjp2r9b//tv+meJUuWXLp0ydy41L333isTeMtBAI2nP/crQoAGAABAllnpWQcBujkQoOcEAXpOEKArsK9mY2Nj5lg1SzdAey5cuPDDH/7wqquu+sM//MM777xzy5Ytp0+fNtcVCpOTk6+99tpdd90lj6zZVYYADWCu6M/9ihCgAQAAkGVWetZBgG4OBOg5QYCeE0ke9okz5/v2Dcow2wnI5CNDY3JDs50SzQUmMMfRyekE6A0bNsxLiRzKHLQ2dQrQ4sSJE8ePH6+6tuzevXvz5s3d3d2XL182uwCgIfTnfkUI0AAAAMgyKz3rIEA3BwL0nCBAz4nYh71v3+DyxzboMLsS8G7yQec+sysNmgtMYI6jk1MI0GNjY9qOV9dm6dKlepxU1kHXL0ADQE7pz/2KEKABAACQZVZ61pGxAN3fPm9ee8Xv9zTRsXLevJUdZf95tXO0eRurfvso57Bt20L/o22X8yHi5jQCAXpOEKDnROzDrh1ZVzSbXUGsa2VTbvL482/LMLvSoLnABOY4Ojm1AL1o0SKzXQM5CAEaAOpEf+5XhAANAACALLPSs44sB+iJbW3OyrtA/tzsRuCOcbM1K2x/UgkC9PhEx0a5N7V8lHTkMkB3L7/m9nWpnV52LuQ1QA8VfnpfYdOQ2cqd6Id94sz55Y9teHHj+2Y7hEbq8hNuyA0D91dNc4EJzHF0cmoBeunSpWa7BroImgANAPWgP/crQoAGAABAllnpWUf+V0C7y5/LtG2b6HfSsM0Jys4HsQWF5pIAHVXDQ8TE61TlMUCPvbrgmgd7zEY+5TRA964tfGWtuZxH0Q/7kaGx2ACtkTpwpbMG6Oil0xXRXGACcxydTIAGgFahP/crQoAGAABAllnpWUdGAnRALA44pUYA7cIBzbqClB220jlk/3iHfMjAQ7t3Zm5WQ+ckQPcsvyah5bko03kJ0Kvuc+5qktFrbpFpcj8jJAnQH3TukzmB53omQNsI0ABQP/pzvyIEaAAAAGSZlZ51ZGsFdHjbDeauZXYbsROL/Tfs31hsxwElWib7M7GZEbhi2iit4YHVW29ewZ1PVf5WQI+sW3DNgnUjZiunoktoNm16uPDTN8zlnKo9QMsEGYHn2WiJAC3XbtiwYd8+E+DlgnnPwdWr5bLVmgnQAFA/+nO/IgRoAAAAZJmVnnVkKkCHLmcO0b+trc17j0EnXmtW1lNsmMNMjLvn3CgpyBP9G9tm9wQUahW2Mtqhd7V4rX7EuTwTdP4CdP5PAC1yF6BH3sjNMucINQZoXf4c9k6Db/zuo5YI0HLt1q1b5bL8qTNXr14tfy5atGjDhg06TRGgAaB+9Od+RQjQAAAAyDIrPevIUoB2gq8wMVijbgQvPfu5a6idq0KzsnI/lnsEJyWbGN3fXtqpIwK0o+QeJs/mdZG3AD227vZrFrya9/6ctwDtvvfgqi6zlV/RD7sW5MDTa6joCX37BuVamZPW+xBqLjCBOY5ObmiAlguLFi3S/WLDhg2yx5+bCdAAUD/6c78iBGgAAABkmZWedWQoQGs7njevbWVbeVz2ZeJQ9kkw3EAcGobdD9e2rUMmmco83t9eUpyjA7TJ5UVzufxZ5CxAO+ffiJCbU3PkK0DHnAk6P29LKPc2kL61oOZjs6uMN8dsB9FCLSOVBq25wATmODq5oQF6kcs7HYewWjMBGgDqR3/uV4QADQAAgCyz0rOO7ARoJzFvbHdzsC8KF8UEaLMYuaw2a9QOuaGeRqOkHc+ex0MEBmhfd/YdtngoMTclOl8BeuzVBf7lzz0P5nU1dFgJzaBND5vQHHj+DefUHE0RoB9//u3l7urmsHYcff4NpaeBlmG2a6O5wATmODq5oQFaLi9atEgnb9iwoTw0E6ABoH70535FCNAAAADIMis968hMgO5vd9Jt8cQZ8v9O3nU2NQEXA7QdhYvlV25kInSZ9n6ztro8DWtNLsnWzjJqU5ZLPpb3FoWhS6oNX6EOPElIfeQqQPcsL13jTICut961bnp2T8HRxAFa6frlvn2DZruUV6jNdhkt1BFrqCulucAE5jg6uaEBWu3bt2/Dhg3amq0MTYAGgPrRn/sVIUADAAAgy6z0rCMjAdrpyE6uLQZo5fZnrcbFAK3F2Uxxo3DiFccaqP1R2EvWJaVY9uox7dg9q/RuFgXvbYwcBejy3EyAri+vO7dGgNY3IQwsyHr+jSTLn5vwTQg1MetlL0DLBSs3y6ZeZbYJ0ABQT/pzvyIEaAAAAGSZlZ51ZCRA92/U5utvuO5S4mIa9gK0zgnuwspd71wSgmWPua2fOb6uoQ4KxwToOnDO/ry8x2wYBOgGaaUA/eLG9822j65ujlj+LJo2QG/dutXryFqZ9bzPixYt8sK00Kv8ewjQAFA/+nO/IgRoAAAAZJmVnnVk6E0IHbMN1+3Cs6ubfQG6ZBG0o6wvOyujfYuafWfVmOU/iLuSujwdhwZo/53xIUDH6ll+zTXLy+4pAbpB3AAt9zl4tECAlv2xcblpA7Ts8c71LH/KZd2vxVk2Zb9O8K5SBGgAqB/9uV8RAjQAAACyzErPOrIaoJ0L/ohc2nyda31p2C7FJYXaWRBdloXtVdJywPJTeYQGaCtwFxGg43Qvv+bBHs3QcexV0tkUXUIzp7VXQCc5/4Zo2gAtZOeGDRtWr14tf/qDsp6dQ/YLPS+HucJFgAaA+tGf+xUhQAMAACDLrPSsI6MBuqzlWouO7UXN1vzZvhwYkZ3ZgWW5VMg0d3fQiafL7nQD5epNCJtHzgJ0s6g6QMvO2LLczAG6OgRoAKgf/blfEQI0AAAAssxKzzoyEqAXGz+4+dprb/6Bc8lcUShs2rTJueKma6+9yb1i8eJt27bpVSdPntQ9ixffedsXnBuuWLFCrxLPPffcnd+54dov3HanmbP4wIEDsr9/47yvP7bZ7CqSyXorufZTn/rUtap4W/lAeu0ry78ku/UeKrl7epXc1LvzHnNN/RGg5wQBek7EPuyPP//28sc29O0brKgjy2S5SZJV0hXRXGACcxydTIAGgFahP/crQoAGAABAllnpWUfGA3T/xnnXX3+9G4NvuO0Od0pJgO6U+X6f+tSn5hV99rOfNXuLvv71VbpA+cCBA+ZYRV6AFitWrDB7i5wA7a6q/tLyV8yuIgJ0KyNAz4nYh13fbFCH2ZWAd5O+fYNmVxo0F5jAHEcnE6ABoFXoz/2KEKABAACQZVZ61pGxU3CgSgToOUGAnhNJHnZdzlxRStb5E2fOm+2UaC4wgTmOTs5WgNZ3JiRAA0A96M/9ihCgAQAAkGVWetZBgG4OBOg5QYCeE/l62DUXmMAcRyenEKCFhuOlS5fquwtWR5c/C3PQ2hCgAcCiP/crQoAGAABAllnpWQcBujkQoOcEAXpOEKAT2bBhg7bj2m3dutUctDYEaACw6M/9ihCgAQAAkGVWetZBgG4OBOg5QYCeEwTopPalIZWTbygN0IcAAEX6c78iBGgAAABkmZWedRCgmwMBek4QoOcEATqvNECbDeTBiRMnzCXkAc9XvujzpT/3K0KABgAAQJZZ6VkHAbo5EKDnBAF6ThCg84oAnTsEzXzh+coXAjQAAACakpWedRCgmwMBek4QoOcEATqvCNC5Q9DMF56vfCFAAwAAoClZ6VkHAbo59PbtN5fQQAToOXH3GnMhFzQXmMAcRycToJEVBM184fnKFwI0AAAAmpKVnnUQoJtDT+8++RuJ2UCjEKAbb++Rwh1Pmsu5oLnABOY4OpkAjawgaOYLz1e+EKABy8jIyP79+82bIAMAWpK8EMjLgXlhQG5Z6VkHAbo5HD58fO++Q2YDjUKAbrwHXiqsedtczgXNBSYwx9HJBGhkBUEzX3i+8oUADfiNjIwMDw/LV7HZBgC0JHkhkJcDGnTeWelZBwG6OcjfPHp37d+779CZM6yDbhwCdCPtPeLU57vXFPKVMDUXmMAcRycToJEVBM184fnKFwI04Ld//37qMwBAyMuBvCiYDeSTlZ51EKCbhvwF5NDAsZ7efb19+7e8381owLjjiemv3OdkaEa9x91rnDNvPPNOzuqz0FxgAnMcnUyARlYQNPOF5ytfCNCA3759+8wlAEDL40Uh76z0rIMADQD1o7nABOY4OpkAjawgaOYLz1e+EKABP1oDAMDDi0LeWelZBwEaAOpHc4EJzHF0MgEaWUHQzBeer3whQAN+tAYAgIcXhbyz0rMOAjQA1I/mAhOY4+hkAjSygqCZLzxf+UKABvxoDQAADy8KeWelZx0EaACoH80FJjDH0ckEaGQFQTNfeL7yhQAN+NEaAAAeXhTyzkrPOgjQAFA/mgtMYI6jkwnQyAqCZr7wfOULARrwozUAADy8KOSdlZ51EKABoH40F5jAHEcnE6CRFQTNfOH5yhcCNOBHawAAeHhRyDsrPesgQANA/WguMIE5jk4mQCMrCJr5wvOVLwRowI/WAADw8KKQd1Z61kGABoD60VxgAnMcnUyARlYQNPOF5ytfCNCAH60BAODhRSHvrPSsgwANAPWjucAE5jg6mQCNrCBo5gvPV74QoAE/WgMAwMOLQt5Z6VkHARoA6kdzgQnMcXQyARpZQdDMF56vfCFAA371aw0DnZs3b+4cMFsAgBwgQOedlZ51EKABoH40F5jAHEcnE6CRFQTNfOH5yhcCNOqte8XVV189f/1xs+k3umG+XPdIt9nMghpaw0BnZF9OEKDHd2/dvHnr7nGzaXGvjbjex5maZB4AIBIBOu+s9KyDAA0A9aO5wATmODqZAI2sIGjmC89XvhCgW9Lo+gVXJy2/3Y9EzHQLcnBcNo6vdxrzgvWjZtvPPfSK5PnZmT9/Q9CR0lN9azjsBOZiHzaxOInOw3r7mP7s9msVu4x6fKDT/fCstwaA2hCg885KzzoI0ABQP5oLTGCOo5MJ0MgKgma+8HzlCwG6Bem6Y0dwFy4VEKBnw3FsgHaXPweYv2F09m7YAnO3RvP5j2zormuBrqk1RK5Rjl8B7STsiNtqqk6wkFq5QZxl0ABQCwJ03lnpWQcBGgDqR3OBCcxxdDIBGllB0MwXnq98IUC3nOKS5G63/8YvKC4P0L49MQHanRn8Idy7kXw5c1jILhW2ULsCtbaG8d1bO3ePO9XXt2Q5gluIg9dLF+Oxrz67EpflyBXVAIB4BOi8s9KzDgI0ANSP5gITmOPoZAI0soKgmS88X/lCgG4xbhIuhtqIszPP0lv4YrF7K3OEqADtO/mGTLNas3PD4vprOWB0OfZPDqR5OnnOjlC/1hC3dNnNxfb1mqbtiBy8N0DgMQEASRGg885KzzoI0ABQP5oLTGCOo5MJ0MgKgma+8HzlCwG6lWhL9vdiPa9FSP51C/IjK9z1zvqnM68YpCM4Z+co+Vhup/Y+jDmZRvFujI5ucOeGnAzavW1UoE6xPos5C9Dair1lzkJPKr11qxOby3R2utdGx2UN1dZhAQCJEaDzzkrPOgjQAFA/mgtMYI6jkwnQyAqCZr7wfOULAbpllNdnpfuDCq9zzfz1bh1+pNutxubEHbOT3TocvAJarvIf1JnpJGZznFE5uH9RsxO7A+7D7GprmRCwCFpbduC99/Q9c/OfXv3Xy7svmO1o1bWGYul1bN097t+MpxHZnADaydROL050ng3340RM0oSd4EAAgEAE6Lyz0rMOAjQA1I/mAhOY4+hkAjSygqCZLzxf+UKAbgl6NozQThu8DtrEXzdQO9cdX//Iikec3uxbaxwRoIO4xyqudHZuG3VijZJ7pcucS+5kzCflaUSALnLycXWxt3jLYoBOg1lzbdK22QkASI4AnXdWetZBgG4dR8cKr20r/Po3hR8+WrhlaeGrvyh85b56DTm4fAj5QPLh5IPKhwZak+YCE5jj6GQCNLKCoJkvPF/5QoBuem4jtk5wEbDqWQuvb5fbf+VWXoA2hyq5VQUB2u3FEWeCLlVcKG02XaY4y4czC5/DztpRizkK0KYV64VigHZ3+pQeOW75sy7Ddo7pXoo+WQcAIAgBOu+s9KyDAN0KNvcUfvaU3YgbPOQOyN0AWo3mAhOY4+hkAjSygqCZLzxf+UKAbmoamssXCQcEaId/TbHXi0sDdEBBThCgy+q2j3P8xGuozT0MPVjtUgzQCU7EUazCmoid7mwH6OJlZ4Z75JILEQHaf3XMVABACAJ03lnpWQcBurl9uMdZhmy14DkccmfkLgGtQ3OBCcxxdDIBGllB0MwXnq98IUA3LW21wWuEQwK0y23Kvut8AbpcfIDWD7Wiu3gOjSALHnmkfL2zTQ8kEtfqqqQdoEOzr7u8uRigvZM1+3QeriVAu4efvdadzCJoAKgQATrvrPSsgwDdxB59ze6/KY/FV2T87eKZ7z18+aFXZl7bNtM3cGXk1JXLMwUZckE2ZedD667MX1FyQ7ljQIvQXGACcxydTIBGVhA084XnK18I0C0pKkDbSgK0V4EjFAPx7Bkz3M1YemwrQyf5gLOSfUaR5iZAz/JHZ3eKj9edvQthh3ev847j4kzQAFA5AnTeWelZBwG6KY2fqf85N9z0vHDlzMvvzRw5EfN3HJkg0xY+NntzuXuEKLQCzQUmMMfRyQRoZAVBM194vvKFAN2Sqg7QttAV0BHrrwMP2P2IntzDXSg9f31P8VQbzhGcG1in/ijn3pMMBuho8QG6mhXQJj9bxw6fDwAIQYDOOys96yBAN5/xM/U/7cbiK3+/ZGbV6zP9QxX87aZ/yLnJTf9qDiJ3khaFpqe5wATmODqZAI2sIGjmC89XvhCgW1L9A/Ss0fULrFu7Ryxt0253DvsguQ7QocXXXd4cHKDV1t275XLlAdrdH3i6jeg7BAAoQ4DOOys96yBAN58GrH3+x2Uz7R0z5uNVqL3j8q3LzaHkrgLNTXOBCcxxdDIBGllB0MwXnq98IUC3pAYGaO/NDH3s3Bw0xyePAXp8d+fugcje6w/Q2ow9tZyCw+Rn/8k3fEjQAFARAnTeWelZBwG6yTTgvM/ffXjm7e4q67N6u+vyPz1sDsj5oNHcNBeYwBxHJxOgkRUEzXzh+coXAnRLamCADkrD1q0ilz+LGgN03zM3/+nVX32k74LZjpZCgO7s1MprZeUgKZ+CQz9iZGDWKUHrowEAZQjQeWelZx0E6Gby4R5fKa7HcM/7XPXaZ7/2Dy97h5W7DaRr4sz5vn2DMsx2AjL5yNCY3NBsp0RzgQnMcXQyARpZQdDMF56vfCFAt6SGBmhd4FxyhJJjxvbl2gL0hb7HGxugvQQcUIh93KlVBGiPffgE9VnpnaRBA0A8AnTeWelZBwG6mdT31M9ufV71+kwqf5+RvxWtes00aLnbQIr69g0uf2yDDrMrAe8mH3Sm+WKnucAE5jg6mQCNrCBo5gvPV74QoFtSYwO0cxroq69esN6XkGebcvjKZU9tAbpCNbWGw07a9RJwfIAOuLLKAK1ROfSD2SqcDgCtigCdd1Z61kGAbhqbe0p7cepj8ZWFK2eOjKb215kjJ2YWPnpFDy53HkiLdmRd0Wx2BbGulU25yePPvy3D7EqD5gITmOPoZAI0soKgmS88X/lCgG5J1QVovVUi1qFHN8wPKchJ4nLyjzvHAdoNxrMLi8sDtHZfTzEu+/mjs172bqSH0oXOhs50Z1Rck/W4QfcBAGAQoPPOSs86MhWgJ7a1zUtiY7+5gaO/3eyN1dZR/PUg6QdytW2bMDdzJPlwsx+oker73oPu8ueX30vh5Bt+L/3HJT0+70aItEycOb/8sQ0vbnzfbIfQSF1+wg25YeD+qmkuMIE5jk4mQCMrCJr5wvOVLwTollRdgK5QBb26RFmPThKps7ECGgDQXHhRyDsrPevIXIBe2eHPveX6N1oBuhpJPpBromNlQIBuj/j44x1tcxGgj46V9uLUx+Ir3152+ciJlP8uMzhyed6vzYeQTwGo3ZGhsdgArZE6cKWzBujopdMV0VxgAnMcnUyARlYQNPOF5ytfCNCAH60BAODhRSHvrPSso8UDdMRSaLc75yZAv7bNF4tTH+7y54deSXn5s3rwN+ZM0PIpALVLEqA/6NwncwLP9UyAriMCdO4QNPOF5ytfCNCAH60BAODhRSHvrPSsI/+n4KhG862A/vVvSpNxusMN0K9vr0uAfq3DnIVDPgWgdkkCtEyQEXieDQJ0HRGgc4egmS88X/lCgAb8aA0AAA8vCnlnpWcdrIA2Ubuc81GCA3ScOQjQP3y0NBmnOxZf+dt7L/cN1OUvMrsOmQAtnwJQu9gArcufw95p8I3ffUSArhcCdO4QNPOF5ytfCNCAH60BAODhRSHvrPSsI9cB2rlcqVrjdUZXQN+ytDQZpzvcAJ3eu7KVmDh/RT+KfApA7bQgB55eQ0VP6Ns3KNfKnLTeh1BzgQnMcXQyARpZQdDMF56vfCFAA360BgCAhxeFvLPSs47mPAWHU4EjM7FIspQ59iCZ8dVflCbjdMfiK3//f+QvNeZjpUsOqx9FPgWgFvrWgpqPza4y3hyzHUQLtYxUGrTmAhOY4+hkAjSygqCZLzxf+UKABvxoDQAADy8KeWelZx3NcgqO/nZ/Ky4J0KVXeeKWMlszqlltHXP8NNU1QP/t4pm//z+XCNDIuIkz5x9//u3l7urmsHYcff4NpaeBlmG2a6O5wATmODqZAI2sIGjmC89XvhCgAT9aAwDAw4tC3lnpWUeGAnR/u78s+0OzFablKqvsuhPa+70TX/gDtJORg5q17o8TlJDLTww99+p4Cg73HQj/9t5LZ87X5S8yE+dm9ANxCg6kQtcv9+0bNNulvEJttstooY5YQ10pzQUmMMfRyQRoZAVBM194vvKFAA340RoAAB5eFPLOSs86MhSgS8+bERqgnXDc1t7v67/lJ9yw9pRPECXrmwOFzIi/4Ryo65sQaoDuG6jLEuhdB3kTQqRJ34QwsCDr+TeSLH/mTQjrggCdOwTNfOH5yhcCNOBHawAAeHhRyDsrPevI3jmgTdsNCdDlq4+dPfYC57Li7D+yUe0KaPdQMRq/PvrXvylJxikP900IX9922XywVL324bR+FPkUgNppgH5x4/tm20dXN0csfxYE6DoiQOcOQTNfeL7yhQAN+NEaAAAeXhTyzkrPOjIVoP01OTBA+0q0EVCWRcCS57JOXfUK6Bhzs0D6tW2lyTjd4QboB39zyXywVMlh9aPIpwDULiJAy/7YuEyAriMCdO4QNPOF5ytfCNCAH60BAODhRSHvrPSsI2MBWtux02+DAvREx8q2Du9EzyLw3Boi9Jwbvp11CtDOhy69kw1xdKw0Gac73AB96wPTR06k/HeZwZFL835tPop8CkDtwgJ0kvNvCAJ0HRGgc4egmS88X/lCgAb8aA0AAA8vCnlnpWcdmQvQRaHngPZx9vsXNXtCwrT/mNqjY1UaoJ0PEXRXG+BnT/mScbqj+D6EL/1HyougX/zdRf0QcueBVEQEaNkZW5YJ0HVEgM4dgma+8HzlCwEa8KM1AAA8vCjknZWedWQkQN/5nRuuLWUC8Lx5119/vdlV9KUvfUn2t22bOHny5OJSK1ascA7nxOW2+1Y9Z/YWHThwwP1oBbmw+Ac3X3vtzT8w1yx+7rnn9CohB3H3zc6QD6RXbdu2zb1K3XnbF66Vu6f3U7j3bvaYQm/VGJt7SqtxisME6Ms//PfpIydSeyvCwZFLCx+9oh9C7jyQlseff3v5Yxv69g1W1JFlstwkySrpimguMIE5jk4mQCMrCJr5wvOVLwRowI/WAADw8KKQd1Z61pGRAG16rY+5olDYtGmT2VW0bZs5W3BpgHZ68ac+9SkTgzf2P/dcZIAuFRSgZ4UEaIfcPb1KmF0+5opG+eGjpeE4xeGeheN/3zP9WPt0Kn+hkYPIofTgcreBFOmbDeowuxLwbtK3b9DsSoPmAhOY4+hkAnQ1RkZGDh8+PNhi5FOWT9w8BHVA0MwXnq98IUADfrQGAICHF4W8s9KzjsyeggNV+HBPaTVOcRTPwvG/f35h4wfT5uPVYOMH5uQbMuRuA+nS5cwVpWSdP3HmvNlOieYCE5jj6GQCdDUOHz7cgrVFPmX5xM1GHRA084XnK18I0IAfrQEA4OFFIe+s9KyDAN1kHn3NV43THcVF0N/59YW3Omtq0G91Xvynh81h5Q4DTUxzgQnMcXQyAboade2wWUaAhofnK18I0IAfrQEA4OFFIe+s9KyDAN186vVuhMUzQf/ve6a/9aupjR9cNB+vQnLDW5ebY/Leg2h6mgtMYI6jkwnQ1SBA1wNBM1/q+nxdunRpcnLyfByZZm6AOARowI/WAADw8KKQd1Z61kGAbj7jZ+p2MmjvRBz3XPy7+yYf23ih/9hl81ETOHDMOYX0Tf9qjiZ3sm4tCsgKzQUmMMfRyQToahCg66F+QfP48eMnW5J84uYhqIO6BuiRkZGjR48ORZIJ/KNFcgRowI/WAADw8KKQd1Z61kGAbkrjZ+q9Dtpp0F++e/JfHjn/4rsXBkdiMvTgyKWXfndx4aNXvOPI3aM+oxVoLjCBOY5OJkBXgwBdD/WLiSeL7+3baur6idc1/h44cCB2dbNM6O/vNxshLly4MD4+Ln/q5pUrV0ZHR4eGhmZmZnRPReQjym3lCGbbNTk5eejQIfnTbGcVARrwozUAADy8KOSdlZ51EKCbWL3OBz3boKe//POpL9117rvLzy1/8fzGD6Z6D04Pj8tffwoy5MKug5faP7j44G8uzV9RcgTO+4zWobnABOY4OpkAXQ0CdD0QoFOX6wBtLkWKmDY5Ofnmm2/ed999P/nJTxYvXvzWW29duXJlenr6tddeW716dXW9WH5iym03btxotl0DAwNLliyJTeFzjgAN+NEaAAAeXhTyzkrPOgjQze3DPXU7HUdVQ+6M3CWgdWguMIE5jk4mQFcjrMNevHhx586d1bWty5cvT01NmQ3X2NjYwMCA2cgGAnS+tGyAvnTp0saNG//u7/7uZz/72VNPPXX33Xf/zd/8zaZNmy5cuPD444/fc889Z89W8xukfEv+/Oc/f+yxx8y2q6+v75vf/GZPT4/ZzioCNOBHawAAeHhRyDsrPesgQLeCzT11OyNH4iF3QO4G0Go0F5jAHEcnE6CrEdZhZ2ZmxsfHL1+u4HT1nrNnz+7du9dsuI4cOdLb22s2sqE5AvTFixflaZIPd/78eb1srqjBpUuXTp06ZTZKXblyRT6K2Wislg3Q8qPtpptuWrx48cjIyIULF0ZHR3/2s599+ctflu+yxx9/XC7LT8Cnnnpq48aN09PTehOZKZuy88MPP9Q9YmBg4MUXX3z66ae7u7tl0x+g5VC/+c1v+lzf/OY3X3/99VdeeeX5558/evSoe1Pny0xuJbeVI8hjJT8cdu/e/d5778lXnVwrl197raH/gRYBGvCjNQAAPLwo5J2VnnUQoFvH0bHCa9sKv/6Nswz5lqWFr/7CbsQpDjm4fAj5QPLh5IPKhwZak+YC7cuxdDIBuhphHfby5ct9fX0XLlw4dOjQwYMH9+7du3v37rNnz87MzMim7JTNAwcOXLx48cyZM3v2mP9CQ452/vz5Xbt2ffjhh3Kt16+PHDmyffv2/fv379y588SJE1euXJFpH3/8sXyIgYEBmSbPn1wrvzAdO3ZscnJSLstV8lG8I6SuOQL06dOnjx49Ojo6Kk+QPIbyiMljK0+TPIZyYWpqSp6dS5ecviYzdVm67pTnUY8gM3VT5uscIU+K7Dl37pweR55luUqOIx9CnlYvdKZL7rZ8RLkg91YuW6W7ZQO0fFNcd911nZ2dZtttx/pfJzz++ON/+Zd/+U//9E8/+tGPPv3pTy9dulSuHRwc/PGPf3zLLbcsXLjwM5/5zPPPPy87Zb7s+da3vnXrrbfKzI0bN3oBWh7zu+++W66Sp1i+6T73uc997Wtfu/322+XPG264YWhoSJ6IdevWfelLX5o/f/5NN90kF+RLrqen5xvf+Mabb7556tSpefPmrVq1yr1rDUKABvxoDQAADy8KeWelZx0EaACoH80FJjDH0ckE6GqEddjp6en/+I//OHfu3EcffdTb2ysXZKb8QnPp0qUPPvhgaGjo7NmzO3fulD2jo6NbtmzRW8lM2X/ixAkNZF7HOXLkyIcffnj69OlTp051dXVdvnx59+7dR48elcPKTeTIchP5cCdPnrx48WJfX9/g4OD58+dljtxQj5C65gjQ4+PjujB2165dcrm/v1+emgMHDhw6dEguHDt2bP/+/cPDwx9//LFclj/lSdGHV8jNz5w5MzAwILeSw8pMmSOPuVyWPfIpyB4hx5cbyny5amxsTD7QVOn5VdIy4/7bhnzhyTez3GcrArZsgH7rrbduuOEG6x7Kg6On4LjpppvkO0guP/nkk3/2Z38m3z6vvPLKd77zHXmyZOfatWv/4i/+Qr4Sli9f/sMf/lCeRHnu5PKtt96qAfqhhx5asmTJ3//938tTL4eVr41Pf/rTjz76qHxjypfT//pf/+u+++6TW33729+WnfItKU/NV77ylbvuuksm/Nu//dv3v//9e+655xvf+EbYkvk60UfD/bFfGQI0mhKtAQDg4UUh76z0rIMADQD1o7nABOY4OpkAXY0kAVor8JkzZ3bt2nXp0iUtyLLnxIkTO3bskD+tAC0z+/r6dI+SI+zcuVMuyA17enrkIB0dHXv37j1w4IBsyoeQg2zfvl0ny9H27NkjV8lNrOOkqGkC9O7du+V5GRoakoe9v79fLsujJ796DgwMyOcoj6H8KY+/7D906NDx48e7u7tlglyWm1+4cOHgwYPyIJ8+fVqeyo8//liOdvToUbm53EqeTSFPhNxKnrKZmRmZv3//fv3Q9TA1NSXHlzugX2B+LRug33777b/5m78ZGRkx20UaoO+66y752Seb8rRee+21x44de/DBB7/2ta/927/926OPPvrLX/7yj//4jzdv3vyjH/3oqaee0huqsbGxn/3sZ5/61Keuv/56+R7U5CpfCX//938v35s656GHHpJDyZfEP/zDP3g7H3vssRtuuEEuyDP1rW9967//9//+3nvvNbjY6vOlP/crQoBGU6I1AAA8vCjknZWedRCgAaB+NBeYwBxHJxOgq5EkQOvqSM3Kly5d2r59u/wpe2S/FaC7u7vDAnSvew5oL0DLQYaHh+VpO3XqlPwpB/FOMvD+++/LkfUqOZTuTF1zBOjTp0+Pjo7q03H+/Hn5pI4ePXr8+PGxsTF5DAcHB+WRH3LJg7lz506Z39/fP+6Sm0xNTckBdc7HH38sO+VJkTmHDh2Sw8qh5BORCQMDA3JAObh8Vcgvtfrh6uHKlSvyjMsnYrZ9WjZAy/Ny3XXXyTea2XbPVSJPrjx3/jchlCf32muvlafyV7/61Ze+9KX77rvvX11Lly7t6OhYuHDhmjVrtKvKkyjf1/KE/vSnP/3sZz/7mc98ZtWqVbqqXb5tb7rpJu+fgh555JEvfvGLu3btuvHGG7dt26Y7V69e/dd//ddyQR60O+6446/+6q+6uroaXGz1+XJ+6leIAI2mRGsAAHh4Ucg7Kz3rIEADQP1oLjCBOY5OJkBXI6zDXrp0KSxAf/DBBzt37hwaGvrwww+PHDkic9577z05zqFDh7Zu3XrWPZNvR0fHyMiI13HKA/TBgwd37dolczo7O+WGJ3wBWq8aHR3t7u7WM0XUQ3ME6Onp6QsXLujjLI+qPPLypzx0p06dunjxovw5NjZ23iV3Sb5JZObp06dlp55heWZmRjblKtmUQw0PD8tN5DmS48imfCzdlOdUnqmpqSm5uezRWNlgLRug5cH/h3/4h3vuuUeeHXnk5cldtmzZjTfeKN+P5QFaPpG1a9f+8z//s55upb+///3335ene8mSJXfddZd8z8rXwBtvvLFmzRrZeffdd//7v//7Sy+99PnPf/63v/2tPLnyDf4//+f/lGvl4PKBbr311kWLFsm352233SaHlZ1yq/nz5//gBz+QLxi54Xe/+91bbrlF5shXhd7bxtDny/2xXxkCNJoSrQEA4OFFIe+s9KyDAA0A9aO5wATmODqZAF2NsA47MzMzNDSkNfOc+9ZwFy9eHB8flz0fffTR8PDw4ODgyMiITJOrTp48KZuyc2xsbHp6WnbKrY4eParXCjmCBsQrV67IHPlTjiPzBwYGtFNPTU15EdC6SnemrjkCdOto2QB9+fLl119//cYbb7zjjjuefPLJe+6554YbbvjNb35z4cKFJ554wgvQvb2911577Wn3jQQXLFhw1113PfbYY9/5znduv/328+fPb9269R//8R8XL168fPnyL37xi4888oh8G+qbEMpxfv3rX19//fU73TPefPazn/2nf/onmXD33Xf/zd/8zfbt2+X4q1at+va3v/3ggw/KEb785S9/+OGHMlOmvfjii3Krr33ta88++6ze28YgQAN+tAYAgIcXhbyz0rMOAjQA1I/mAhOY4+hkAnQ1Ku2wly9f3rlzp/xptnOLAJ0vLRugxeTk5DvvvHP//fcvWrRo8eLFmzZtcoLp5cvbtm178803L1y4IHOOHz++fPnyqamp6enpHTt2/PrXv77nnnva2toGBgb0CO++++6vfvUrubkucD5//rzc9sMPP5Rr5bF96KGH5EMMDw8/++yzGzdufOCBB5YsWaLLomWCPD4vvPDCfffd98tf/lKOIx+6t7f36aeflvkyYf369atXr5ZpDUOABvxoDQAADy8KeWelZx0EaACoH80FJjDH0ckE6GpU2mGvXLly7ty5Jgg0BOh8yXWAvhR31myZ0N/fbzZCXLx4UX7MaW6OdfnyZT3Lip98lOnpabMRyQmyZf/IpP9xg152I635IeC/3BgEaMCP1gAA8PCikHdWetZBgAaA+tFcYAJzHJ1MgK5GXTtsluU0QB8/fvxkS5JP3DwEdVDXAD0yMnLs2LGhSPp+j+YGiEOABvxoDQAADy8KeWelZx0EaACoH80FJjDH0ckE6GoQoOuBmJgvdX2+Ll26NDk56b4TZJTYVdLwEKABP1oDAMDDi0LeWelZBwEaAOpHc4EJzHF0MgG6GgToeiBA5wvPV74QoAE/WgMAwMOLQt5Z6VkHARoA6kdzgQnMcXQyAboahw8fbsHaIp8yARoenq98IUADfrQGAICHF4W8s9KzDgI0ANSP5gITmOPoZAJ0NUZGRg4fPjzYYuRTHh4eNg9BHRA084XnK18I0IAfrQEA4OFFIe+s9KyDAA0A9aO5wATmODqZAI2sIGjmC89XvhCgAT9aAwDAw4tC3lnpWQcBGgDqR3OBCcxxdDIBGllB0MwXnq98IUADfrQGAICHF4W8s9KzDgI0ANSP5gITmOPoZAI0soKgmS88X/lCgAb8aA0AAA8vCnlnpWcdBGgAqB/NBSYwx9HJBGhkBUEzX3i+8oUADfjRGgAAHl4U8s5KzzoI0ABQP5oLTGCOo5MJ0MgKgma+8HzlCwEa8KM1AAA8vCjknZWedRCgAaB+NBeYwBxHJxOgkRUEzXzh+coXAjTgR2sAAHh4Ucg7Kz3rIEA3k0MDx7Z37tryfjeD0XxDvrblK9x8reeH5gITmOPoZAI0soKgmS88X/lCgAb8aA0AAA8vCnlnpWcdBOimsXPX/gP9g5OTF8w20Fzka1u+wuXr3GznhOYCE5jj6GQCNLKCoJkvPF/5QoAG/GgNAAAPLwp5Z6VnHQTo5nBo4NiB/kGzATQv+TrP1zpozQUmMMfRyQRoZAVBM194vvKFAA340RoAAB5eFPLOSs86CNDNYXvnLtY+oxXI17l8tZuNPNBcYAJzHJ1MgEZWEDTzhecrXwjQgB+tAQDg4UUh76z0rIMA3Ry2vN9tLgHNLl9f7ZoLTGCOo5MJ0MgKgma+8HzlCwEa8KM1AAA8vCjknZWedRCgmwMBGq2DAJ1XBOjcIWjmC89XvhCgAT9aAwDAw4tC3lnpWQcBujkQoNE6CNB5RYDOHYJmvvB85QsBGvCjNQAAPLwo5J2VnnUQoJsDARqto8av9qmpi+ZSQ2guMIE5jk4mQCMrCJr5wvOVLwRowI/WAADw8KKQd1Z61kGAbg4EaLSOKr7aT50+d/Dw8Jbte956r0eHXJbR9/GRY8MnzaT60FxgAnMcnUyARlYQNPOF5ytfCNCAH60BAODhRSHvrPSsgwDdHAjQaB0VfbVb3VnT846dB6w9Ms3cIG2aC0xgjqOTCdDICoJmvvB85QsBGvCjNQAAPLwo5J2VnnUQoJsDARqtI+FX+9TURS80a2I+dfqcuc69VjaPDZ/s+/iIN6ceZ+fQXGACcxydTIBGVhA084XnK18I0IAfrQEA4OFFIe+s9KyDAN0cCNBoHUm+2qemLnoLn2NXN8uE+jVozQUmMMfRyQRoZAVBM194vvKFAA340RoAAB5eFPLOSs86CNDNgQCN1hH71e7V5x07DyQMyjJNl0un3qA1F5jAHEcnE6CRFQTNfOH5yhcCNOBHawAAeHhRyDsrPevIVICe2NY2b2XHhNlqgP72efPatvk/4ETHynnt/WYjjjN53saks+uKAI3WEfvVrilZ/jTbQbQ4W63Za9BmOw2aC0xgjqOTCdDICoJmvvB85QsBGvCjNQAAPLwo5J2VnnVkOEC7eTeYPxE7ETmZto5xcxvD7c/WTuc+lM8M5tw+ca2uLwI0Wkf0V/ux4ZNvuefTiF7IfOr0OW3NMt/scqu03ta/s0aaC0xgjqOTCdDICoJmvvB85QsBGvCjNQAAPLwo5J2VnnVkPECXLk92pVd9+zc665edP2N5y5yT5e6Au11nBGi0juivdj35RpKCrKd+lvn+k0Rrv05xEbTmAhOY4+hkAjSygqCZLzxf+UKABvxoDQAADy8KeWelZx35XwFdrfGOtqQrnX3i83dIN68zAjRaR8RXu+bj6JNv+AU2aD0Rx6nT58x2bTQXmMAcRycToJEVBM184fnKFwI04EdrAAB4eFHIOys968hIgC5bhtzWMV7fFdDOR6zifNOsgAbmWsRXe9/HR97yLX8+dfrcjp0HoofM1wbtFWet0nIo3ayR5gITmOPoZAI0soKgmS88X/lCgAb8aA0AAA8vCnlnpWcdLXoKDmf582yAjjkLh/9tBlkBDcy1iK926/wbuiA64fBna9lM6ywcmgtMYI6jkwnQyAqCZr7wfOULARrwozUAADy8KOSdlZ515PoUHIlO32xxa7K5ISuggRyK+GrXlOx/+0G5nGSY2S7ZJEDXBQE6dwia+cLzlS8EaMCP1gAA8PCikHdWetaRyQDd3+4k5hpWQLsLnEMnuUfoKIndibECGphrsQHabNRAT81hhenqaC4wgTmOTiZAIysImvnC85UvBGjAj9YAAPDwopB3VnrWkbkA7YjrywG0WReVBOjSq2R7o/Peg/7V1hWegiMeARqon7Cv9hRXLuupPAjQKSNA5w5BM194vvKFAA340RoAAB5eFPLOSs86shOgS06LkaTz+rqwW5Pb+8fNZkmA1kP5I7Kr9HQfiTlHi+7jrIAG6quiFdBTZWfbCBvmBq7y41RNc4EJzHF0MgEaWUHQzBeer3whQAN+tAYAgIcXhbyz0rOOjATo/o1O1g2PwpFVt/yEG9aeoDNyVBmgLc6Ro3t0gxCg0Toivtp15fKp0+d0s7o3IdRbcQ7o9BGgc4egmS88X/lCgAb8aA0AAA8vCnlnpWcdGX8TwmJ0jgjQzlX2Auey4uwcubQU+z+We22o2Y/rLH8OPH2Hs3OWfPTa03aFCNBoHRFf7X0fH3nrvZ6Dh4d189Tpc15f3rHzQPSwsrUcSjdrpLnABOY4OpkAjawgaOYLz1e+EKABP1oDAMDDi0LeWelZR4YDtP9sF25lLmGuKS/LjoAlz3antgN0cDK2I7gewZrvbOqRnY/b1jEe1MTrjACN1hHx1a7FecfOA2bbtwjaq9Kx5OYy31sQXSPNBSYwx9HJBGhkBUEzX3i+8oUADfjRGgAAHl4U8s5KzzqyG6DdczfHrIAOCM2uwP3uAb2dFQfo4vJnZ2/Y/Nlm7s4uv8N1Q4BG64j4ap+auqhn4fDn5ooadLrn3xCaC0xgjqOTCdDICoJmvvB85QsBGvCjNQAAPLwo5J2VnnVkNUBr+e0oBt3gAO3MD1xoHBKmndNlFOdXGKCdCyXzAw5fcnznPgQfsy4I0Ggd0V/tXkH2v6+gXNYG7Z1nI5A3La3lz0JzgQnMcXQyARpZQdDMF56vfCFAA360BgCAhxeFvLPSs46MBOjFrju/c8O1X7jtzsWLf3DTtab2jnfcfv31137h5pu/cO0N35FrHNu2bdNbnTx5Uvd4VqxY4Vzhrj++b9VzZm/RgQPmP8yXC97HEnL5s5/9rHtmD8enPvWpa33k48oH0hvKh9Zb3PYFc+31119vbjZv3rXX3vwD92qP3qoBCNBoHdFf7VNTF/UcGv4TcQjd76/S5QJvWCPNBSYwx9HJBGhkBUEzX3i+8oUADfjRGgAAHl4U8s5KzzoyEqB/cJPpuU5l/sHN1157s7e+eNOmTU4s9vnSl77k5N6N/aUB2rnZpz71KTcFO9c+91wlAfrW+7zVyitWrHB3Cyc0BwXoWXL39CphdvmYK+qPAI3WEfvVPlU8EYe1DjqCl61TPPmG0lxgAnMcnUyARlYQNPOF5ytfCNCAH60BAODhRSHvrPSsI1On4EDVCNBoHUm+2v0NOvbUzzJBZurk6HN0VEFzgQnMcXQyARpZQdDMF56vfCFAA360BgCAhxeFvLPSsw4CdHMgQKN1JPxqn5q62PfxES3LO3YeODZ80h+X5VrZPHh4WDu1zjHXpUpzgQnMcXQyARpZQdDMF56vfCFAA360BgCAhxeFvLPSsw4CdHMgQKN1JP9qn5q6eGz4pJeYdVibuid2lXTVNBeYwBxHJxOgkRUEzXzh+coXAjTgR2sAAHh4Ucg7Kz3rIEA3BwI0WkelX+2aofs+PlJeog8eHk79nBsWzQUmMMfRyQRoZAVBM194vvKFAA340RoAAB5eFPLOSs86CNDNgQCN1lHjV/tUsrclTIvmAhOY4+hkAjSygqCZLzxf+UKABvz2798vX8JmAwDQwuTlQF4UzAbyyUrPOgjQzYEAjdaRr692zQUmMMfRyQRoZAVBM194vvKFAA34jYyMDA8P06ABoMXJC4G8HMiLgtlGPlnpWQcBujkQoNE6CNB5RYDOHYJmvvB85QsBGrCMjIzs379/HwCghckLAfW5CVjpWQcBujkQoNE6CNB5RYDOHYJmvvB85QsBGgAAAE3JSs86CNDNYXvnrsnJC2YDaF7ydS5f7WYjDzQXmMAcRycToJEVBM184fnKFwI0AAAAmpKVnnUQoJvDoYFjB/oHzQbQvOTrXL7azUYeaC4wgTmOTiZAIysImvnC85UvBGgAAAA0JSs96yBAN42du/Yf6B9kHTSalXxty1e4fJ2b7ZzQXGACcxydTIBGVhA084XnK18I0AAAAGhKVnrWQYBuJocGjm3v3LXl/W4Go/mGfG3na+2z0lxgAnMcnUyARlYQNPOF5ytfCNAAAABoSlZ61kGABoD60VxgAnMcnUyARlYQNPOF5ytfCNAAAABoSlZ61kGABoD60VxgAnMcnUyARlYQNPOF5ytfCNAAAABoSlZ61kGABoD60VxgAnMcnUyARlYQNPOF5ytfCNAAAABoSlZ61kGABoD60VxgAnMcnUyARlYQNPOF5ytfCNAAAABoSlZ61kGABoD60VxgAnMcnUyARlYQNPOF5ytfCNAAAABoSlZ61kGABoD60VxgAnMcnUyARlYQNPOF5ytfCNAAAABoSlZ61kGABoD60VxgAnMcnUyARlYQNPOF5ytfCNAAAABoSlZ61kGABoD60VxgAnMcnUyAjrd3795PfvKTW7ZsMdtFk5OTt9122zOu6667bmxszFwRSSbfe++9ZqOUHEGOU/6BWsT/z96/Pclx3Qe+r/6I83De9sOO4Ktih/Cwj8IxLxOWTjhC1NjjcPCBnDPSRIDeHpgzwTAjjjSKmBjyTIzt8DaOZBMYWKZHE4dbkk1KhnCRSEoUCRJAswECDYBoAI3uRje60Td2o29AX3Ajzi/ztypr1cpLVVZlVufK+n5iBVyVlZfqXNWw8WU6a0+CZiHnXD8J9k7kM/O1r31N/tSnssIrr7wSPbVFnyLzvFX2q3ur4gFafsu+9KUvZc9s8Kubcm5luZx5Of/meStnfr1AgAYAAEAtOelZBwEaAMqjucAE5nZ0ZQJ0e2kpKoqDMzMz8mfUoHX5l1pFnUsedBig5YHZOCbam5DHZmk7acetiD0JmnL2dHL15Jsz1So6b2nryE5utP5XCtnkueeem52d1af6kYg+ISIqmNGnSJc77Ff1EOaQMfbO+6OyAVpPmpyrtoFYf3eiWbPPtvwpj2WJvuSIpk8fZ8xLJ2+jPwjQAAAAqCUnPesgQANAeTQXmMDcjq5MgM4Sr40vhhnRPEly+vRpJyk6T18N6WNHPEDHq6Kztzrpf9C0M6JysqPOiH227TmKz5duG9+t0ImLpj46kC5Pm1Dn1fj7EbqOkAdmUV9UM0DrKTK/jUmcEyUnU9aXreSxPXHRBIVruew17cdVRoAGAABALTnpWQcBGgDKo7nABOZ2dGUCdBs3btx47rnntE85nDgYcZY7T3MFaNPMYuIHrYE+B02dFz3b8qdWSCc7ytOoTip7jpz5UmmfChF9lnRDM5dJon3G9yYvORfVysfJeZP9UcEALSfHPns2Pefx65Htj4GcST3/ifTXNr7OkSNHCNAEaAAAAOwVJz3rIEADQHk0F5jA3I6uTIBu483wjhlOl1RpqdFZHj1NzFtaxITz/8UvK5/mCugyyRkW8kBP/iuvvCKn2p7oxFOtHVN7ZfRY1jHTFpM4U7Iwmtm0CdWdm72Eojemh5Pj6rbxqNoflQrQ2adCzpWcMZ3uNPox0JkVcpKjEx4nq0XHkj+/9rWvjYyMyPrhRLXI2EmfEaABAABQS0561kGABoDyaC4wgbkdXZkAnUWrlhbGKCS9mn6ZpGZE3cosaogKY5g9TQjTdBUlMztuCnkQZcqI7jzaW530M2g6eTeaXDmxUVhMPP/xLhzNl3BmMFH0obKfpk1o2quyuR49/g77pjoBWk979Gslpyt6rC910ujtrYQ8jT4VcbKmE6Dt/cur9q4qggANAACAWnLSsw4CNACUR3OBCczt6MoE6Cw3GvdMsGtUVJfsOJj2OP402lw46crJl1FkjNO9yYZfTv/2s0SdlLi9sidBU86k3XBlauQs6emVP/WkiWgde46c+RLxJUIX6n6cl4Tz8XDEX038VMR32wfVCdAO+YTLSTOnJv3k6FyL6PfRJudcdiLn3zy36KQQoAnQAAAAqAInPesgQANAeTQXmMDcjq5MgM4ShSS7RkUL7TiY9jj+VLaNHjvpKsqXsoKQB/JUFuqrytlbGjmKrCYrm+c+6H/Q1JhrB0o5b7LEOe32ybQTs/1YxZdEopdk7sLsmSV6A/Z0y7b6qrN/XUeW9/m/LlQ2QKedqEQyuULOWyf/LUd3aK8sU+P8Fgvdp3lSGQRoAAAA1JKTnnUQoAGgPJoLTGBuR1cmQGfRrmd7M+VWzkpDodOI7afOSzdav+FQG2W0n1xkE3sreZNyIDmcPHZeqqw+B03NiPaZ0dl55ZVXnDmS1aKUaSdmfXzkyJGMdhmlZHtDJY+jV+Vw0XzZog+MTKi9rbA33xNVC9A6U3LO7TOpCzNOVJCKrVhsT5Ns65RlJevLciFTL4eLvoRQpimc8xbOrO0hAjQAAABqyUnPOgjQAFAezQUmMLejKxOgO2L3wahYRXEw8bHpTw36klMh7YYY5TNZmLgHh6wcpTHdrR5CyTvUN6y7sleurD4HTTld5lSG5CzNzs7qabTnJTqTupWearNNyC6MOon2REScqRf2UWQT+ygROXr8KMrefE9UJ0DrVMbPhjPFEftUB7/MeQK0rPDcc88dPXo0is6vvPKKs5qzz4ogQAMAAKCWnPSsgwANAOXRXGACczu6MgG6I3YfjOqStl15KeOx89RJWlFDlCWvvPKKBtB4ahTZtVHeT/T2lLMkvkIF7XnQlFn4cnixs06ZnDR5/KXW+GsHSvuxklmW+ZWpjJ/q+Mr2pMiG0WNZR9b85JNP5M289957stz+XGlCTRR95PqjOgE6Ts92/ITIEjlRziwI8yQ8+dF/rbF/W6Ppkz3I+vZL9mPl7LMiCNAAAACoJSc96yBAA0B5NBeYwNyOrkyA7sibBQXo06dPR/vRp1+3srLTKO1XnTVt8lL8Amd5h/aBdM/RW6qmvQqaclo0SsqD6CTL+ZSzKst1riP2HNmPhU70kSNH5M9oYcRZWR7YyVgeRPNlP9Z9RqvZZA/Ru90TlQ3QMmWJZ0ZOo1OfRfDL3JhinaPo5NtlOXr8d3/3d7Ja4kvBLkL2PquDAA0AAIBactKzDgI0AJRHc4EJzO3oygTojmi6Ei+G9wjWx3EaCp1oaD991foGQuE0RO1fUSCTNaMWpr3SpvvRTex9KjlQtK2SPcQ7daX0OWjqvMiZ1FbonEk5URqgnV5pz5E+lnXkT3ksm+gdveVV5+SLaEPnuMqea1kevaQrx+dXyK70uOZ531UwQMt5i6ZMHusDZb9kC851eLblJEdTqS/ZZdk52/ZL+vjo0aP6gXFU55eOAA0AAIBactKzDgI0AJRHc4EJzO3oygToLHZRivdBOw4mPhZm4wanGMoK0W5F1Cjlse4kWt/pXxF5J/YeIvHlukNdqAeKVrgRxtboqRxL3qr+jP3Uz6Bpn2olP699tuUMyAnRb5mTadJ1hG4YzGWDPV+6pv04oidZVtad61YRe7d2sox2pQ90hQzObktVqQCtZzU653K6tAjLmdRzK3RybXpWZep1nfhnXpboiRX2hMpuM66AriYCNAAAAGrJSc86CNB1MjU9d/7C1dNnRxiM+g35bMsn3HzW/aG5wATmdnRlAnRH3ky6QDWKg/bjG40rZ+PFSvujeR6KdqW0guk68qc8/uu//ms9rj51Cpo8fe655xLLl+w2esORqJTpgaId6nuL1teWZ7+x/tjDoCkzJT+y/OA6j/bc6cnRc2U/lpf0NOp8yfrRcqFr6kvRU9ltfFKy6fuxP0iRxI9EP1UqQCeSz7Ccc3s2bdFcy9TIBJmlnZH1CdAEaAAAAFSBk551VCxAT57cv//kpHnSsY3hI/v3HxneME8jwd72n0je3ca5w0mblCd4M4fP2QcM3nb+HzbVlavjE5Mz29u75jlQL/LZlk+4fM7Nc09oLjCBuR1dmQDdkTfbBWhtkYmdS9ilUh9rF3MCYrTaDStfakSTP52VM+gb0zfpkb0Kmnq65Gzrg8TzLCcznimj+ZJ5j78qy2XiotmUPWTsP439GXPInnPtqnBVDtB63vQXxyxqZc+FnF6dKfNaB2RO7QAt8yt7SJNrz+UhQAMAAKCWnPSso8oBOmjEaex2HKbd4VXzrClteag1QIcJO5mdiMOi3ZHYcZPeTPgDpr7DXKam5yYmZ8wToL7kc+7XddCaC0xgbkdXJkB35M30AK1fOvelWE3OJWpYspPZ2VnZod0cNXSGLaspXjy1o6n4q9VX/StqHTov8mFIO9syI/LSpUuX5EOiHx6hYTqbbqWfq7SdE6Djou4s2mbfo0ePRic28VcsLvqtlA29uOrZRoAGAABALTnpWYf/V0Ant+PD5zYmT5jHtuga5HiAbr08OdTF20kRvJkTk4lvyZVyyXa28xeucu0zBoF8zuXTbp74QHOBCczt6MoEaFSFdwF6wFVnvqJ87ON/d+kbAjQAAABqyUnPOioSoBPKbGf3x9CrpBMicbt23NUV0N1aHT5c0JXOaU6fHTGPgLrz69OuucAE5nZ0ZQI0qoIA7Rfmyy8EaAAAANSSk551VOsK6CDU5im+4S0xwiuX3fspT55oXNEcK9Gx2H14eLXcK6CDI3bW07tGgMbgIED7igDtHYKmX5gvvxCgAQAAUEtOetZRqQCdejlzislzhw9HN6xoXmUcZunGbjZWN4IFsf7bv1twhFU9Olabu3B0df8NQYDG4CBA+4oA7R2Cpl+YL78QoAEAAFBLTnrWUaUAbe6DYYqvZuQMia1Wa6+81K4d570FR5twnCh8h2ZDroAGCtLjp31n54F51BeaC0xgbkdXJkCjKgiafmG+/EKABgAAQC056VlHhQK0tuP9+w8fORyPy629OJmm3mZ1DhN2WoRu7FBWklV6uAI6+7Yh4R6GO3jzPSJAY3B08WlfW79/6/bi6fPXf/PxZR3yWMbozdm5xbtmpXJoLjCBuR1dmQCNqiBo+oX58gsBGgAAALXkpGcd1QnQQRE+cfJkcE/n4fDPlmDbJkCHrTmhA7fe/sIW7DBxk/a0WTe0BOjWl+T5ieCuIPab5xYcQI9yfdqd7qzp+dMrE84SWc1sUDTNBSYwt6MrE6BRFQRNvzBffiFAAwAAoJac9KyjMgF68mRwB+fwguHJ8Jm5PNmU6EbDdS9VtjpysHKSk5Pm2mq9Q3Sg5bYYadvZrC4cvhPZp3naEqB1V11dvt0jAjQGR4ef9p2dB1Fo1sS8tn7fvBa+Kk/nFu+O3pyN1inj7hyaC0xgbkdXJkCjKgiafmG+/EKABhxLS0vj4+NjAPpIfunkV8/8EgJAQZz0rKMiATpItEG3DQpu8xLisD9rNY4ablicG7036MjNrNxGow7LVrJ9ehROuR2Hit9ww1kSX8F68+UhQGNwdPJp39l5EF343PbqZlmhvAatucAE5nZ0ZQI0qoKg6Rfmyy8EaMC2tLS0uLgon2LzHEBfyC+d/OrRoAEUy0nPOioSoPVWFa0BOvxiwMbVxFbDDbN0WiAWiY041n9bo7AdnTMCdMtbMmKHsxO5so8Vvpoq6+fKRIDG4Gj7aY/q86dXJjoMyrKaXi5deIPWXGACczu6MgEaVUHQ9Avz5RcCNGAbHx+nPgN7Qn715BfQPAGAIjjpWUeFvoQw0AzQYahtXt0ca7hW4Y315eDKaCsTB0/bBOhY+G5hXnGPqxIueXY7tfvmY28mlBG+2yNAY3C0/bRrSpY/zfMkWpyd1hw1aPO8CJoLTGBuR1cmQKMqCJp+Yb78QoAGbGNjY+YRgL7jFxBAsZz0rKOqATp4kNZw9VWr1brptqUUB4E4Vo2dHYZHa+whJQQnhOZQ4vJwh9FCAjRQoOxP+9zi3d+E99PIvpB5bf2+tmZZ3ywKq7Ruay/skeYCE5jb0ZUJ0KgKgqZfmC+/EKABG/0L2EP8AgIolpOedVQ0QDf+Z8Tptu5Fzc76zSicWnWtHeo6w41dJG8SrO/cfEOlhGn7KmwCNFCg7E+73nyjk4Kst36W9e2bRGu/LvAiaM0FJjC3oysToFEVBE2/MF9+IUADNvoXsIf4BQRQLCc966hIgH7NePmFffteeDl4ZF4InTp16uXn9+17PnwhJEvMa6HXXvvei980GypdrrX3l6dOmaUNQehphODJE/v3ffPF78nS77747L59+775wgvf3GeHYFlZt4q0HH3y5L59z774XfOSMi+FZOXv/fGz5hDyRv/42W984xvBjT0a5JiRZ/84WMtsmQcBGoMj49Ou+Tj75hu2xAatN+JYW79vnvdGc4H8PdAJXZkAjaogaPqF+fILARqw0b+APcQvIIBiOelZR8UDdHAd8f793/jGN5zIe8ok4PBWF60NV4WLjXBzFez75ef3aQIOKnN46bQVroNALOvphirY3Grf4tSpn+hxlfOqCN+bIW/VDdB/9t/t65zDxSJo6ARooK2MT/vozdnfWJc/r63f//TKRPaQ9bVBR8VZq7TsSp/2SHNBmJfb05UJ0KgKgqZfmC+/EKABG/0L2EP8AgIolpOedVTsFhzoEgEagyPj0+7cf0MviO5w2NlanhZ1Fw7NBSYwt6MrE6BRFQRNvzBffiFAAzb6F7CH+AUEUCwnPesgQNcDARqDI+PTrinZ/vpBedzJMGuH5CkBuhQEaO8QNP3CfPmFAA3Y6F/AHuIXEECxnPSsgwBdDwRoDI62Ado86YHemsMJ093RXGACczu6MgEaVUHQ9Avz5RcCNGCjfwF7iF9AAMVy0rMOAnQ9EKAxONI+7QVeuay38iBAF4wA7R2Cpl+YL78QoAEb/QvYQ/wCAiiWk551EKDrgQCNwZHrCuid2N020obZIBTfT9c0F5jA3I6uTIBGVRA0/cJ8+YUADdjoX8Ae4hcQQLGc9KyDAF0PBGgMjoxPu165vLZ+X5929yWEuhX3gC4eAdo7BE2/MF9+IUADNvoXsIf4BQRQLCc96yBA1wMBGoMj49M+enP2Nx9fvnV7UZ+urd+P+vKnVyayh5OtZVf6tEeaC0xgbkdXJkCjKgiafmG+/EKABmz0L2AP8QsIoFhOetZR4QC9MXxk//4Tk+YZMhGgMTgyPu1anD+9MmGeWxdBR1W6Ldlc1o8uiO6R5gITmNvRlQnQqAqCpl+YL78QoFG25eMHnnnmmUNJ/1fTyOvyyoFjC+ZpkuVjL8k6nXm9gH+H0L+APcQvIIBiOelZR4UD9OTJ/ftP0p87Q4DG4Mj4tO/sPNC7cNi5OVeDLvb+G0JzgQnM7ejKBGhUBUHTL8yXXwjQKNfCsSA/xwQ9OuWl1lgdBOgDx5fNs1BYtJ1sHXZqAjTgOX4BARTLSc86qhWgg+bc3uFzG2Z9NBCgMTiyP+1RQba/V1Aea4OO7rORKFqtqMufheYCE5jb0ZVrHqA/BwCE5C9G/Xs/FwI0OjBy6BmTj5ePH2i9CDp4ySTjhWMHXjrW0pibmnuIhAHauaI6oVN3h/4F7CF+AQEUy0nPOqoXoLMveg7uy0GAjiNAY3Bkf9p3dh7oPTTsG3EIXW5X6bjEDXukucAE5nZ0Za6ARlVoIIMvmC+/EKBRmjAxm7Ksd9KILlsOX2pE5OWRQ8Gl0K0NWm/c0Y3Ult0R+heQbSdknqTrcDUHv4AAiuWkZx1cAV0PBGgMjraf9p3GjTic66AzRNm6wJtvKM0FJjC3oysToFEVBE2/MF9+IUCjFHp7jZYW3HqR8sLISMs9NEZGji8nhONwP87VzsGdo93KHBRtZ7Xu0L+ADFNTUx988IH8aZ6nGBkZkdXW1tbM847xCwigWE561sEV0PVAgMbg6OTTbjfotrd+lhVkTV05+x4dXdBcYAJzO7oyARpVQdD0C/PlFwI0yrJggnLSHTPChc2InH4DjYQAnXS756RO3TD65gtffeZ3D47smufZ6F9AtrYNemFhQVa4fr2bq2n4BQRQLCc96+AK6HogQGNwdPhp39l5MHpzVsvyp1cm5hbv2nFZXpWnt24vaqfWdcxrhdJcYAJzO7oyARpVQdD0C/PlFwI0SpJ8D42Xji3rxdHpWjpyeAvo1u8bTLgrNAEa6KehoaEPPvgg8Q4bslBekhXM85z4BQRQLCc96+AK6HogQGNwdP5p39l5MLd4N0rMOpynuqTtVdJd01xgAnM7ujIBGlVB0PQL8+UXAjTK1tMV0Hqz6M6kBOh86F9AWzs7O0OheIPu+uYbil9AAMVy0rMOroCuBwI0BkfeT7tm6NGbs/ESfev2YuH33HBoLjCBuR1dmQCNqiBo+oX58gsBGmXrKUD3Hf0L6ETijTja3p2jLX4BARTLSc86uAK6HgjQGBw9ftp3OvtawqJoLjCBuR1dmQCNqiBo+oX58gsBGmVJutVGVJkJ0IDvnIud5YE8lYX6tDv8AgIolpOedVQrQDtWhw+36dEwCNAYHH592jUXmMDcjq5MgEZVEDT9wnz5hQCNsrVeAR1+hWC2ZpgWOe7BwS04gH6yb8QhPujh1s8RfgEBFMtJzzoqFKCDy58PD68+3Th3eP+RYb3IefJEcMsNWdi0Ony48SoiBGgMDgK0rwjQ3iFo+oX58gsBGmVLvAVHx5K+cjAuzNQEaKDPFhYWhoaGrl+/3uOtnyP8AgIolpOedVQmQAf31th/Irjc2Q7QIngaLg8viD48vNpcExECNAYHAdpXBGjvEDT9wnz5hQCNcqRd6Xzg2ELWRdCx1pwQoEded66SJkADe0bv+yx6ufVzhF9AAMVy0rOOqgToxuXPwgnQTc07RIdrcydoy/kLV7e3d80ToL7kcy6fdvPEB5oLTGBuR1cmQKMqCJp+Yb78QoBGyfQeGnYcTrvjc+LyeIAO+zUBGqiM8D4cvd58Q/ELCKBYTnrWUY0AHV7U3IjOQYBOuvVzcDuO6MJnbsTRamp6bmJyxjwB6ks+5/JpN098oLnABOZ2dGUCNKqCoOkX5ssvBGiUKrhauaERiIsI0K+3xuasAD365gtffeaPDo12dokM/QvYQ/wCAiiWk551VOQK6NdafO/Fb+7bH7Nv3wsvmxUMszFCV66OT0zOcB006ko+2/IJl8+5ee4JzQUmMLejKxOgURUETb8wX34hQKNEYT0+9HpwD+hjwZ2gNSWHBTlF+wC9cCzYUXArD7MgkBGgd0ffIEADnuAXEECxnPSso5IBOmBesJgXLOYFNExNz52/cPX02REGo35DPtt+XfusNBeYwNyOrkyARlUQNP3CfPmFAI2yhKX4wPHl6EsIw6uhzT2gY6FZdHIFtBuvk/bTE/oXsIf4BQRQLCc966jMlxACQA1pLjCBuR1dmQCNqiBo+oX58gsBGuUIS3F4p+YoQMvD5eCy5VwB2qLXPlt3f27e38O5JXQP6F/AHuIXEECxnPSsgwANAOXRXGACczu6MgEaVUHQ9Avz5RcCNEqyPDKiUdgK0Cp3gA73IFpvuxExN+UQKXeBzoP+BewhfgEBFMtJzzoI0ABQHs0FJjC3oysToFEVBE2/MF9+IUCjbIkBOk0zQDezcuZl0U3hbnu+FJr+BewhfgEBFMtJzzoI0ABQHs0FJjC3oysToFEVBE2/MF9+IUADNvoXsIf4BQRQLCc96yBAA0B5NBeYwNyOrkyARlUQNP3CfPnFDtDmfwm0oysToFFL9C9gD/ELCKBYTnrWQYAGgPJoLjDtoB1dmQCNqiBo+oX58gsBGrDRv4A9xC8ggGI56VkHARoAyqO5wLSDdnRlAjSqgqDpF+bLLwRowEb/AvYQv4AAiuWkZx0EaAAoj+YC0w7a0ZUJ0KgKgqZfmC+/EKABG/0L2EP8AgIolpOedRCgAaA8mgtMO2hHVyZAoyoImn5hvvxCgAZs9C9gD/ELCKBYTnrWQYAGgPJoLjDtoB1dmQCNqiBo+oX58gsBGrDRv4A9xC8ggGI56VkHARoAyqO5wLSDdnRlAjSqgqDpF+bLLwRowEb/AvYQv4AAiuWkZx0EaAAoj+YC0w7a0ZUJ0KgKgqZfmC+/EKABG/0L2EP8AgIolpOedRCgAaA8mgtMO2hHVyZAoyoImn5hvvxCgAZs9C9gD/ELCKBYTnrWQYAGgPJoLjDtoB1dmQCNqiBo+oX58gsBGrCNj4/LR9g8AdBH8qsnv4DmCQAUwUnPOgjQAFAezQWmHbSjKxOgURUETb8wX34hQAO2paWlxcVFGjTQZ/JLJ7968gtongNAEZz0rIMADQDl0Vxg2kE7ujIBGlVB0PQL8+UXAjTgWFpaGh8fHwPQR/JLR30GUDgnPesgQANAeTQXmHbQjq5MgEZVEDT9wnz5hQANAACAWnLSsw4CNACUR3OBaQft6MoEaFQFQdMvzJdfCNAAAACoJSc96yBAA0B5NBeYdtCOrkyARlUQNP3CfPmFAA0AAIBactKzDgI0AJRHc4FpB+3oygRoVAVB0y/Ml18I0AAAAKglJz3rIEADQHk0F5h20I6uTIBGVRA0/cJ8+YUADQAAgFpy0rMOAvTgkH+XbO/sbm5ura5trsiMr6yXOuQQciA5nBxUDm3eBDBgNBeYdtCOrkyARlUQNP3CfPmFAA0AAIBactKzDgL0IJB/nqxv3HcCcZ+HvAF5G+YNAQNDc4FpB+3oygRoVAVB0y/Ml18I0AAAAKglJz3rIEDXm/yrZHVt02nBezjkzchbMm8OGACaC0w7aEdXJkCjKgiafmG+/EKABgAAQC056VkHAbrG7t3fduLv5ubW1vaO/DtF/o2i68gDeSr/kJFXlz5fXVhcWVy6K0Mefy4fjOU1ew/5xvJ62ubyxvToQO1pLjDtoB1dmQCNqiBo+oX58gsBGgAAALXkpGcdBOhakn962PfcWFvflH+nPHrU5kbMDx892rx3//Pl1fmFZS3RmqGj/XQ/ltdXggfNXcnbkzdpDgzUl+YC0w7a0ZUJ0KgKgqZfmC+/EKABAABQS0561kGArh/5d0d0242Vuxv37m3Lv0rMax2Qf8WsrW3OL3w+v7BcZIOWsdzyVN4kDRq1p7nAtIN2dGUCNKqCoOkX5ssvBGgAAADUkpOedRCg6ye69vnu6sb29q5ZmtPm5n1t0AuLK0U26NYhb9UcD6gpzQWmHbSjKxOgURUETb8wX34hQAMAAKCWnPSsgwBdM9F9n1dXN3d2uqzP6t69rYWF5bn5z0tt0NwPGvWmucC0g3Z0ZQI0qoKg6Rfmyy8EaAAAANSSk551EKDrRP4NEoXdrq99tm1s3pu9s1h2g5a3bY4HFGRjc2t0bEaGed4BWXl2fkU2NM8LornAtIN2dGUCNKqCoOkX5ssvBGgAAADUkpOedRCg6yS69fO9e4VdVnz37trsncXi7wdtDXnb5mBAEUbHZg7+8LgOs6gD0SZDF8bMoiJoLjDtoB1dmQCNqiBo+oX58gsBGgAAALXkpGcdVQ7Qkyf2n5w0j7OsDh/ef3h41TyzTJ7cn7GH7FcTbJw7fPjchnlSPfJvEO25a+ubjx49Nkt7Jv+mmV/4/M6cadBFBujgOwnN3uTNm+MBPdOOrFc0m0VJnFflqWzyxk/fl2EWFUFzgWkH7ejKBGhUBUHTL8yXXwjQAAAAqCUnPeuocIDe2Dh3cv/+/U7zTajSRQTojXOH5VjJjgzrO9B1Gu8n2DxD/1N19N2D8k8Ss6gga2sbt2fm5+aXCr8Rx0rjAd9GiKJsbG4d/OHxt06cNc9TaKSO33BDNkxc3jXNBaYdtKMrE6BRFQRNvzBffiFAAwAAoJac9Kyj6rfgCDNvM+aGrfnkZGvbbQbojeEjmn9TWV049xXQQht0u62Ct9HnAC3/5tCSe3d1o8DLn5X8u2ZmdiG6EUfRF0GbIT+COR7Qg9n5lbYBWiN14pXOGqCzL53ORXOBaQft6MoEaFQFQdMvzJdfCNAAAACoJSc966hkgG5Nw/LMXIMc9uUTsfqb8wroyRPaoi2Na5w7EWwefw8t9iBAb+/sasbdLPor1NTS0kp4EfTn5d0JWn4EczCgB50E6KELY7JO4r2eCdAlIkB7h6DpF+bLLwRoAAAA1JKTnnV4EKAbwquPky4+7u4WHMFW6a/2ZA8C9Obmlmbcre2C77+h1tY3p6bv3JlbLPwuHNEoKZ1j0HQSoGUFGYn32SBAl4gA7R2Cpl+YL78QoAEAAFBLTnrWUakA3bi4OCkcJ/Xi2I2bDw+vZtyFoyVSd3Yzje7sQYBeXdvUjCv/BjGLCrW9vXNraraMu3BEu5IfwRwM6EHbAK2XP6d90+C7py4RoMtCgPYOQdMvzJdfCNAAAACoJSc966hSgA66c9ht4wE6WKI3vki4A0bLFdAp8de9Stp0anOUcPdZTlxudu329+vYgwC9IjMYZlz5R4dZVCj5N83E5O2Z2QW9C0cZt4GWH8EcDOiBFuTE22uo7BVGx2bkVVmnqO8h1Fxg2kE7ujIBGlVB0PQL8+UXAjQAAABqyUnPOioUoMP+HDZiN0CHd202C8Irl1uuZY4H6BTWVuH11MGiI4fjN3QODpFSmVtfyurWfQ7QZTdc+VfM+MR0eBvopYIDtDXMwYCu6FcLaj42i2KidczzJFqoZRTSoDUXmHbQjq5MgEZVEDT9wnz5hQANAACAWnLSs47qBGir7bYE6LA+28U5DNV23s1/BXRwrBMnw/0Mu3treSeueIBuvVJb7cEV0Bpwyw7Q07fn5uaX9DbQUTUucJiDAV3Z2Nx646fvHwyvbk5rx9n331B6G2gZ5nlvNBeYdtCOrkyARlUQNP3CfPmFAA0AAIBactKzjsoE6PDKZXMxcjPshvXZjbxBBbaX5b4CWvYvjxtHkf8ZNOXgqVbjRmVO6MidBeg90IdbcDgBurCLoLkFBwql1y+Pjs2Y562iQm2ex2ihzriGOi/NBaYdtKMrE6BRFQRNvzBffiFAAwAAoJac9KyjKgE6vCdGI+aasJtYn0Ot5TfnFdBBRI5/1WHYn5srhJXZLd3WS6EKBejoSwjlnyFmUaG2trZLugKaLyFEsfRLCBMLst5/o5PLn/kSwlIQoL1D0PQL8+UXAjQAAABqyUnPOqoSoFtabvBEpeXdjXOHm5XZxGXdRfsroCdP6AP7kPb113ZlDtaxc3ZlA/Tm5pZmXPn3iFlUqNW19bLvAS0/gjkY0AMN0G+dOGueW/Tq5ozLnwUBukQEaO8QNP3CfPmFAA0AAIBactKzjgp9CaHRLMgJbTdoza2Lw0unrdXbXwHd0MzH4ZXOzVftyhy+1DxixwG6pWj3wfbOrmbcjc37ZlGh5heWJiZvz8wuzM1/XlKAlh/BHAzoQUaAluVt4zIBukQEaO8QNP3CfPmFAA0AAIBactKzjooF6CDpquSw25p8ne8nDGNxOwn5ODyoFYvjlTkq2tFLG+dONu8inaDfAVr+zaEZ9+7qhvwbxCwtyO7ug8nJ6VtTs7N3FucXlosM0I0bQMuQH8EcD+hBWoDu5P4bggBdolID9MLCwlISWb6+3v03nK6trS0uLpp9tZI9m5W6Mj8/b3bUSpbv7JTy/8nShfKC5vLy8uZAkh/cnIISlBqgmbLCEaABAABQS0561lGdAG3ycRBtU65i1uLcUdW1qnF4iXTS3hr5OJaRWwN0eNDGU31p2LyNjACd8VJZ1jfua8mVf5WYRQVZXrl7c3xqavrOnbnFYr+BcKXxQN68ORjQm4wALQvblmUCdIlKDdDz8/PmUUzaS086+M7WXLv94osvHoY66T6bm6mnIvGlBw8eXLlyZXe3r/+vIuUFTfmgm0cDptQfvNQAzZQVjgANAACAWnLSs46KBOjv/fGz+/Y9++J3XzNefiGI0aHf+73f29f0wsuvvXbu3Dnd6u7du2b9htdf/y8nw61OTj79h7//B7NU9vd8sPGrPzffSzYxMREcQ3cX+slPfqIvif/yf/zOvucbL4TkQPrSBz/6f8t+nv3j74WLgz386Q9+ri+JcGEg+nHMC30h/wbRmLu2vlngRdC7uw+mpmcmJm+HN4AO7r9RWIAOLn82+5E3b44H9OyNn75/8IfHR8dmcnVkWVk26eQq6Vw0F5h20I6uTIDuRt4A/bd/+7d/9Ed/ZJ6ky7Xbn/3sZ//6X//rv/iLv/i3//bf/t3f/Z1ZmiJXgP7Hf/zH559//vDhw7JnOYpZWj4CdC+0ADr/naPUH5wA3aM+TxkBGgAAALXkpGcdFQnQJtxazAtPn77zzjtmUUNagH75+X2/8zvPRXfk+MlPfmJeaPjgh8/ptcyJATq8oUdAdtJM4aFGgN74H9/5/WiTwMsv/N7v/Z7ZbP/+IHI36GrhVv2zurapPbfAL/RbXPpcL38u/v4bjSFv2xwMKIJ+2aAOs6gD0SajYzNmURE0F+RCgO5GrlK8u7v75S9/+Q//8A/lfxmYRSly7fbtt9/+q7/6K3kwOTn5rW99SxemyRWg/9W/+ld6IxH530Z/8id/ogv7oD8Bem1tbXx8fGtrSxZq/tN2Jg90iawjf8pp2dnZ0Vdl5WCN3vra/fv3p6enl5aWZJ9ClsgOl5eX9RYo8liOLgfSI8rKwfFC4dZtyLuVT9fY2NiVK1fu3LljlpZZM0XfAnQnUyZ0oTyITq+YnZ3V9cNV8mk7ZUoeR68KPf+6PEP/p4wADQAAgFpy0rOO6n0JIbon/waJqm4hN+K4u7o2NjY5eWsmvPx5qdj7b0RD3rY5HlAQvZw5V0rW9TeK+483SnNBLgTobuQqxZcuXfp3/+7f/exnP/vzP/9zsyhF3gD9h3/4h3/xF3/x/PPPv/POO2ZpilwB+j/8h/9gHj19+vBh//7G7E+AnpqaWlpakiUXLly4e/fuwsKCHHd0dHR5eVmWBF3t0aM7d+6Mj4/L8tnZWVl+48aN9fX16elpOxS2de/ePfu4q6ursrns5/r167dv397d3ZUdfvbZZ9qaZ2ZmxsbG5M3IOvp+ZH15q3Nzc2b7TLKJrCnbyn4mJ5t35LLfQOHKmy+Ra8rE2tqanFg5CfKSnN7ohMjcyeMObybT+ZQ9efJEjn716lV5Y/J+ZLm8ATmizqO8ye3tNv9XUfQO+zZlckT5U/YvTGBuR1cmQAMAAKDKnPSsgwBdM/fub2vVXV3d3NrqqUGvra3funV7YvL29O25O3NlXf4sb9gcD6gjzQW5EKC7kasU/+3f/u3f/M3f/OIXv/j93/99syhF3gD97//9v3/vvfdef/31/fv3m6UpcgXol156yTzqLw1kZZAPunkURkY50NTU1JUrV9bW1uSBuHz5srwkS7744osHDx4sLy8vLi7eCTP09PT07Ozs3NzcjRs3xsbGdCcZZA8aScWtW7eeNG6wIMeS425tbV27dk3OuRxC9ik71wCt69++fXtyclL+lA31iPIGdPNssjfz6OlTeefmUZk1U5Q3XyLXlD169OjmzZty3mT59evX5RzKeRPyVM62vPQ483uHu5sy+TDIEYW8k4mJiZmZGTmQHFpWlomTt6Q7SdP/KdP5kv0LE5jb0ZUJ0AAAAKgyJz3rIEDXT/RthHdXN7q+Dvru6trExPT4xLR9843CL3/muwdRe5oLciFAd6PzUvzFF18899xzH4X+5E/+5N69rP+9lTdA6y04xL/5N/9GH6TJFaB///d/f3U1uL/U/fv3/9N/+k+6sA/KC5ryQTePwstaJyYmZCKWlpY0a8oSPb0LCwt62w15Ko/X1tamp6flVbG9vT0zMyNLdCddkJMpe5ODLi4uylFkh3KIubm5Bw+CLyWQx3JQOZC+HyHvsPMjyg8im6tbt26ZpWXWTFHefIlcUya/ZcvLy3Im5STreZaFd+7c0fXlVGd8/jNkT9ndu3cfP34s71NWu3379sOHD+UtyQryTnZ3d9sesf9TpvMl+xcmMLejKxOgAQAAUGVOetZBgK4f+XdHdDPolbvyL5V7u3m+4k/+TRfc9/nmrYnJ21qf5+Y/L+bmG8G3DjaHvEl5q+aoQE1pLsiFAN2N+Y5L8dDQ0J/+6Z/q41//+tf/9b/+V32cqPPdip/97Gd/8Ad/IDt8+eWX//N//s9maYpcAfqtt956/vnnX3/99W9/+9s//vGPzdLylRc05YNuHtXUF+FVwOqxdbVvqT94efMlmLLCEaABAABQS0561kGAriX5p0d0HXSYejfu3bsv/zwxL6fY3X2wvHJ3anrm5vjU5K2Z6dtzhdXn5fWV4EFzD/L2qM8YBJoLciFAdyNXKe5cSbsVuQK0ePTo0Y0bN/RKz74hQBeu1B+cAF2G8n5wAjQAAABqyUnPOgjQNRbdD1rH6trm2vrmvXtb2zu78u8U/beJ/Itla2t7dXV9fmHp1q0gPeuFz7dn5vW+z93X5+X1tK247zMGh+aCXAjQ3VhYWFhKIsvX19fNSvmtra0tLi6afbWSPZuVujI/P2921EqW7+zsmJX2WnlBc3l5eXMg2TcaLlypAZopKxwBGgAAALXkpGcdBOh6k3+VRLfjqMKQNyNvybw5YABoLsiFAI2qKDVoonDMl18I0AAAAKglJz3rIEAPAvnniX1Hjj0Z8gbkbZg3BAwMzQW5EKBRFQRNvzBffiFAAwAAoJac9KyDAD045N8l2zu7m5tbq2ubKzLjsUZc7JBDyIHkcHJQObR5E8CA0VyQCwEaVUHQ9Avz5RcCNAAAAGrJSc86CNAAUB7NBbkQoFEVBE2/MF9+IUADAACglpz0rIMADQDl0VyQCwEaVUHQ9Avz5RcCNAAAAGrJSc86CNAAUB7NBbkQoFEVBE2/MF9+IUADAACglpz0rIMADQDl0VyQCwEaVUHQ9Avz5RcCNAAAAGrJSc86CNAAUB7NBbkQoFEVBE2/MF9+IUADAACglpz0rIMADQDl0VyQCwEaVUHQ9Avz5RcCNAAAAGrJSc86CNAAUB7NBbkQoFEVBE2/MF9+IUADAACglpz0rIMADQDl0VyQCwEaVUHQ9Avz5RcCNAAAAGrJSc86CNAAUB7NBbkQoFEVBE2/MF9+IUADAACglpz0rIMADQDl0VyQCwEaVUHQ9Avz5RcCNIAae/Tk6WerT4/PPP2Hm09/MBoMeSBPZaG8BACoNyc96yBAA0B5NBfkQoBGVRA0/cJ8+YUAjfItH3vpmWeeOTRinuY3ciht++XjB3raM2rtwsrT/37j6fdHk4e8JCsAAGrMSc86CNAAUB7NBbkQoFEVBE2/MF9+IUCjdGE+PnB82Tzt2Mjrzzzz0rFgs9QA3XPaRk09/iK4zNkpzolDVpOVAQC15KRnHQRoACiP5oJcCNCoCoKmX5gvvxCgUTJtxDlEObmDAB2+0FXdRr39bLqZmN+ceHrp7tO7u0+ffBGM1QfBU1kYrSArAwBqyUnPOgjQAFAezQW5EKBRFQRNvzBffiFAo1xBIk5Ix53cOsMJ0JFmbpblskLKITCw3p9vxuVP0v83krwUrSabAADqx0nPOgjQAFAezQW5EKBRFQRNvzBffiFAo0xBG068PLmLAB1bO7i2Otx59AB4OnO/mZUv3TUL08gK0cqyIQCgZpz0rIMADQDl0VyQCwEaVUHQ9Avz5RcCNEoT3nxDC3JMAQF64diBaFnw+MCxBX3iGH3zha8+87sHR3bNc9RbdOvn9+bMkmyymq4vGwIAasZJzzoI0ABQHs0FuRCgURUETb8wX34hQKMkQT5OjcIFBGh59cDxY4cai5sru4oM0O/feXL4uumVjAqOH1iPVx+YWcsmqzU3uSd/pwEYINvb2w8edPaXBfzkpGcdBGgAKI/mglwI0KgKgqZfmC+/EKBRjuXl44ei+2PkEQbl4IrmdK+PNC5/tm++UfqNON6/8yQqlYyKj7emzKx14u0ps9W15V0TpQAMEhp0jTnpWQcBuk6mpufOX7h6+uwIg1G/IZ9t+YSbz7o/NBfkQoBGVRA0/cJ8+YUAjZIl34ijkyugU4wcev2Y7LNx5bP1DYRhti6vQXPtc/VHdAX0qUUza52QlXWr4YWHJkcBGCTb29vmrwPUjpOedRCga+PK1fGJyZntbe6zhnqSz7Z8wuVzbp57QnNBLgRoVAVB0y/Ml18I0ChZ7wE6dmnzyKHgImij9dWsm0H3igDt0fgkz3+GkJV1q4/nCNDAICJA15iTnnUQoOthanpuYpIvcED9yefcr+ugNRfkQoBGVRA0/cJ8+YUAjZJ1G6CDS5s1JVuJObzG2dks2FWzR5eIW3BUf3AFNIAucAuOGnPSsw4CdD2cv3CVa58xCORzLp9288QHmgtyIUCjKgiafmG+/EKARsnKCNDhlxIm6/Cq6i7xJYS+jLfz3AP6Le4BDQwqvoSw9pz0rIMAXQ+nz/bj+gOgCvz6tGsuyIUAjaogaPqF+fILARol6z1Aa24OHyddAW2EL/XnUmhU1s7jZoNe7awpyWrRJrI5AKBOnPSsgwBdDwRoDA4CtK8I0N4haPqF+fILARrlyLhIub0gMTcCdJCqXzp27PWwYqcG6DBzl3z5M7xwfMbU5Pc6u1eerKbry4YAgJpx0rMOAnQ9EKAxOAjQviJAe4eg6Rfmyy8EaOyJTq+AHomKc/j89UPJm4W5O2V3o2++8NVn/ujQKDcJHAwz901QlnHprlmYRlaIVpYNAQA146RnHQToeiBAY3AQoH1FgPYOQdMvzJdfCNDYE50F6IC5+3O4yYGXZKtmj25sH66advON3dE3CNAD5v35Zlb+JP1/I8lL0WqyCQCgfpz0rIMAXQ8EaAwOArSvCNDeIWj6hfnyCwEaeyLPPaAt0S04FpaXtVC/PjLyeiNKAw0/m27G5TcngiudVx88ffJFMO7uBk9lYbSCrAwAqCUnPesgQNcDARqDgwDtKwK0dwiafmG+/EKAxp7oNUAbeutn8jNcj79o3gw6e8hqsjIAoJac9KyDAF0PBGgMDgK0rwjQ3iFo+oX58gsBGnui81twxDmbhVdA06CR4MLK0/9+wy3O0ZCXZAUAQI056VkHAboeCNAYHJ182jc2t0bHZmSY5x2QlWfnV2RD87wgmgtyIUCjKgiafmG+/EKAhk/cK6AbEi+XBp4+ffTk6WerwWXO/3Dz6Q9GgyEP5KkslJcAAPXmpGcdBOh6IEBjcLT9tI+OzRz84XEdZlEHok2GLoyZRUXQXJALARpVQdD0C/PlFwI0AAAAaslJzzr8CdAbw0f2Hz63YZ41yfKTk+Zxq8mT+/envKSCFQ4Pr5pnauPc4f1HhuOHqTgCNAZH20+7dmS9otksSuK8Kk9lkzd++r4Ms6gImgtyIUCjKgiafmG+/EKABgAAQC056VlHZQJ00JeTRAVZA/Sk/NkalcMNE5NxuwCd2JoJ0EDFZX/aNza3Dv7w+FsnzprnKTRSx2+4IRsmLu+a5oJcCNCoCoKmX5gvvxCgAQAAUEtOetZRqQCttThIwCfCR6vDh90AvRFmZacrh4t0E1ubAG12GByunayMXQ0EaAyO7E/77PxK2wCtkTrxSmcN0NmXTueiuSAXAjSqgqDpF+bLLwRoAAAA1JKTnnVUKkAfPnLYFOETk5Mn9h8+cTIhQIvJk+5FyglVul2ADuq2e/8NwRXQQMX1HqCHLozJOon3eiZAl4gA7R2Cpl+YL78QoAEAAFBLTnrWUa0roM8FlzwPBwH65Mn9JycTr4BOMXni8MnJ1lczA3RaaCZAAxXXe4CWFWQk3meDAF0iArR3CJp+Yb78YgfoXAjQAAAAqDInPeuo/i04gh6dJP3a5oasAB1eMt24a8fkCd1lovbHqQICNAZHjwFaL39O+6bBd09dIkCXhQDtHYKmX5gvvxCgAQAAUEtOetbh25cQtlyabIXjhEwchOykm2wEwv7cEqDjt5AW2TfxqBICNAZH9qddC3Li7TVU9gqjYzPyqqxT1PcQml6QBwEaVUHQ9Avz5RcCNAAAAGrJSc86/PkSwpZrllukZGLN00n9uBG7uQIa8FDap12/WlDzsVkUE61jnifRQi2jkAZtekEeBGhUBUHTL8yXXwjQAAAAqCUnPeuoTIBuagZoWxCj9yffnTk5QLuVOaL7t6965gpowCMZAfqNn75/MLy6Oa0dZ99/Q+ltoGWY570xvSAPAjSqgqDpF+bLLwRoAAAA1JKTnnVUJkCHFzgnaPRfef3I4cOJt9RIzsSy9PDw5PDhWLOePBHshAANeCr7067XL4+OzZjnraJCbZ7HaKHOuIY6L9ML8iBAoyoImn5hvvxCgAYAAEAtOelZhy9XQIcLh6PbdLRIysTB+kF6bt7Zw+EG6FQEaKBasj/t+iWEiQVZ77/RyeXPfAlhKQjQ3iFo+oX58gsBGgAAALXkpGcdlQ/QGxvBJc+mIye2aTtAb5w7GV4iHayv31iYvEk8QCetwxXQQAV1EqDfOnHWPLfo1c0Zlz8LAnSJCNDeIWj6hfnyCwEaAAAAteSkZx1VCdBB6k0U3nMjCsHBnaBjd+Ewr5qbPptO3QzH8nLCjTsI0ICnug7QsrxtXCZAl4gA7R2Cpl+YL78QoAEAAFBLTnrWUcEroBuiu2c0L2cWCbG4Ga/D1cOvK7SzceN2HC3cAJ2KAA1US3cBupP7bwgCdIkI0N4haPqF+fILARoAAAC15KRnHdUJ0JMn9h8+NxlG56g4T57cf3K45XLmhL5s8rGpyWGNdi9nDi+Obl3oBmh3kxBXQAPV03WAloVtyzIBukQEaO8QNP3CfPmFAA0AAIBactKzjooE6Ne+++Kz+5598buvfe+Pn933zRe/990Xza02Voe/+wd/8MLLr9n+6eC/N7fmePr07//+b15+/tln//h74Ssvv7Bv3/N/eVIvdp6fnw8XquClf/HSfwtfCfz9f/5/7nv+5XCx8Qd/8AdhyQ6YRZFvvuhcQF01BGgMjraf9jd++v7BHx4fHZvJ1ZFlZdmkk6ukczG9IA8CNKqCoOkX5ssvBGgAAADUkpOedVQkQL/8/L4gB1vCxcGVy9/9/31sFjWcOHEiumb57//+783S17734jeDnczPz4fbOgFavPwf/sW/iK50NgHacvHiRX1JmEUW80JVEaAxONp+2vXLBnWYRR2INhkdmzGLimB6QR4EaFQFQdMvzJdfCNAAAACoJSc966jwPaCRAwEag6OTT7tezpwrJev6G5tb5nlBTC/IgwCNqiBo+oX58gsBGgAAALXkpGcdBOh6IEBjcPj1aTe9IA8CNKqCoOkX5ssvBGgAAADUkpOedRCg64EAjcFBgPYVAdo7BE2/MF9+IUADAACglpz0rIMAXQ8EaAwOArSvCNDeIWj6hfnyCwEaAAAAteSkZx0E6HogQGNwEKB9RYD2DkHTL8yXXwjQAAAAqCUnPesgQNcDARqDgwDtKwK0dwiafmG+/EKABgAAQC056VkHAboeCNAYHARoXxGgvUPQ9Avz5RcCNAAAAGrJSc86CND1QIDG4CBA+4oA7R2Cpl+YL78QoAEAAFBLTnrWQYCuh/MXrm5v75onQH3J51w+7eaJD0wvyIMAjaogaPqF+fILARoAAAC15KRnHQToepianpuYnDFPgPqSz7l82s0TH5hekAcBGlVB0PQL8+UXAjQAAABqyUnPOgjQtXHl6vjE5AzXQaOu5LMtn3D5nJvnnjC9IA8CdIlu3Ljx5S9/+cUXX9ze3jaLYlZWVmQF+dM8t8jCr3/966dPnzbPY14NmScdkx3Ku5L3Zp5XBkEzLuPjsecGeb7k9y7jF7OaCNAAAACoJSc96yBA18nU9Nz5C1dPnx1hMOo35LPt17XPyvSCPAjQZTl9+vSXvvSltoF4dnb2ueeesyO1bPj1r399JdR5gJYHcrg00WpyFDmW89Ss1OrNN9/Udfqm/0Ez48e32bMj5MzYS6KnIr43nb7ElzJEky6fgVdeeSVakj3LGR+VMlQqQOt/7DEnop3o8y9zZxZ1wP6tOXr0aLRETruukCjaas8RoAEAAFBLTnrWQYAGgPKYXpAHAboUbcOW3Qo1NEfB99VQtDyjKkZrOo8z3Lhx42tf+1p0+bOG0ejQKnFhH+xVgBbywCyKkbMaraAzYqaw1Ze//OWRkRFZMzpv9vTpgTqZoESyk+w32fajUoaqBWj7g50h/EUxEyGTJedNzp4+zUW2eu6557KPaB9rzxGgAQAAUEtOetZBgAaA8phekAcBumDZTfPNMEzHm1RUGG9kXsipt86IryPbvvLKK52kLllHC6nu5L333pNtndasP4KzsA+qH6CVnBl7SfRUyIPovKUFaFkhWscm68s6dgyVbTvMo/ax+qb6AVrOsz1TSmZBJ0LICnqGZUP5DXLWVLKyfWJznWr7WHuOAA0AAIBactKzDgI0AJTH9II8CNBFOp1+2w1NkFqQzaIksm2UzLJTl900RRC6wlKmSdqhO5E/o6CpbU4ey59OD9U9J0bSUg1OgJYZ0ccRXSGaKWXPV7bsj0pJqhmgRdp/wtFzLn9GJ1/mQs+wbhU/2/HJynWq7WPtOQI0AAAAaslJzzoI0ABQHtML8iBAF+bNN9+M+vJK6/97fmJzjHO2yk5dmsyifYalq7l/edW5IFT3Ju8keix7jrpnnK7ZTx4FaHOOGnQFIQ/MogadPn0pmiCdO3u38lL04YnItlESlcdmj610/9kflZJUM0Cb5yGZKWfuRPB70pgIWSE6wzpH9izoOXd+EexTrY91ImzR/u1j7TkCNAAAAGrJSc86CNAAUB7TC/IgQJdiZWXlvffeMzkq9i12EQ2RskI8Porsqqh1LC11xXucE8t0ZY1uTmJLXNgHHgVoe0n0VMiD6LzZ06cvORMkky4ryGqySeIHQLbVFZzHyt6//bhvahaghU6T/HbImdQJimYz0va02/u3H+85AjQAAABqyUnPOgjQAFAe0wvyIECXIipZ8f4VF7WzV199NYzDWaIdRitrQQtLV0vfjPc4ddr6Rjt9n05lS1zYBwMVoIWuoJPoREwlC3VyncfK3r/9uG+qFqCfe+65sbGx6JQmklMU/qIkB2glr+rK0Wq2tqc93L3Z0H685wjQAAAAqCUnPesgQANAeUwvyIMAXbBXG/XKzlK6MC3pxmOxnTjDhOU2LN1EvPLKK7Km0C8h1CKmbyAS7UrIA1kzOpbTTFXiwj7YqwBtTlM6+wQKOTPmhQZdQfcWnTe7TupL8XnUXcUbqJJto5fksR7LoftPLKFlq2CATjyNjvD3yUyEnP/4yZdd6f9fQuL5tE+1PtaJsEX7t4+15wjQAAAAqCUnPesgQANAeUwvyIMAXYwoRTndNi1RiShvaU2OorCQnUTRM7FhyQq6XMghZGWnb8b3qWRDYZ4QoMOfVOipTiRn1VlBzoy9JHpqp0lhP9UD2RMkZEP5GLzyyivRvTjMCw2ybbTcfqzs/duP+6aWAVr2I9MhuxL2L2mk7X4O/YwAAKKLSURBVGm3928/3nMEaAAAANSSk551EKABoDymF+RBgC5RPG8JjVZ2wXRisRMr7YalrfPOnTvPhd9VaL9kPxbOPpU81Us7lexK3oz8aZ63kmOZzfqlHgHanL4GrZN6IHuC5LG8qidZ5yX+UZFto4X2Y6WHyyihZatUgLbPj5xVPfm26NXg98T6hbLPquxE1tTZ1CmTp85ZbXva7f3bj/ccARoAAAC15KRnHQRoACiP6QV5EKBLoUlR86JNi5WdL4UTizWfRVXLblj6WNY8evRo4kv6WDj7VLpnezWtbM77TFzYB9UP0HI+7YJvk+UyKfY5t+ukHkjPvD6WTexwKY9liR1DhSyMltiPlb1/+3HfVDlAO3Nqvxr8njR+BWRNeyuZgugloWfVmSn7VNuPI/b+7cd7jgANAACAWnLSsw4CNACUx/SCPAjQBdNGqf1LHr/yyitRCLNf0iVKlmu4jIKXHX+jhqXhMvGl6LGQzeNkua7miO9TJC7sg+oH6GxyxqKaKew6qQeSXelnQGbEqZZClshyew+yJHqqr8bpfuxj9U2lArSc/Gia7MfKPpPBL0nj10GnbHZ2VtaXkxktj+iJjc5ztMQ+7eE8tIj2Ex4q+Vev/wjQAAAAqCUnPesgQANAeUwvyIMAXRiNjFHnErOzs88995wWqDfD6yvlT33Jdvr06S9/+cs3btyQV/WBeSEUJUth71zYect+nE3fie5N05vzrvQHSXyrpfIoQMtCPT/Rq9oi7SmwS6UeSF5977335CNhT6JN9nnkyJHoVTub2o/j7GP1TaUCtJzb6ORHn3BbdPacNWX5yMiITEra2ZNfQPt7O+1T3fa028facwRoAAAA1JKTnnUQoAGgPKYX5EGALleUj6P+5TjduLK1i1Bl5y37cSJtoHIguyzrQnuJSFzYB14EaJ1QrZa6RCOmrOP8xwO7TuqBsicoTrZN+9g42pbQMlQnQDs/vsxIxpyGvyhmInTuOjnDkVyn2j7WniNAAwAAoJac9KyDAA0A5TG9IA8CdIlOh3E5flFzRFd48803tWpll9A4O2/JgyBjp4jvWY9oXk6R8c7LsFcB2vy06aKzp/U5nublZOrXQspje5/Rhh0eKKLTKh+PDvNoripalOoE6OzibNOJiGZQHpgz3gGdi1ynOvwFJUADAAAAJXLSsw4CNACUx/SCPAjQxdOsLNpGsZWVlb/7u78zTzrLYXaRrFTe6t1eBejsaZIz3HYeS5IdoPXNm49FV1fQ96giAVrPQ3YRjn4lRcYp7UTbAG3/Fvd4rGIRoAEAAFBLTnrWQYAGgPKYXpAHAbowUXiqUxTup+pcUYtOMF9+IUADAACglpz0rIMADQDlMb0gDwI0qoKg6Rfmyy8EaAAAANSSk551EKABoDymF+RBgEZVEDT9wnz5hQANAACAWnLSsw4C9OCQf5ds7+xubm6trm2uyIyvrJc65BByIDmcHFQObd4EMGBML8iDAI2qIGj6hfnyCwEaAAAAteSkZx0E6EEg/zxZ37jvBOI+D3kD8jbMGwIGhukFeRCgURUETb8wX34hQAMAAKCWnPSsgwBdb/KvktW1TacF7+GQNyNvybw5YACYXpAHARpVQdD0C/PlFwI0AAAAaslJzzoI0DV27/62E383N7e2tnfk3ynybxRdRx7IU/mHjLy69PnqwuLK4tJdGfL4c/lgLK/Ze8g3ltfTNpc3pkcHas/0gjwI0KgKgqZfmC+/EKABAABQS0561kGAriX5p4d9z4219U35d8qjR21uxPzw0aPNe/c/X16dX1jWEq0ZOtpP92N5fSV40NyVvD15k+bAQH2ZXpAHARpVQdD0C/PlFwI0AAAAaslJzzoI0PUj/+6Ibruxcnfj3r1t+VeJea0D8q+YtbXN+YXP5xeWi2zQMpZbnsqbpEGj9kwvyIMAjaogaPqF+fILARoAAAC15KRnHQTo+omufb67urG9vWuW5rS5eV8b9MLiSpENunXIWzXHA2rK9II8CNCoCoKmX5gvvxCgAQAAUEtOetZBgK6Z6L7Pq6ubOztd1md1797WwsLy3PznpTZo7geNejO9IA8CNKqCoOkX5ssvBGgAAADUkpOedRCg60T+DRKF3a6vfbZtbN6bvbNYdoOWt22OBxRkY3NrdGxGhnneAVl5dn5FNjTPC2J6QR4EaFQFQdMvzJdfCNAAAACoJSc96yBA10l06+d79wq7rPju3bXZO4vF3w/aGvK2zcGAIoyOzRz84XEdZlEHok2GLoyZRUUwvSAPAjSqgqDpF+bLLwRoAAAA1JKTnnVUPkBPnty///C5DfOsSMGeT06aJx3bGD6yf/+R4dgbCva2/0Tu3RVI/g2iPXdtffPRo8dmac/k3zTzC5/fmTMNusgAHXwnodmbvHlzPKBn2pH1imazKInzqjyVTd746fsyzKIimF6QBwEaVUHQ9Avz5RcCNAAAAGrJSc86KhOgw7Br0TS8ce5wjkq8Onx4/+HhVfNs8kR2EW4J0OGBUti5Oezh0SGa0pb3UfTdg/JPErOoIGtrG7dn5ufmlwq/EcdK4wHfRoiibGxuHfzh8bdOnDXPU2ikjt9wQzZMXN410wvyIECjKgiafmG+/EKABgAAQC056VlHpQK0udI56sjBg7hmjw4Sc17NmtzFFdBuJVfythPfSTkXbieTf3Noyb27ulHg5c9K/l0zM7sQ3Yij6IugzZAfwRwP6MHs/ErbAK2ROvFKZw3Q2ZdO52J6QR4EaFQFQdMvzJdfCNAAAACoJSc966hggA4uRg6uXA4vKm5puMGSrIuas66Alv2b2pwQixNuqZFAr5JOaNZdpOyibe/sasbdLPor1NTS0kp4EfTn5d0JWn4EczCgB50E6KELY7JO4r2eCdAlIkB7h6DpF+bLLwRowPEf33v6v/zN0//7/7ebIRvK5oNmaWlpfHx8rCuyoWxudjQwOGMA0B9OetZRvQCtNTe81ri1C4fh2Om8snK7G18EVTrcSh7YOwwvr86RjcP6Hb7D4L3ZG8obM6F870r05uaWZtyt7YLvv6HW1jenpu/cmVss/C4c0SgpnWPQdBKgZQUZiffZIECXiADtHYKmX5gvvxCgAdt/fO/p//q6m5VzDdl8oBr00tLS4uKi/N6b5znJhrL5QBVVzhgA9I2TnnVULkBPngy6c1hyT2bcYcOk5EaADutwRxrXRKdezpxi8tzhw9H11M1LrfXAZjcbq433Hz7tp9W1Tc248m8Qs6hQ29s7t6Zmy7gLR7Qr+RHMwYAetA3Qevlz2jcNvnvqEgG6LARo7xA0/cJ8+YUADdi6vvbZHrKTfEYOPSNeOrZsnvtkfHy865aqZHPZiXkyADhjANA3TnrWUbEAPRlc+Jxxk41Q0I7jATot+0ZXQLcIr7COynHbfp34lsJrqIOXgs335sLnyIrMYJhx5R8dZlGh5H/bTkzenpld0LtwlHEbaPkRzMGAHmhBTry9hspeYXRsRl6VdYr6HkLTC/IgQKMqCJp+Yb78QoBGX4Wl9dCIedaJkdf7WmadlNz1yGP52Et5z0oPFo4dKPRgY2Op/8du57rYyfJx+TmSf5DgM/PMgWML5mluwac02Dw4RAmfvb6fMfl5Ws5T8HO97p64Ln7RwvPcr88tAHTFSc86qngFdLu7aqQGaC3CLQ4PT0YBurGyaKx5+Ijeb7qFtf9UeiPpZnUO3vZeRuiyG678K2Z8Yjq8DfRSwQHaGuZgQFf0qwU1H5tFMdE65nkSLdQyCmnQphfkQYBGVRA0/cJ8+YUAjRKNHIp1rrBAp3SuoGdldbFw25hiA5jTkbsenQsrXn7mRMXPiRteNdQ6DhwvLKvuTYDO+Cwkv6SfosTXYp+gYK0wQC+MBP9toOgG3e8zZn7o5gdjeeSQfCZaPwPhz5z8qQj/A0nsF7PB7J0ODaCanPSso3r3gA6vTQ6jcMK3BUaaAbrBBGiNwLKTqGLLOuFCjdThoiAxnzgZpO5zw+GfLd22TYA2x4zVZo3a7cp1STTglh2gp2/Pzc0v6W2go2pc4DAHA7qysbn1xk/fPxhe3ZzWjrPvv6H0NtAyzPPemF6QBwEaVUHQ9Avz5RcCNMqjadUpU+HCpKtTwytz4yHLCtDBs0PRGsH6SfvpjdORux4dii7jtS+2tX7koP01smBiImxdGD47tmCaYIvUgNirPQjQ4c8X/tQjx5wT0nJ99/Jy2scj3IP7UYuY06hP7Ckoxh6cMfPLZf2+BD+jdQKSPjKN9eU0mpdTz1ibSA0Ae8ZJzzqqF6DbX4CcsILG5cwA3fyqwGCJvBqE5PAFDdPB09Y30HxLKlhu0nOwcpKTk+ba6ujofdKHW3A4Abqwi6C5BQcKpdcvj47NmOetokJtnsdooc64hjov0wvyIECjKgiafmG+/EKARpmSbi4RtqxY0dM1nUDmkP1Y2cwEaN2wKb2RdcTpyF2Pjli1tNAAbZ6FYmUwOGiPJ6lFv3OqfjDCnyj2XzjC1xo/bOp/6hDhitGGup82mv8VpFd7EKCFzPvrx5xfFnXgeHChd9vIHv7HkpTzCQBV5aRnHRUM0GHdzYi8odQA3cp0ZM3NJgoHHTm4wtocxgieWSuE+w+Ls1klvBy746ys7z3xztHliL6EUP4ZYhYVamtru6QroPkSQhRLv4QwsSDr/Tc6ufyZLyEsBQHaOwRNvzBffiFAo1xhY21tW2H8a815eiFwYgKzamzwTLY13dAE6PCxYb3aLacjdzL+9//x9MA77sK8Cg3Q9lZ6bptnJSvLdqWvOTX8ONkfnvDHMT9d60dF6H+cSPpEBCcq/aNiTqN5Vri9CdCR+K9k3p9XZ6FVj793AFASJz3rqGiAbu3LkyesUqxd2JTlIPMaJkBbK5r9BAH65InmvZ4nT2hHtgN0uKvGClGA1nXsi6BdYfK231uwpPXN98fm5pZmXPn3iFlUqNW19bLvAS0/gjkY0AMN0G+dOGueW/Tq5ozLnwUBukQaoD8HAITkL0bzF38eBGh0KF483SXas1L+//dbq2IYDptkJ2E805qWkKTF6JsvfPWZ3z04smueZ3M6ctvxv/+PpxPhlUFOg+6QlvcuNAKi9eM3nskZaLlYNTxnjT4YPCm2FfY7py4sW+k00PoJaY3OCyMjiV215ZzENE5jSfp7xoIT0vKThr9u1pLwXPRy9wx3h+GSlv8SAAB7xknPOioVoCMnJ7VHT5oqHXTe6OpjeSlKvsFqwZPJk0E+Tg7QaRcvNwN0eKVzcwUrQLdcBB2I9eVg59aVzsHTvQjQ2zu7mnE3Nu+bRYWaX1iamLw9M7swN/95SQFafgRzMKAHGQFalreNywToEmmANk/gAw1k8AXz5RcCNEoX78th8rITalYMjAVos2ojNzev8E3uhiUG6Kg+q393ovlSXr1cAd0qPAMt57y5YevJLEa/A3Sg5RLvlh8qPB+xsxQTrtb8zDnB1HlVnhd60vp6xvSTYJ+TcIn1s8tP98yh12OfI7NJGPSz83TLh03ofwMoseADQOec9KyjildABybDO2ZYC5uJef/hI9HlzPEA3aoRoJOurY4CdPDAjsh2gNZXrTfmvM/WQu0U8D6Sf3Noxr27uiH/BjFLC7K7+2BycvrW1OzsncX5heUiA3TjBtAy5EcwxwN6kBagO7n/hiBAl4gA7R2Cpl+YL78QoNEHy8cPHHh9JDnhaf9yA5c2LNehkSANmpWD7KWRywRWu+F2LSrIbUdGfZaRVy8BOljoVMXYTsLHwYPYqe5VlQJ08sdGtZw6JzGHZ6+5Qvhqo6iafRZ43vp+xhqnRX8i52dPoOvrf8kYGTHfQJgelDVAm11a2wJABTjpWUdFA7QpxW7tDQuvCdNh6DUPggpsArT2X1lurmgOA3HjqmTZbTM0NwJ0439GWgN07KJmZ/2weofPY++2v9Y37mvJlX+VmEUFWV65e3N8amr6zp25xWK/gXCl8UDevDkY0JuMAC0L25ZlAnSJCNDeIWj6hfnyCwEalRf0r0Yvsx43A7S5CPrQ6+0u1eyAHZFl/LezT0+OuwtlZNdnGXl1G6AbYgE61C4dFqE6ATr8GOhJGBlJ/iA0UqxNT3V4ds2J0tMW7inYecKJ7ckenTHnp4u4H4/EHzk8t8GaepIjwWomQAePw23L/bwBQC5OetZRkQD92mvfe/Gb+5794++9FggeR0n39179H+HCwPf++Nl933zxg3PnNCXfnfz1s/teePm1115+Ptz2uy8+9zt/EqbhIED/f/7+J7Lk2W+++L3XXn5h37Mvfve1Sz9/VQP0xMSEbPTCvnDj0E9+8pNgu9B/+T9+Z9/zjRdCd+/e1ZfOnTunby/a8J133tGXNs4dlvemP0BEX+oP+TeIxty19c0CL4Le3X0wNT0zMXk7vAF0cP+NwgJ0cPmz2Y+8eXM8oGdv/PT9gz88Pjo2k6sjy8qySSdXSediekEeBGhUBUHTL8yXXwjQKIdbufJw2lewq8YiZ7eN1GUlsB7ZEfm/NS4jcBr0/+NHbeqzjI70cpI0m0YVvjVAa0MMBEV+eXnBWhLq/URFqhKg9WSG/wWiEUnTS2i4svs50/0Ej8y8HHgp2E+B50rtxRmzWD97lJWbwldT/zuHJdw23E3jt08VfroAoBdOetZRyQD98gv7XjCXGE+e/L3f+719lhdefu3cuXP64oWf/L/CEGz6chigfye43jn0L//lv9T1xff++FnZ+Qc/fE6vUE4M0OGtogO/8zvPBXuzhAE6uPL593//9/VtROTtmc327zeLjGDf+j77ZnVtU3tugV/ot7j0uV7+XPz9NxpD3rY5GFAE/bJBHWZRB6JNRsdmzKIimF6QBwEaVUHQ9Avz5RcCNCorCIJBTwySWKNqWY+j9hoKA2sB7cuOyH85ZBaKqEF3Up9l9ElrgFYHji83W2pca6ruXTUC9KFDwaXN1o8VnZDE82BF2KboZAavHjgQXivdSYrNq2IB2j4N4RXiaZ+cFuGa+v9woJ+o4wV/rgCgEE561lHVe0DnEV4NbR6nCvaf9FWEtSL/BomqbiE34ri7ujY2Njl5aya8/Hmp2PtvREPetjkeUBC9nDlXStb1N4r7jzfK9II8CNCoCoKmX5gvvxCg0Tcjr8f61MihjJtm5A/QrddydsXpyE6D7rA+y8gpjIKZ+S7WCkPRSdAI2Hh58AJ08g/buBQ69uNaEdalUyFndaSsorq3Z8y+6lk/VMfMWUoQ/fjBmvZJtk9g4xOV9akDgD3ipGcdlQnQKMa9+9tadVdXN7e2emrQa2vrt27dnpi8PX177s5cWZc/yxs2xwPqyPSCPAjQqAqCpl+YL78QoNEfJgW29qmwGjeuo4wJXm0E6NCBY+H3oVnZq1GcwwQWSM/ZHXI6sgy7Qd+3btaXUZ9l5BC9+VZ6/4dUeiajk9CIgKruATqXpPtBpwRok1mDV4OzGn4+CzxVxl6csfAHDn877B9KA7T1A6ZeAR1u1fh1c1ZrfqLCE1fCNeMA0DUnPesgQNdP9G2Ed1c3ur4O+u7q2sTE9PjEtH3zjcIvf+a7B1F7phfkQYBGVRA0/cJ8+YUAjX7QxpoUtkyYTgjH0TWbVnQ2j8Oa1iAvaW8dcWtaN5yOrMNu0Cq7PsvoUOKPHy6MYp8Ra4WhjADdJIvDYmjp9TRZ9iRAt/6A7cQ/XeEnyDkJwT51zbCjhuc/XC/hw9mTPThjzZ+3pR2Hp9E+DWkBuuU8hFtZn0/7s5d0YgFgDznpWQcBun7k3x3RzaBX7sq/VO7t5vmKv52dneC+zzdvTUze1vo8N/95MTffCL51sDnkTcpbNUcFakpzQS4EaFQFQdMvzJdfCNAoXxilkuqzSmnQ4VZB5woeBElLK3YgDFwJ7bWxZovRN1/46jN/dGh01zzP5nTkaJyeNSuIQ5+6r8ZHJ5ohT9548/yEP3hwNoIH0fWkuQN02glvXbN3exagW89Y8ydynsma8YIcnmPrJETnPHrWCKzhK8Ve1dv/M9b88ISz35qS7c9CSoAOt7Lu4NF6Qlo/UbqCvVMA2ENOetZBgK4l+adHdB10mHo37t27L/88MS+n2N19sLxyd2p65ub41OStmenbc4XV5+X1leBBcw/y9qjPGASmF+RBgEZVEDT9wnz5hQCNkum1t216VBjCWkNhULXCL4J76YCdt5rCFTRP20HNbYW7o28UEaBlaIN+vYP6LCOX5YVjwU8RhL/wx9ECmND1YqfBnITGyuEXwckZaO2zrVp32zt/A3QLe53g1UaATkyuven7GWtmZacOxz4nyQE63Co4Ibq5ez5jn6hgt4V+xgCga0561kGArrHoftA6Vtc219Y3793b2t7ZlX+n6L9N5F8sW1vbq6vr8wtLt24F6VkvfL49M6/3fe6+Pi+vp23FfZ8xOEwvyIMAjaogaPqF+fILARpl0vrcbHkZNFo125bJiKYUJsQsba8jI4deTymtXXE6sjP+trP6LCO3sOIFovwXj6QtwlMSbaUa28bComWgA3TjnMaTtC1Yq+VDGxXYQvT7jIUzHgZ0/fFbT07L5yQxQEf/DWl55PUDCacu6RNV7BkDgK456VkHAbre5F8l0e04qjDkzchbMm8OGACmF+RBgEZVEDT9wnz5hQCN0uSozyFd38RBqxt2Fg0L4nTkrkdeydeWWsIVWiufqc9O+gsEZy9Twjbd8ipAdyQ8ewWeIVefz5h+tOTn0U+F9YOFv1ktJyf8HXROl37MMs5h0f9JAwAK5KRnHQToQSD/PLHvyLEnQ96AvA3zhoCBYXpBHgRoVAVB0y/Ml18I0ChJV5dAjhwyIas1IgoTWzvRUwr7X/7GTcldDNlJDmEGbPu2EwJ0utY+26roXDg+Pi6/9OZJV2Rz2Yl50pkyArT2WVXgDTfi+nzGwp8rPCEy9eGpsH5Sc6KsJbHf2fDzGf/AmP9kojo7wwDQf0561kGAHhzyvzG3d3Y3N7dW1zZXZMZjjbjYIYeQA8nh5KA9/u96wF+mF+RBgEZVEDT9wnz5hQCNKloo+MYanfuP7z39X193g3KuIZvLTjqj7Tke9xLkCtD9tLS0tLi42PW/smRD2Vx2Yp63YWp9V6pyR4j+njEAGGhOetZBgAaA8phekAcBGlVB0PQL8+UXAjTg+I/vdX8dtGzYcX2uj6WlpfHx8bGuyIYD2FI5YwDQH0561kGABoDymF6QBwEaVUHQ9Avz5RcCNAAAAGrJSc86CNAAUB7TC/IgQKMqCJp+Yb78QoAGAABALTnpWQcBGgDKY3pBHgRoVAVB0y/Ml18I0AAAAKglJz3rIEADQHlML8iDAI2qIGj6hfnyCwEaAAAAteSkZx0EaAAoj+kFeRCgURUETb8wX34hQAMAAKCWnPSsgwANAOUxvSAPAjSqgqDpF+bLLwRoAAAA1JKTnnUQoAGgPKYX5EGARlUQNP3CfPmFAA0AAIBactKzDgI0AJTH9II8CNCoCoKmX5gvvxCgAQAAUEtOetZBgAaA8phekAcBGlVB0PQL8+UXAjQAAABqyUnPOgjQAFAe0wvyIECjKgiafmG+/EKABgAAQC056VkHARoAymN6QR4EaFQFQdMvzJdfCNAAAACoJSc96yBAA0B5TC/IgwCNqiBo+oX58gsBGgAAALXkpGcdBGgAKI/pBXkQoFEVBE2/MF9+IUADAACglpz0rIMADQDlMb0gDwI0qoKg6Rfmyy8EaAAAANSSk551EKABoDymF+RBgEZVEDT9wnz5hQANAACAWnLSsw4CNACUx/SCPAjQqAqCpl+YL78QoAEAAFBLTnrWQYAGgPKYXpAHARpVQdD0C/PlFwI0AAAAaslJzzoI0ABQHtML8iBAoyoImn5hvvxCgAYAAEAtOelZBwEaAMpjekEeBGhUBUHTL8yXXwjQAAAAqCUnPesgQANAeUwvyIMAjaogaPqF+fILARoAAAC15KRnHQTovTB5cv/JSfO4SFPTc+cvXD19doTBqN+Qz7Z8ws1n3R+mF+RBgEZVEDT9wnz5hQANAACAWnLSs456BOjJE/v3HxneMM86N3ly//7D52LbBYvTA3G40fCqeaY2zh3O8QaCPXT3hrNcuTo+MTmzvb1rngP1Ip9t+YTL59w894TpBXkQoFEVBE2/MF9+IUADAACglpz0rKNKAXpj+EgQZjvQWodXhw/bi8KnSdxq3JqSreqcGaATW3O+AC3CBp0euXObmp6bmJwxT4D6ks+5X9dBm16QBwEaVUHQ9Avz5RcCNAAAAGrJSc86vLoCWq8cdrutG3+DAB1rzUkLW66btmN0VoAOKvnhcxvBQdsJd2Hec8e6jNLnL1zl2mcMAvmcy6fdPPGB6QV5EKBRFQRNvzBffiFAAwAAoJac9KzDmwBtQm6sLAcvmIVhFD452WmAbsnMLRU7I0An7tzZvEXGvmLyrOs4fXbEPALqzq9Pu+kFeRCgURUETb8wX34hQAMAAKCWnPSsw4sA3bjcOCHOBlcxn9DF5trkTq+Abu3P2Xf/aK6XEpoJ0EDfEKB9RYD2DkHTL8yXXwjQAAAAqCUnPeuofIBupOHEvBsU20ZWjupt0JoT2QFad9uovU75TQ3BwQuN3h2271Tu5o2GnibxcDkQoDE4CNC+IkB7h6DpF+bLLwRoAAAA1JKTnnVUPECbbttovq4wCEdMxO3kCmizodnCuow6lBagdSs7QCe+sbTNk4QVO/Zu8yNAY3AQoH1FgPYOQdMvzJdfCNAAAACoJSc96/AhQLePuZMnwptvqPYBOrrhRrjn8IrplmMkF+TGVl1dAZ2k9Srs3hCgMTgI0L4iQHuHoOkX5ssvBGgAAADUkpOedVQkQGfG3BTRTTlWhw/bN+hoF6BN1I4q8+rkyROt9/dICtDBVicm7aue7cctOroCusj6LAjQGBwEaF8RoL1D0PQL8+UXAjQAAABqyUnPOvy/Anpj+Ehrbm4XoCdPhHvMyMRJL02eCDYvKkAHP1fylxZ2iQCNwUGA9hUB2jsETb8wX34hQAMAAKCWnPSsw/cAHa7QFNyII2jNiVqrdCMTO3tI1ojFboBOZd5z5jopEqN2OwRoDI5OPu0bm1ujYzMyzPMOyMqz8yuyoXleENML8iBAoyoImn5hvvxCgAYAAEAtOelZh+cB2tyXuWWNdldAGzmvgFZcAQ3subaf9tGxmYM/PK7DLOpAtMnQhTGzqAimF+RBgEZVEDT9wnz5hQANAACAWnLSs456fAlhCwI0UGttP+3akfWKZrMoifOqPJVN3vjp+zLMoiKYXpAHARpVQdD0C/PlFwI0AAAAaslJzzpqEaDNddCBE5N9DdCpCNBAWbI/7RubWwd/ePytE2fN8xQaqeM33JANE5d3zfSCPAjQqAqCpl+YL78QoAEAAFBLTnrWUfEAHUbe9JgbZGXRWpZ9uAI62LaCAXrk4Fe+8tLRJfMMqKbsT/vs/ErbAK2ROvFKZw3Q2ZdO52J6QR4EaFQFQdMvzJdfCNAAAACoJSc966hIgH7N9t0Xn923LwjLocPnNk6dOmVeapAlZsuQWfryC/sazMahb3zjG2ap+OaL39PNrUxsNo+8/IJdkO2jv/z8vn3Pv3zqJ39hdh0ye7aYF8LEbG3+vRe/Gbwq70dejA5gXrSYF/IgQGNw9B6ghy6MyTqJ93omQJeIAO0dgqZfmC+/EKABAABQS0561lHFAB0yL4Q6DdAW80IoefNeAnTvR7eYpRbzQh4EaAyO3gO0rCAj8T4bBOgSEaC9Q9D0C/PlFwI0AAAAaslJzzoqfgsOdIgAjcHRY4DWy5/Tvmnw3VOXCNBlIUB7h6Dpl1Lna3FxcW5u7s6AkR9ZfnBzCopGgAYAAEAtOelZBwG6HhKT3Etf+cpBe3GzL68c/dOvNFjF2QrQK7946St/erQZ4ZaOtu7N3sPBy2Yh0A/ZAVoLcuLtNVT2CqNjM/KqrFPU9xCaXpAHARpVQYD2S6nzdefOHfNowJT3gxOgAQAAUEtOetZBgK6HxCQXNOLvN+Pw5e+bpyu/OBhF52BhVJA7DdCXg/V+YV5s2QNQvrQArV8tqPnYLIqJ1jHPk2ihllFIgza9IA8CNKqCAO0XAnQZCNAAAABALk561kGArofEJBdE5GYaDqpxywXRKijLjYugOwvQ7S6OBsqVEaDf+On7B8Orm9Pacfb9N5TeBlqGed4b0wvyIECjKgjQfiFAl4EADQAAAOTipGcdBOh6SElyVnQO4nLzOuXwsuUma532AdrZVhGg0TdpAVrp9cujYzPmeauoUJvnMVqoM66hzsv0gjwI0KgKArRfCNBlIEADAAAAuTjpWQcBuh7SklwQi4PbbgS3bG7cNCOo0s0YbV+/3HmAtu7sAfRZdoDWLyFMLMh6/41OLn/mSwhLUWqAXl5e3hxI8oObU1CC8oIm81UGAnQujx49ch4kIkADAAAAuTjpWQcBuh5Sk5xe+Bzk44T7bASCpykB2r6zsxWg3ZeA/uokQL914qx5btGrmzMufxYE6BKVGqDlxJlHA6bUH7y8oMl8lWGvAvSDBw/W1taePHlinlvu37+/urpqnuS3vr6+tVXMF8Ladnd35Y2dO3dOHgh5IE/lgXm5FQEaAAAAyMVJzzqqGaA3zh3eHzg5aRagjfQkF1z7fPD7B5vXLNuXPJuroRMCtK7WuGg62ElztfAl6yLoywfta6WBknUdoGV527hMgC4RAbpHWpSczFfqD06A7kWd5kukddjx8fGRkRH589y5c3fv3jVLG+bn52/cuGGepJPN5VyZJ5Zbt24tLi6aJw337t2LL+zcgwcPzpw5Mzk5efbs2amQPJCnslBeMitZCNAAAABALk561lGhAD15MozOqpmeGzG66fC5+v+7Na+MJBdesBwV54AuCenF0UkBumW1l46O2NlamHId4mpo9FV3AbqT+28IAnSJ+hag19bWxsfHt7a2ZOEXYQHUFiMPdImsEy2JHit5uh1aXV3Vp527f//+9PT00tKS7Dba8/Ly8s7Ojj4W8SMKeauy7d27d+VxsKMkm5ubExMTY2NjV65csYuY/YMXrj8BupP5EtFCeRytI/TVLnQyX0Jfkj/N886OWLP5Eokd9vHjx6dOnVpfX5fH8iszNzcnD+STfO3atdnZWTlpUYCWhdevX5+ZmdHzKU9HR0enpqZkD7LwzJkz8hnQl8SDBw/kqZxA+XNxcfHRo0e3bt2S9VdWVmR2rl69euHCBVku68u2cix9Ax2SnX/yySfyp0MXmpUsBGgAAAAgFyc966hYgE645DkI0EeGG/9g2xg+QoBOkJ3kgDrpOkDLwrZlmQBdor4F6KmpqaWlJVly4cKFu3fvLiwsfP7556Ojo8vLy7Ik6DSPHt2+ffvmzZu3bt1aXV29c+fOzMyMbCV/yvqyXBaOhcweU9y7d88+ru5qfX39+vXrsv/d3d3p6enPPvvs/v37X3zxhTyWHcoRNzc3Z2dn5akcTh7Iu7px48bKyor8OTExYfYVIz/C3NycvtXJyeb/rrTfQOH6E6DbzpeQV+Vcyc8+Pz8vZ1hOr54NWd/spQOdz9eTJ0/kVXljchQ5ojyWFeSNdX7Ems2XkJ/FPGo1Pj4+PDws53BtbU2eyg946dIl+ZDLp11+lTRAb29vX758WV6SJUIeXLx4Uf6Uba9du7a1tXX+/Hl5GgVTmQU97adPn15cXJRzLidTZuqjjz6S1eSx7HNnZ0dWk18oWSKfEzmEbtvWg/AKaPk4ObgCGgAAACiEk551EKDrgQCNwdH20/7GT98/+MPjo2MzuTqyrCybdHKVdC6mF+RBgO6GnDjzKOyMn3/++dTU1JUrV9bW1uSBuHw5+P/VkCVffPHFw4cPV1dXp6enV1ZWbt++LevI+p999tmDBw/u3LkzPz8ve5MlV69e1R06ZA/aScWtW7eeNC7b1P1sbW1du3ZNv25ubm5OjqIBWl4aGxuTIy4uLspLsq2sJu9EHszOzsq2S0tLGclbNjGPnj617z9g/+CFk/dsHhUt13w9fvxYTtH4+PiNGzfkhMuPf/PmTTl7cnrlJd1Jhu7mS48o5M3IcnkgB5WF2V9YF6nZfImMDitnT07s0NCQ/DbJCfz000/ldMmvz6VLlzRAz8zMXLx4URbKqZY5lVMq65uNQxcuXJBzbp48fTo8PKznWTaRs7e9vT05OSmPP/roo/X1df1vA7LCmTNnZIeyXDbv/GeXX3PZv3likYUEaAAAAKB3TnrWUf0APXli//4T0WICdDICNAZH20+7ftmgDrOoA9Emo2MzZlERTC/IgwDdDTlx5lF4ZevExMS9e/eWlpa0bMqS+fl5eWlhYWFnZ+fx48fb29t3797d2tra3Nycm5tbXFyUNWX5+vr62tqa7O3+/fuysu6wQ7LJdHhLB9mbHEUOIXuQnT948OCLL77QzCpHlNX0iPIG5IhyLHl78qeuYPYVIy/Jj6DseGf/4IXLeD89yjVf8mBycvLhw4cyNTMzM3IO5TzLCZSd9JLYMuZLXpWXHj16JEe8ffu2rCnvStaUp1G/zlaz+RKJHXZ3d/fy5cvyMZbHchovXbo0Ozs7NjYmkyWnUV6VH//GjRvy582bN3WhnGpZR57KJvJY33M8QMvK8kB2KLu9evWq/LLIkihA639IOHv27MrKiiyX/eh76IS8BwI0AAAAUB4nPeuo6j2gA2FodrI0AToZARqDo5NPu17OnCsl6/obm1vmeUFML8iDAN0NOXHmUU198cUXjxrs1lbqD15e0Mz1tp88ebKe5ya/hejxiDWbL5HYYWVqrl+/PjIycvPmzfPnzy8tLcnPe+nSpRs3bly8eHEuvIGJPJazcfnyZVnzwoULsh85IbKOPP30009lBdmPPL127Vp0omZnZ2VzWSL7XFxcvH37tmwuTz/++GOZl+3t7eHhYdlQXpLVZP/yBhLbcSICNAAAAFAqJz3rqPgV0MHlz837bwSa30nYvCwaBGgMEL8+7aYX5EGA7oacOPNowJT6g1ckQNeJp/MlMjrsgwcPNjc3n1jXhssS+6l6+PChvdB5amd6IS/Zrz569Mh++oX1fZ67u7u6sENy3KGhofMxslBeMitZCNAAAABALk561lHlAB225oSbciCOAI3BQYD2VakBenl5eXMg2fcaLlx5QZP5KsNeBWjvPExhXm5FgAYAAABycdKzjmpfAR27K4dxeHjVrAFFgMbgIED7qtQAjTKUGjRROAJ0GQjQAAAAQC5OetZR5XtABzV6dfiwk5uT7tQBAjQGBwHaVwRo7xCg/UKALgMBGgAAAMjFSc86Kn4PaPk/zFu/dZAvIUxGgMbgIED7igDtHQK0XwjQZSBAAwAAALk46VlH5QO0LjcXQce/kxCKAI3BQYD2FQHaOwRovxCgy0CABgAAAHJx0rMODwJ0eNXz/iPDk3wnYToCNAYHAdpXBGjvEKD9Uup8LS4uzs3N3Rkw8iPLD25OQdEI0EAu6+vrt27dunTp0tmzZz/88MPftvqgHKdOnRoaGrp8+fLU1JS8AfNWAABAJic966hegA7+R0OUm3Uh3z2Y6vyFq9vbu+YJUF/yOZdPu3niA9ML8iBAoyoI0H5hvvxCgAY6dPv27U8++cSU5nZMOS7H8PDwzMyMeVsAACCFk551VCRAbwRXN6v4Nc5an0+ePJH8MsTU9NzEJP/nEOpPPufyaTdPfGB6QR4EaFQFQdMvzJdfCNBAWwsLC2fPnjVp+be/fb/hNw3m+fvvmzUaTDAux9DQUHn/vxEAANSAk551VCRAvyZefmHfvhdeDh4FdHlw0+f95lsHg6XBOsKsputAXbk6PjE5w3XQqCv5bMsnXD7n5rknTC/IgwCNqiBo+oX58gsBGsggH+Dr169rTX4/LM6nPjp17fq1xcXFra0t+bDLOvKnPJYlslxe1R6tmygTjMtx48YNfasAAMDhpGcd1Q3Qet3zieYFz+YFoRn6+ZfNC2iYmp47f+Hq6bMjDEb9hny2/br2WZlekAcBGlVB0PQL8+UXAjSQRj7Dly5d+m0jPX/08Uezs7PmtXSyjqzpZGhTi8tx+fJlftEAAIhz0rOOCt0DGgBqx/SCPAjQqAqCpl+YL78QoIFE8tGN6vOvf/Pra9evyUfbvNaOrCnry1b9bNDm2AAAoMFJzzoI0ABQHtML8iBAoyoImn5hvvxCgEaFLR976ZlnXjq2bJ5mCNcUr4+YBb2Rz63eeeM3v/nNr3/z66npKfNCHrKVbCt70AAtTC0uB/fiAADA4aRnHQRoACiP6QV5EKBRFQRNvzBffiFAozSNKNw5tzWHe7Cb8sKxA2bVBAeOLz8dGem9QMuHdmFh4be91WfV5wbNdxICAGBz0rMOAjQAlMf0gjwI0KgKgqZfmC+/EKBRDSOHnokH6GBhkJUjYYC2lsRW6Jl+aM+cOaP1+eroVfNCt2QPfWvQQ0ND5qgAAIAADQB9Z3pBHgRoVAVB0y/Ml18I0KiGpAAd5uZD9iXNboCOXSLdM/nETk9P632fT310Sj7O5oVuyR5kP7K36H7QphaXY2ZmxhwYAICB56RnHQRoACiP6QV5EKBRFQRNvzBffiFAoxpaA3TSrTaC7px5C46GlmSdi35ih4aGfv2bX7/73ru3Z26bF3oj+5G99adBDw8Pm6MCADDwnPSsgwANAOUxvSAPAjSqgqDpF+bLLwRolCnMyh1doZxwBfTI69GSxq023CugzXaZyXn0zRe++szvHhzZNc8zyMd1dXVVb77x/m/fN0uLIHuTfUY34jC1uBzr6+vmqAAADDYnPesgQANAeUwvyIMAjaogaPqF+fILARpl6iVA27fXSA/QziHCFVp7dKcBWj+uExMTevnzZ1c/My8UQfbWt4ugp6a6/9ZEAADqxEnPOgjQAFAe0wvyIECjKgiafmG+/EKARpl6CdCN6CyirGwH6HAL2fny8WDZsYVgWbhC43FO8lmVD+3Fixd//Ztfv/PuO3Pz8+aFIsjeZJ/9uQj68uXL5qgAAAw2Jz3rIEADQHlML8iDAI2qIGj6hfnyCwEaZdJI3DE7QNvXMoe7CR7b+7NWDm7WEa4QxOiWip2DBujTZ06/+967v3znl/fuF/nvSdmb7FP2/Jv3Sw/QQ0ND5qgAAAw2Jz3rIEADQHlML8iDAI2qIGj6hfnyCwEaZQqDcVdXQIfXNZv+HF3jbC90hcG6eSl0TvpZlQ/v+799/5133zn5q5Py2LxWBNmb7FMvgi77LhynTp0yRwUAYLA56VkHARoAymN6QR4EaFQFQdMvzJdfCNAoU+cB2mV9A6Fe4JzSnQsiH1T5xMqHV++/ceKXJ80LxZF99idAC3NIAAAGm5OedRCgAaA8phfkQYBGVRA0/cJ8+YUAjTJ1HaDDbyA00dn+NkJzt41Uvd1/Qz68v3n/N79651fHT56Qx+a1IsjeZJ+yZ66ABgCgb5z0rIMADQDlMb0gDwI0qoKg6Rfmyy8EaJQpd4AO+nJLaz5wbMS6GbRZmHw1dPBSbwH60aNHH3380a/e+dWxE8fv3Sv0HtD37sk+Zc/v/fq9sr+HkHtAAwCgnPSsgwANAOUxvSAPAjSqgqDpF+bLLwRolClvgLYvfA6EN31uWVJ2gD7/6flfvRsE6Nk7d8xrRZC9BQH63X4E6MuXL5ujAgAw2Jz0rIMADQDlMb0gDwI0qoKg6Rfmyy8EaJQpb4AO13e/ijBw4LhZFgbodAkBevTNF776zB8dGt01zxNFAXrs5pheAX3xUudvuz3ZW9+ugJ6amjJHBQBgsDnpWQcBGgDKY3pBHgRoVAVB0y/Ml18I0ChTzgC9ENxtI2rNzc3D/6n7yX0F9O7oGx0HaPnwfr78+a/Ce0Cf/NUvzWtFkL317R7Q6+vr5qgAAAw2Jz3rIEADQHlML8iDAI2qIGj6hfnyCwEaZdJbahw4tmCeZ3JWbr0dR9ig5Umpt+CQD698kE99dOrEL0/+87GjE5MT5uXeyH5kb7LPd959p+wAPTw8bI4KAMDAc9KzDgI0AJTH9II8CNCoCoKmX5gvvxCgUTK9erlDzVQdhuaEch0uT9dDgBby4X346OHN8Zsnf3Xy6PFfnHznl7LErNEt2YPsJ9jbr/oRoGdmZsyBAQAYeE561kGABoDymF6QBwEaVUHQ9Avz5RcCNKooqNbplzmXcAW0kM+qfGgfPX60s7vz2w9/e+zE8Z//4p/PX/zUvNwt2YPsR/b2y3d++e577/7m/RJvAD00NGSOCgAACNAA0HemF+RBgEZVEDT9wnz5hQANKBOgHz2Sz/LU9JTeheOtf377+tgNs0Z+sq3swb7/RqnfQLi4uGgODAAACNADYGp67vyFq6fPjgzIkB9WfmTzwwOVZHpBHgRoVAVB0y/Ml18I0IDSj6t8fh8+erizu3Px0kW9CPoff/ZP18eum5XykK1kW/vy51Lvv3HjRvehHACAWnLSsw4CdG1cuTo+MTmzvZ35TdP1Ij+s/Mjyg5vnQPWYXpAHARpVQdD0C/PlFwI0EJGPq3xu9SLore2ts58MHT3+i7f/+Wf/+LN/Gv703KPHj8x67ciasr5sJduGd3/+ZdmXP1++fNkcGwAANDjpWQcBuh6mpucmJgf0qy/kB+c6aFSW6QV5EKBRFQRNvzBffiFAAxH9xEYXQd/bunf67JmoQR898Yux8TGzajpZR9aM6vPxkyd+9e6vSr38+fLly/yiAQAQ56RnHQToejh/4epAXftskx9cfnzzBKgY0wvyIECjKgiafmG+/EKABmzyiZWPrt2gz316PmrQP3nrp28dffuT859M3Z5a39jQa6LlT3ksS2S5vCrr2PW57JtvcOcNAADSOOlZBwG6Hk6fTfxS6kEx4D8+qsz0gjwI0KgKgqZfmC+/EKABm35o5dOrN+LY3tm+t3VvbPzmr9575+e/+Oe3/vltzdA/fusn/9c//fjNf/y/dMhjWaLpWdaRNaP67Nx8Q5hy3LOhoSG+dRAAgAxOetZBgK4HArR5BFSM6QV5EKBRFQRNvzBffiFAAw793EYNemd35/72/Y17m1eufvbOr9/9+S/++e1//tk//fytf/zZP9lDlshyefWfjx09duL4yV/9MrrzRuH1eXh4eGZmQG96CABA55z0rIMAXQ8EaPMIqBjTC/IgQKMqCJp+Yb78QoAG4vSjqw1a78Wxtb11b+ve+ubG9Mzti5dHPvz41C/f/dXR47/4+S/+WaOzDHl67MTxE788qRc+F1ifT506NTQ0dPny5ampqfX1dfMuAQBAJic96yBA1wMB2jwCKsb0gjwI0KgKgqZfmC+/EKCBRPrplY+xfKIfPnqol0Jrht64t7G+ubG2sb66vqZDHssSWS6vyjqypqwvW+lvg+7K7BcAAPSLk551EKDrgQBtHgEVY3pBHgRoVAVB0y/Ml18I0EAa/QBrg9ZLoTVDb+9sb21v3d+6Hwz5PQgfyBJZHqVnWZ/6DADA3nLSsw4CdD0QoM0joGJML8iDAI2qIGj6hfnyCwEayKCfYRFl6EePTYmWIR98Hfo06M66ipWehdkXAADoLyc96yBA1wMB2jwCKsb0gjwI0KgKgqZfmC+/EKCBtvSTLIKPdliiVRCbQ+a5fvZJzwAAVIOTnnUQoOuBAG0eAaGNza3RsRkZ5nkHZOXZ+RXZ0DwviOkFeRCgURUETb8wX34hQAMd0s+zCj7jMea1kNkGAADsHSc96yBA1wMB2jwCwpR88IfHdZhFHYg2GbowZhYVwfSCPAjQqAqCpl+YL78QoIG89IOdyKwBAAAqwEnPOgjQmSZP7t9/ctI8sU2e2H/43IZ50iJpk9Xhwyn7KUpGgV35xUtf+crBy+bZ08vf/8pXvh8961Swk/xb5bFy9E+/8tIvVswzI3FhAgI0bNqR9YpmsyiJ86o8lU3e+On7MsyiIphekAcBGlVB0PQL8+UXAjQAAABqyUnPOgjQWYJwnNyf08J04kuTJ/bvPzKcmKtVsEIrrdvx5ftPJB81vcC6DdcO0MFj258eTct1YcVuW66DY7V10H6nS0dfMnG8+T6t2H354FdeOroUPsxEgEZkY3Pr4A+Pv3XirHmeQiN1/IYbsmHi8q6ZXpAHARpVQdD0C/PlFwI0AAAAaslJzzoI0KGN4SMJbXfj3OHk4BuE6cPDq+ZZq1iADi9/drX26CA0Nw8UvJlmgLbegPPUllpgRw7alz8LN0Cbx2E71sfBJjm0BOVUjTbtJOyllRU5XBC+TYAO3pI8leXyauzNpyFAIzI7v9I2QGukTrzSWQN09qXTuZhekAcBGlVB0PQL8+UXAjQAAABqyUnPOgjQAW3EzbYbROS4w+cmg06dxLodhxOgg5oc79HO7TtKC9DNy4qbCTjyp0ePRgE6uBK5ca1xx9k3vEK5bYCOjpu9T/utGu4F2oHkC6IJ0Ih0EqCHLozJOon3eiZAl4gA7R2Cpl+YL78QoAEAAFBLTnrWQYAOuAE6FCxMvs3GZPINoJ1sHVwiHUvGyZdaB6u1agZoR64AbS4u1htomHSbeAW0vbDLAN1I2LIrK0mb+txYcvlgcHVzFLtjTTwSvO3W+29kvisCNCKdBGhZQUbifTYI0CUiQHuHoOkX5ssvBGgAAADUkpOedVQtQLck1yi2hmnXbb7OwpY7XbTcHyPcpywJ468RrWAvVCY6m/tvOBc0B2IXNbewNohtG7yTpJtBB8ubZbmoK6CjOhx03igKJwRo+/LnrpmdBAcNmEPY1zXrSy8dHUk4XPBO5DXrCmi963T0toOnYUxPRIBGpG2A1suf075p8N1TlwjQZSFAe4eg6Rfmyy8EaAAAANSSk551VClAawtuFNuWq5LD2By/b3LUkVtjdMtL5mmgsWs9kBWpE66AblTmeIAOVra2dUUb6FEytO7WYV1/HaTwNmunBmgjTLcaeZu+f1kDdLg8urg4/arkNNqFrYptvrEwWN4I0MGrCWuG9IgvvaTHNZXZvPmWAB1dox1DgEZEC3Li7TVU9gqjYzPyqqxT1PcQml6QBwEaVUHQ9Avz5RcCNAAAAGrJSc86qhOgw8zaEnbt8Oo0Ze28jSQdPm7Jx/arJkC3XEAdvu5ePW3vIeq/UU9u7CdF9N6sDXSTxm5bvtKw090minbflF5gWy5/Fuaq55bHmoBz36O5hZOVzd0/rABtynLrms0wbdYM3pI8lc3DMh4d0X4cR4CG0K8W1HxsFsVE65jnSbRQyyikQZtekAcBGlVB0PQL8+UXAjQAAABqyUnPOioToMMk3BKRzTKTie3HIkzGGmLj5VqW2RdTx+J1rDjHAnQzHLf05IC81NKyXeEGJ8xWnQTouPANn5wMf+TUlVqlFtiw5JrHocsJATp4GFxx3LJmsMRqvjkDtJG0VbRmWJ8bcby5prwrXWjddiN4M3ZGdxCgITY2t9746fsHw6ub09px9v03lN4GWoZ53hvTC/IgQKMqCJp+Yb78QoAGAABALTnpWUdVArQm4CSN2hs25cZFzWF0tvtyInuFXAE6+e4Z4TvJLMfRho1d5Q/QYXVuvBb+mBmHa0opsCtH/zRIvUFoblyAnBKgY9/y11KHRa4AHawc+P7RYKvvHwxvydHYWzxVB4dO6svBmuFbim/SigCNiF6/PDo2Y563igq1eR6jhTrjGuq8TC/IgwCNqiBo+oX58gsBGgAAALXkpGcd1QrQzQScwLrSOey8duR1r4BukT9AW5xSHKyZEoSDl+QoLRvYAdp+nBCgTXmOfUuhvrd2GTqxwJp7MZu224jCTQcP2gE6qr0qiMJ2841vHmrZXNZvrGZ6dzNbN97MwcvNmmzdpbpFdFxz4bN1KXQyAjQi+iWEiQVZ77/RyeXPfAlhKQjQ3iFo+oX58gsBGgAAALXkpGcd1boFh9NeHWGKDS5DNqnXLG57mXABATpaIcrErayjN9JyypqOkxfDPYcy7+xhX5SdUNsTC2x0Lwtb2hXQYSBuBujgJbtHd3QFtMrYKrytR3BBdDNtBwey43Lrhdjhqy/JnrMOTYCGRQP0WyfOmucWvbo54/JnQYAuEQHaOwRNvzBffiFAAwAAoJac9KyjOl9C2PZCZhNhjwxPnjvckqoz8nGofYDWWuzsQddRqWXcvCXr1UaAdujeUvYTvsMWGqPjy9N+zI4LbMvNlMMAfTC6DNmq1ebaZCv7dhKg7SumVcvhDHtNzdbRZdR6nXXzadS17aidgACNSEaAluVt4zIBukQEaO8QNP3CfPmFAA0AAIBactKzjuoE6EbwteKtLHGKbVB3Dx8+4l4srKHWXihLoh11EKD1+uLGFnYsdnpy+AYau0rK1skB2twzZOPc4cTLnIN32PpmmgHa2r/z1JZdYKOrm53LjcMAnZR29TLkllsz5wrQpl8H4rfOaAnQK5ejW3PIU/e+H1GAjqftFgRoRNICdCf33xAE6BIRoL1D0PQL8+UXAjQAAABqyUnPOioUoAMaghsSrhcOm2/ihdL6SoOdgDsI0FH+Fq31uLUnb6xuhHszkmpyPEC3XCUtm8e3ai3LBQbo8ILixoXMQW5uLbkpAdpqzWGDDiNyd1dAJ0laM3xvgdZDhCE7/CZD7gGNDmUEaFnYtiwToEtEgPYOQdMvzJdfCNAAAACoJSc966hIgH4txrzw9OmpU6fMogZZYl7rw4Yvv7Bv3ws/iW348vP7Qs+++F1nw3CDl3Wt137y59+IOrVZZLYNVtGthKymu4u8fOSXslxjt1mkng92rVvZkgrs5YN25w2yr3sji8QA7dwMWkR1OEW4srlUuUNOgLaumG4eOlyo3TnceUb+JkDD9sZP3z/4w+OjYzO5OrKsLJt0cpV0LqYX5EGARlUQNP3CfPmFAA0AAIBactKzDgJ0xLzQWYBWmpLNNcmrwy9/QztyEJe1UGtHVmYbI9hvdF12EKDDshz63ovftAL0iUmzWPeZI0B3pfMLmbvWcohGeo46uN79Q3O2fdVzZoMmQMOmXzaowyzqQLTJ6NiMWVQE0wvyIECjKgiafmG+/EKABgAAQC056VlHxW7BgS55WWC1MifcAySo0gmtOT2OE6Dh0MuZc6VkXX9jc8s8L4jpBXkQoFEVBE2/MF9+IUADAACglpz0rIMAXQ8DXmAJ0Kgs0wvyIEDX0I0bN1555ZXt7W3z3BMVDJqnT5/++te/vrKS4/Y6XZD9v/jii2UfpXD9n683Q+ZJK1ku5zDtM5/96oAgQAMAAKCWnPSsgwBdDwRo8wioGNML8iBA98/p06e/1I6sY9YOu+TXv/5180I7X/7yl2/cuKEbzs7OPvfcc7pke3v7xRdfNCvF2FvtuaoFaD11r776qnneTvapjovmWib6lVdeiZbIEXWFRPYnZG/tSYC2z4CecE3SHQZo3UTPZCL79Orhsjm/QfL4a1/7WrTEfhrfW+cfrUIQoAEAAFBLTnrWQYCuBwK0eQRUjOkFeRCg++f06dMZwVdzs92/dIn2tS7IhtmFy4lle65qAVrmwpTCdnSONG52XRXlcBkJVcQ/IXtrT+ZLTnV0TbqTdzsJ0PpU5ii+sqzj/HrGlzic3+iM/3IguxLOexD6uD8I0AAAAKglJz3rIEDXAwHaPAIqxvSCPAjQ/ePkKkd2gH711VcTy6PszbnbhtO5Msi2BOg0ibU3OwHLOZczr1Ux7I0J/+VA9iDryJ/mefipiIpqtuyj99+ezJeeZD0JcqpN301i513nl0LPpD1BskPZxDm3skKuAC2c3yn7qfMe5O3Z77APCNAAAACoJSc96yBA1wMB2jwCKsb0gjwI0P0Tz1W2eF6MMtn29vZf//Vff6lxpW1EV3D26XSuDHYdq4JKBejEPpidgLWN6lYyC04DFbqCEzrlsexT9myep8s+ev/t7XzJ51Y++dHZSPvYyxTICY9Evyy6uT1Zzi+XkCUZv7BCju6sII8J0AAAAEA/OelZBwG6HgjQ5hFQMaYX5EGA7p/TXd0DOupiunkUrbRmxtul3bnkse7WZjc4AnQiOW+JUTg7AeuMRBMkJ1ZOtdMc40FT9hYdK+0TokfMPnr/7e18yRzZAdf+2Mclvqrn0z7DDtmqiwAtS3SfKlpB9mYWNRCgAQAAgN456VkHAboeCNDmEVAxphfkQYDun3iussXzoi55M3ajAE1pr776ahQubXZri3c3OXoUne3HVVCRAC2nS06anGo9252QNaMN7aoo51ZmXKcprWbKttE82o+VfgZ0//bjKujzfMmJ1bOd2G3jH3Wb86qeSd1bJL7btCmLyFw4K8hjroAGAAAA+slJzzoI0PVw/sLV7e1d82TAyA8uP755AlSM6QV5EKD7J56rbPG8qEvebL0zgGwuO/mSdWWlw+5cTvMSdhGzH1dBRQJ0ROZCzr/MgnneLgHLeZaz7VRFu3UmbmgfJfuI2Ufvvz2ZL+228qHV34Js0bmKfhGi6XCmScg6ulX0GycPMn5hhezfWcH5nbKfOr+M+oPo4/4gQAMAAKCWnPSsgwBdD1PTcxOTM+bJgJEfXH588wSoGNML8iBA9088V9nieVGXRDks8mp4KahTliN255LH2tRs0Xuw61gV1DJAC50FZ1cR+yjyWOfIoUfMPnr/7WGANk9az0nG51l/Kd577z1ndrJPaeKvjyMeoGWJeS0UrWD/YgrnB+kDAjQAAABqyUnPOgjQtXHl6vjE5MxAXQctP6z8yPKDm+dA9ZhekAcBun9Ox4KmLd7CdMmbrQH61bA+65+JDdruXE7zEnaksx9XQS0DtEbMV1555cuNe3GYFxrso2QfMfvo/edLgJZXgxKcdNVz9imVuXP6skM2jAdo+z3YT5137jztAwI0AAAAaslJzzoI0HUyNT13/sLV02dHBmTID8u1z6g40wvyIED3j7bIbHYL0zomW+lT7ZvROprV4g3ajs72Y2UXMftxFdQvQMtjmSOdQTnPiQ3aPkr2EbOP3n9VCNByNqIEbH+e9Vy9//77OiPOL0Xwm5bC/n2RNYsN0OYYDfYP0gcEaAAAANSSk551EKABoDymF+RBgO6fV1991cnBtnhe1CWaL/WxU7s0pTn7dFqb86pdxOzHVVCRAC0nRM6zJsLOycTJeZazrVVRH+ty3a2Qx7JE5lFm0ywiQOckp1fPsNATEn3CMz7b8V8ElX1KZavOA3Q044mOHDkir8oOdUNh/yD9QYAGAABALTnpWQcBGgDKY3pBHgToPtE+ZRcoR7yF6RLZRBZ+KeVbB+VVecmOa7IkeqqvOqL9yJ8E6Fyye6VO8avWV+TF19SplJ3IrqIl0VN9NU73k330/tvbAK2fbftM2p9n+6wK+5fCln1KZavOA3Q2/UjYB4p+kL4hQAMAAKCWnPSsgwANAOUxvSAPAnSftG1V8RamS958880jR4688sor8XymXn311aNHj6YF6MTupuTNEKBzye6Vcp41QL/33nvPPfdcVD8dOqHRq7K3KJXaj+Oyj95//Z+v6AzrqYgHXFmiyV7IeTZLrV8EeWBeThftVlbuIkDLQj2W/ars05lZWRIdqD8I0AAAAKglJz3rIEADQHlML8iDAN0PGs40S5lFMfG8qEvsjtaJqLWZ5+kI0HllJ2Cd5bxVUfbmpMk02Ufvvz7Pl57eL6X8vwJkS/ulyD6leQN09A6j/yAkL8kK8pGQhc4vctifCdAAAABAr5z0rIMADQDlMb0gDwJ0P7QtWcKJWULrWHBNZme0cKW1tjg5FgE6l04CtJmMDmh/lL0RoNvSc6snSj7hcvZynYe0X4rsU6oHyhb9zuo7TDyKTLT+bopon23/QigcARoAAAC15KRnHQRoACiP6QV5EKBLt729/dd//ddRgbJptNIgJRLXyUt2kljBlBY3c7yCjlgU3wN0d7IDtPMJ6fM1s9n6PF9Hjx6Niq3zMU4jH28RPdZtbW0DdHYmlg3735G7RoAGAABALTnpWQcBGgDKY3pBHgRoVEX1AzRszJdfCNAAAACoJSc96yBAA0B5TC/IgwCNqiBo+oX58gsBGgAAALXkpGcdBGgAKI/pBXkQoFEVBE2/MF9+IUADjqWlpfHx8TEMJJl6+QCYjwIAwHNOetZBgAaA8phekAcBGlVB0PQL8+UXAjRgW1paWlxclE+xeY4BI1MvHwAaNADUg5OedRCgAaA8phfkQYBGVRA0/cJ8+YUADdjGx8epzwNOPgDyMTBPAAA+c9KzDgI0AJTH9II8CNCoCoKmX5gvvxCgAdvY2Jh5hAHGxwAA6sFJzzoI0ABQHtML8iBAoyoImn5hvvxCgAZslEcIPgYAUA9OetZBgAaA8phekAcBGlVB0PQL8+UXAjRgozxC8DEAgHpw0rMOAjQAlMf0gjwI0KgKgqZfmC+/EKABG+URgo8BANSDk551EKABoDymF+RBgEZVEDT9wnz5hQAN2CiPEHwMAKAenPSsgwANAOUxvSAPAjSqgqDpF+bLLwRowEZ5hOBjAAD14KRnHQRoACiP6QV5EKBRFQRNvzBffiFAAzbKIwQfAwCoByc96yg8QE9MzzEYDAZDh+kFeRCgURUETb8wX34hQAM2yiMEHwMAqAcnPesoPEBv3ttiMBgMhg7TC/IgQKMqCJp+Yb78QoAGbJRHCD4GAFAPTnrWQYBmMBiM8obpBXkQoFEVBE2/MF9+IUADNsojBB8DAKgHJz3rIEAzGAxGecP0gjwI0KgKgqZfmC+/EKAH0sihZ545NGKewEZ59MXOzs5UaGRkZCh0/fr1hYWFtbU1s0YP+BgAQD046VkHAZrBYDDKG6YX5EGARlUQNP3CfPmFAD2Igv78zDMvHVs2z7MsHz/Q4Zo9Cd9SvIn36egWyqMXpqamPrAMDQ2ZRyF51azXLT4GAFAPTnrWQYBmMBiM8obpBXkQoFEVBE2/MF9+IUAPppHXgwTdwUXQyyOvHwhWfeaZA8eDDqwbZjpwbEG3zSM5QLtHD3p0G10d3UJ5rLidnR3NzfLn1NRUdL2zLBcLCwvRq71cCs3HAADqwUnPOgjQDAaDUd4wvSAPAjSqgqDpF+bLLwToOtMrnfOLh+BjLz1z4PWRtlcih4G4kYATj/56SvNOuQI61OnRw53sbYB+tHrr6vmhU+FluB98cOrUmeErt9YemRc7sHrtjGx35tqqeb5X7k0Mf/jBB2dv7PX7cK2trempzbjGeSe8NYes00uDJkADQD046VkHAZrBYDDKG6YX5EGARlUQNP3CfPmFAF1nWVU3hb3JwrEgJ4eXHrcKinDinTFiAdrOweGuOw/QqUdP5x6xGz2Ux53pix9rHnUMXV95YtZpgwCdbWRkRM5PJ1l5Z2cnOPNDQ+Z5TgRoAKgHJz3rIEAzGAxGecP0gjwI0KgKgqZfmC+/EKDrLLnq2gvCi4vtyGtvUk6A7vQmHr4F6AeT54PY/NHwtbmNB2FvfvJgY3H8QtikP77a2d+LxQdo3eOFafM0iVnltnlaWXpdc/zaZ70sOl6ldf3r16+b53kQoAGgHpz0rIMAzWAwGOUN0wvyIECjKgiafmG+/EKAHhzRDZSbBTpswqGkblupK6Cbb9XV+uPEf5DRN1/46jO/e3Bk1zzP1nV5nL7wgRieeGCeNyx+FiToM9c7asoE6DQZVzSnBWjZpPMrph0EaACoByc96yBAMxgMRnnD9II8CNCoCoKmX5gvvxCgB0IYcwOJ/Td61WnKlQvQsbgcrlOpAN1Jxn20duvK8Md6o+hTp4evTG9EN+hICtCPVmX102b1j1tWDz3Zmr9xYeij8HVZI7jt9Gp422l9R5Z42L6dtkq4bbS+rnZhWt75JXOH61Mfn7/xeXCYJxvTl8zRPzw1NGKOHcn4YXNZWFiQPcif5rklLUALfSlxq2wEaACoByc96yBAMxgMRnnD9II8CNCoCoKmX5gvvxCg6y6MxYF4mW0R3Rmj2XObCTjaSYZgu04DtDx0+nX4YjkBOp+uy+O9G0NBZD17df5+VmLdua035Wgx1LjZcixAJ91X+sNo9adPn6zoYR1nrq08KTxAnzkTvDnbJzdmwjfc4tzEjm7V7ofN5fr167Ltzk6076aMAK3XTWd8Y2EaAjQA1IOTnnUQoBkMBqO8YXpBHjUP0J8DAELyF6P5iz8PAnT1Ne+2nHbdsSPsuQGtw04CjoSxuLMroGPCd6JvrCU3+x+gnz7ZmPjU5NaPh6/cnFk0t4K27U5fOGXfJ/rRvblrw8Hlw+dvhRdoOwH6we1g9VPD1+40Vr9zbTi4mvj8Lb3Tx72bYX4+feHWXT3Yo53lifPBDocn9IrvLm/BkRSgwzdyL7jA+dHOYhSeTw3fWGz8LFfDhUM374VbtfthcxkaCn5S86RV2wA9MtLZ599CgAaAenDSsw4CNIPBYJQ3TC/IgyugURUayOAL5ssvBOj6Ghl5/ZATdTsQXOxstkkO0I2u3NMtOGI38QhfbBegk1UlQAf0dhh6w4nAqbMXbsxvhWk4oL34/GTLfaL10ukLs8Hj1gB97+YnweqtudasPhM8jl0wHVdggLYubRZ6b+sohYeeTH8abrYSPGn7w+YiW6V15IwALYZC5knHCNAAUA9OetZBgGYwGIzyhukFeRCgURUETb8wX34hQCNVUoAOLl5+6dChIB8fOBCrvTnuAe0UZ+ep8O4KaMuTB1ufz928Mty4IPrSHU23sZtiNGnsbS3KbVc3mTjsvSkKDNCtO2l9q4a+Y91V23efy8jISFpH1gAtKyTeoENfMk86RoAGgHpw0rOOCgfoxQ9+8O2DHy7GljMYDIY3w/SCPAjQqAqCpl+YL78QoOsvbLsdykrAwhTelltC25vk+RLC1ougwxdrE6AjT+5PXwhuOnHq0p3gMui2Tba7AJ1Vc+sSoKempmTDtMucFxYWhsJ7dDjfN6ht+vr16+Z5xwjQAFAPTnrWUd0A/dnPv/Wtb7/9WWw5g8Fg+DNML8iDAI2qIGj6hfnyCwF6IMXugJHIScDNp83N9W7O0Tp5AnS4oO4BWtih1mTd9CuWEwJ01uptV9jzAJ395nLQlOz0ZdvOzo42aPsrB2X97K3SEKABoB6c9KyjsgH6ytvf/tYPTs3FlsdHsOa3Ohid7Y3BYDAKHKYX5EGARlUQNP3CfPmFAD2QugjQdj5OuHhZX8oXoG3hix4HaM2xH19dNM+b9F7JGmrNWp8tRneFDsnvinnUWnUbO13qbPVEuspeBGjz7tN/2Fz06wTb3s15YWHBvhHHyMiIbJV4a45sBGgAqAcnPeuoSoAOr3fONaK7cwQB+u2rzV0ljbkPv0+AZjAYbcbGvbWN2MLehukFeRCgURUETb8wX34hQA+kvAE6zMPN9WObN/JxyQE6WbsAPfrmC1995o8OjbZ8lV+qbsvj51dPB+3143NXZ5a3HoSN9cmDjcWx8+F9oD++qn8vboZfzPfBqeFrdzbClR7tfH7r4scffHjmRviDOlVXv8fvg4+Gr801Vl++dUEOdPaG7s+scPrCrbvh68Ehb54Pbvpx3nx14dqNMANfmX8UPk2yej1c5bK9SgEBuu0Pm5fehaPz+2no+vYF0Z0jQANAPTjpWUclr4AO7v7ceS8mQDMYjALGxt2rv33njeOXptZiL/UwTC/IgwCNqiBo+oX58gsBeiDlCtAjsZVTN48F6JisAN3ajju5AtqRuM7u6Bv9CNBPn6zcHA7Kb4Iz11bCIh24N3n+lFncdOrCtF6jG6u6924lrn67cUnvk5UbYeV1DF2PjnjnUrQDpxZH5uKrFBGg2/2wee3s7OhXEXZySw29ZUfbK6bTEKABoB6c9KyjigG65e7P7b+KkFtwMBiMnsfG1Pn33/jpL2X8+LfjC8VdB216QR4EaFQFQdMvzJdfCNADKe8V0I7OA7Sdg8MgnRKgWzZUqUdP10mkbqen8vjo3uL4leEzp0x1/fDUmeFLN+a3ovqsdpYnLg011vlo6MKN+SjIJlXdnc/HLw19ZFY/JasvtPbbJ1vzNy4MmfZ9Klih9Yg7d66c0a0/uZkcoGWVy2aVobEiA7TI+GG7EN2II/u6Zr32WaR9aWFbBGgAqAcnPeuoXoC++nZLLO4sQHMFNIPB6GEsXDv945++8+trK+GDXx49P7cWW6e7YXpBHgRoVAVB0y/Ml18I0DUWVt1umOybP0CH30nYciONdGGPtrgHyh+gw5+3w6OnojxW3E7jywb1Umg7MctLU1NT0atd12fBxwAA6sFJzzqqFqDDy5m//8FstKSYAM1gMBhpY+32paPN6KyXQr/z62t3ndW6G6YX5EGARlUQNP3CfPmFAI1UHSVgpyP3egFyUzdH7zk/Ux59oKE5vMQ5MBQyT0Ld3ffZxscAAOrBSc86qhWgO/0qwp9fsbbq9BYcMujUDAbDGZ+P//rt1ttu6M2g3z599XNrtW6H6QV5EKBRFQRNvzBffiFAAzbKoy92dnYWFhauX78+MjLyQeO+HEKWmzV6wMcAAOrBSc86KhSgZ08d/Na3v/WD7x/MvgI6iNSxAN1BWeZCaQaD4Y61ueHjv3zj7QsTzhcP6vIivpDQ9II8CNCoCoKmX5gvvxCgARvlEYKPAQDUg5OedVQmQDdu/Rxk6NwBWldIuRRaV25/Kw8GgzFYQ690/un7w7c33JdkfD72bhFfSGh6QR4EaFQFQdMvzJdfCNCAjfIIwccAAOrBSc86KhKgm18SmDtAN1dIuMa5uTIBmsFg2KP9vZ4L+UJC0wvyIECjKgiafmG+/EKABmyURwg+BgBQD0561lG1LyHMH6CDS6ff/ix4TIBmMBgdjs7icgFfSGh6QR4EaFQFQdMvzJdfCNCAjfIIwccAAOrBSc86vA/Q1lNuwcFgMDoa81ePdnh7jcZtOi7Ox17qbJhekAcBGlVB0PQL8+UXAjRgozxC8DEAgHpw0rMO7wJ082Yd4bCvek64Aro5mhdKMxiMQR8bK2OXxm93+AWDawtXL03OdftthKYX5EGARlUQNP3CfPmFAA3YKI8QfAwAoB6c9KzDlwBtX93c7NHByp1l5eBCaXu3DAaD0Y9hekEeBGhUBUHTL8yXXwjQgI3yCMHHAADqwUnPOioXoN2RdeuM4Gro1Eue3TtycPkzg8Ho/zC9IA8CNKqCoOkX5ssvBGjARnmE4GMAAPXgpGcdXgdoBoPBqPgwvSAPAjSqgqDpF+bLLwRowEZ5hOBjAAD14KRnHZUP0AwGg+HxML0gDwI0qoKg6Rfmyy8EaMBGeYTgYwAA9eCkZx0EaAaDwShvmF6QBwEaVUHQ9Avz5RcCNGAbHx+Xj7B5goEkHwD5GJgnAACfOelZBwGawWAwyhumF+RBgEZVEDT9wnz5hQAN2JaWlhYXF2nQA0umXj4A8jEwzwEAPnPSsw4CNIPBYJQ3TC/IgwCNqiBo+oX58gsBGnAsLS2Nj4+PYSDJ1FOfAaA2nPSsgwDNYDAY5Q3TC/IgQKMqCJp+Yb78QoAGAABALTnpWQcBmsFgMMobphfkQYBGVRA0/cJ8+YUADQAAgFpy0rMOAjSDwWCUN0wvyIMAjaogaPqF+fILARoAAAC15KRnHQRoBoPBKG+YXpAHARpVQdD0C/PlFwI0AAAAaslJzzoI0AwGg1HeML0gDwI0qoKg6Rfmyy8EaAAAANSSk551EKAZDAajvGF6QR5FBOgnGzMXT7/37umLMxtmSZyscua9985krPIw2Mu77wV7eWIW9YIA7R2Cpl+YL78QoAEAAFBLTnrWQYBmMBiM8obpBXn0HKBXLv7P7+2P/PlPPosX5uVP/+d3zeviz09OPjQvNC1f/FHrKrvmha4RoL1D0PQL8+UXAjQAAABqyUnPOgjQDAaDUd4wvSCPHgP01mc/+TNTjY0/O3qjtS/fu/g/zUsNf3b0eusqW/FVTkya17pFgPYOQdMvzJdfCNAAAACoJSc96yBAMxgMRnnD9II8egzQkydNMW76s1/OmBdVwiqHh1fMi2ryhHmh6chw+u08OkKA9g5B0y/Ml18I0AAAAKglJz3rIEAzGAxGecP0gjx6DNDLpw+aYhw5PLRsXlQz771mXon8/cXWujzz69gq/+CskhsB2jsETb8wX34hQAMAAKCWnPSso/AAPTE9x2AwGAwdphfk0es9oDc+/fuWe3D82Y8/u2deati4+A+tq7zt3IHj6dPVi85e3roWv090PgRo7xA0/cJ8+YUADQAAgFpy0rOOwgO0ORgAoKu20POXED59OH/urR+E30P43R+8NbyQFI5354ff/kH4JYPf/cHbF5efmMW2hwvDb/2fYYT+3g/euth6DXVXCNDeIWj6hfnyCwEaAAAAteSkZx0EaAAoj+kFefQeoCuKAO0dgqZfmC+/EKABAABQS0561kGABoDymF6QBwEaVUHQ9Avz5RcCNAAAAGrJSc86CNAAUB7TC/IgQKMqCJp+Yb78QoAGAABALTnpWQcBGgDKY3pBHgRoVAVB0y/Ml18I0AAAAKglJz3rIEADQHlML8iDAI2qIGj6hfnyCwEaAAAAteSkZx0EaAAoj+kFeRCgURUETb8wX34hQAMAAKCWnPSsgwANAOUxvSAPAjSqgqDpF+bLLwRoAAAA1JKTnnUQoAGgPKYX5EGARlUQNP3CfPmFAA0AAIBactKzDgI0AJTH9II8CNCoCoKmX5gvvxCgAQAAUEtOetZBgAaA8phekAcBGlVB0PQL8+UXAjQAAABqyUnPOgjQAFAe0wvyIECjKgiafmG+/EKABgAAQC056VkHARoAymN6QR4EaFQFQdMvzJdfCNAAAACoJSc96yBAA0B5TC/IgwCNqiBo+oX58gsBGgAAALXkpGcdBGgAKI/pBXkQoFEVBE2/MF9+IUADAACglpz0rIMADQDlMb0gDwI0qoKg6Rfmyy8EaAAAANSSk551EKABoDymF+RBgEZVEDT9wnz5hQANAACAWnLSsw4CNACUx/SCPAjQqAqCpl+YL78QoAEAAFBLTnrWUZEAPTE9x2AwGFUe5m+rnEwvyIMA3Y3FxcW5ubk7A0Z+ZPnBzSkoQXlBk/kqQ6kBmikrHAEaAAAAteSkZx0VCdCb97YYDAajysP8bZWT6QV5EKC7cefOHfNowJT6g5cXNJmvMpQaoJmywhGgAQAAUEtOetZBgGYwGIxOhvnbKifTC/IgQHeDOlYGAnThPJ0vwZQVjgANAACAWnLSsw4CNIPBYHQyzN9WOZlekAcBuhvUsTIQoAvn6XwJpqxwBGgAAADUkpOedRCgGQwGo5Nh/rbKyfSCPAjQ3aCOlYEAXThP50swZYUjQAMAAKCWnPSsgwDNYDAYnQzzt1VOphfkQYDuRv3q2KNHj5wHiTwNmsxXGQjQuez5lBGgAQAAUEtOetZBgGYwGIxOhvnbKifTC/IgQHcjIxI9ePBgbW3tyZMn5rnl/v37q6ur5klpdnZ2lpaWzJMO7O7uyhs7d+6cPBDyQJ7KA/NyK0+DZpXny7G8vGwepZCpqf18CY+mrC2ZnSpMGQEaAAAAteSkZx0EaAaDwehkmL+tcjK9IA8CdDfSItH4+PjIyIj8ee7cubt375qlDfPz8zdu3DBP0snmvaSclZWVCxcumCftPHjw4MyZM5OTk2fPnp0KyQN5KgvlJbOSxdOgWeX5UmNjY/fuBf83zeXLl3VJogGZL1H9KRO3bt1K7OC26kwZARoAAAC15KRnHQRoBoPB6GSYv61yMr0gDwJ0NxIj0ePHj0+dOrW+vi6PV1dX5+bm5MHdu3evXbs2Ozv75MmTqI7JwuvXr8/MzGi9kqejo6NTU1OyB1l45syZ8fFxfenBgwe3b9/+4osvZB29NlZ2KwvX1tZkt9Ee9KkeRQO0bLK0tNT2clrZ1SeffCJ/OnShWcniadDs23wJ2Up2JRvev39fXpUNd3Z2ZDrkl00eT05OPnz4UM6tbC5Hkf3IavKS7OSzzz6TnVy6dEkmTt6DzKPu0BZNjaNm8yX6OWW7u7vyVKZGfiKZCznzW1vBX8GylfxmySbT09Oyubwq8yibi5s3b8o7HBoakgdp1zKraHYc/Z8yAjQAAABqyUnPOgjQDAaD0ckwf1vlZHpBHgTobqRFovHx8eHh4evXr6+trclTOb+XLl3a3NwcGxu7efOm1rHt7e3Lly/LS7JEyIOLFy/Kn7LttWvXtra2zp8/L0+15sif8urDhw/lpTNnzjx+/Fj2f/fuXd1kYmJClq+vr3/66af6VHa4srIiT+WxvI0osaV5EF6eORsjC/tcx0SfA7QofL6E7EEOt7CwcPr06aWlpbm5OdmbrCCnVI4i+7x69arsU16Vn1cm68qVKzK/586d05x64cIFWUfWlCWyXPcZGZD5Ev2css8++0w2XF1d/fjjjxcXF6empnTn09PTcm7l90v+lPXlJMuf8ssl+7l3757sR3eb/VtWnSkjQAMAAKCWnPSsgwDNYDBqM5ZX1p0lBQ7zt1VOphfkQYDuRkYk2tzcvHXr1tDQ0O3bt6enpzVXXb169dKlS1rHZmZmLl68qC3sypUrU1NTsr7ZOKTXL5snT5/evHlza2tLVh4eHp6bmxsZGZE9nDt3TvYwOjoq+5c96FNZRx6srKx8+OGHZ86ciefLuAcPHshuzROLLKxT0OznfH322WfBjX53d0+dOiVTcP/+fdnb4uLixMSEvPro0SM5t9vb22fPnpWnT8JLnuWBHFdvXqxPhRwrPgUDMl+in1MmZ0+/GFB+1+IBemdnRzaXvZ0+fVrmSA6nrwrZeXZ9FtWZMgI0AAAAaslJzzoI0AwGw+txZ355dOz2b89c+dVvL+iQxzIuXJkcn5pzVu5lmL+tcjK9IA8CdDcSI9Hu7u7ly5cfP34sjxcXFy9dujQ7Ozs2NvYwvOWCvKp1TP68efOmLtzZ2ZF15KlsIo+1EDl1bGVlRXY7OTkpa547d07+lD1cvXo12oO8mc8++0yfbm9vy/qymiyRQ5tdpJNNBiFo9nO+5Mzr5naAljVlubwqS2R2EgP03fCOxvKW5E+h+9HHEVkyCPMl+jllcvZkZXkwMjIiu52entZ714yPj8u2o6OjslBWGBoa0gCt9wAR8mYI0ARoAAAA7C0nPesgQDMYDE+H0501PZ85f91ZIqs5G3Y3zN9WOZlekAcBuhuJkejJkyfXr18fGRm5efPm+fPnl5aWHj16dOnSpRs3bly8eHFubk7r2BdffHH58mVZ88KFC7Kfx48fyzry9NNPP5UVZD/y9Nq1a1rZxNbW1scff3z37t2HDx9+9NFHDx48kJdkD7IrvRpaluse5KnsYSW8B7Ssc+XKFd1hhurUMVFe0OznfCUGaFki+5QHcjjZczxAj42Nyf7lqRwr3A0Bun9TNjs7K5uPjo6eO3ducXFR/lqUB7K+HEJekj3IEeXpmTNnnAAtx5I53dnZkTVlq6mpKdm/vCvZm64gqjNlBGgAAADUkpOedRCgGQyGd2N5ZT0KzZqY78wv26/K0/GpuQtXJqN1er87h/nbKifTC/IgQHcjIxI9ePBgc3PziXVdpCyxn6qHDx/aC52nURrL4Ow28ShtyXGHhobOx8hCecmsZCmvjok+B2jVt/kSjx49yoh0nUzfgMyX6POUyUuy5NatW4uLi/pUb8qh5HF8/0r340yr/bQ6U0aABgAAQC056VkHAZrBYPg1llfWf9u48Lnt1c2yQlEN2vxtlZPpBXkQoLtRatfrs4cpzMutPA2azFcZ9ipAl2dpaSm6urlAZoZizMutyvvBCdAAAACoJSc96yBAezIWP/jBtw9+uBhbzmAM1ojq85nz1zsMyrKaXi7dY4M2f1vlZHpBHgTobtQpaObiadBkvspQvwBdBeX94ARoAAAA1JKTnnXUIkBffftb3377M2dh2xEk3W/94NScuzzY27fevtq6sDE++/m3vvXzK87C9iPhHV55O/HoKSM4bhc/I4NRt6EpWf50lttDi7PTmqMGbS/MNczfVjmZXpAHAbob1LEyEKAL5+l8CaascARoAAAA1JKTnnXUL0DPffj9b33r28nDDr5B0v3+B7ONp22X67ACdFCQoz0HwTos143RerVyLEDPnjrorpM1Oq/VLe8qY7TsLWjxrXW75WdpjNbyHv4IsXWSB+mcUcgYn5r7VXg/jewLme/ML2trlvWjhbKJbmsvzDXM31Y5mV6QBwG6G9SxMhCgC+fpfAmmrHAEaAAAANSSk551DOoV0OHlz7FOevDDxcSA2yzFToAOL5RuPIjeRvx2Ge47TM3EeuV1eL1zrhEdLnpXGSNo9HaAnr36wdtBtbfes7zh1gpv/eBmBAE6Wqf1R25ZuYvZYTCSh958o5OCrLd+lvXtm0Rrv+76Imjzt1VOphfkQYDuBnWsDATownk6X4IpKxwBGgAAALXkpGcdXgfohIzb2WXCepV0QhWNZ1ZnFBKgTV9uPVC4MCnUhq28s59LRjcBWof9s7fE5dirOrgCmtHfofk4++Yb9khs0Hojjjvzy9GSzof52yon0wvyIEB3Y3FxcW5u7s6AkR9ZfnBzCkpQXtBkvspQaoBmygpHgAa683jpwOO7f2me9N0gH317e3tnZ8c86bu9PToAIBcnPeuowxXQYQnNkTjD1BsG4qDt2hteebsRjmO91b2zxw9OfdBBgI7fD+Tgh6dktW+9fSrIylEp1pibGI5bwnQ8bbsjeDPW4VJHZtEOduKsEA/QSaOT/M1gdDcuXJn8lXX585355TPnr2cPWV8bdFSctUrLrvRprmH+tsrJ9II8CNCoilKDJgrHfPmFAA104Yvt0w/H/28ynmz82Czqo0E++qNHj9ZDDx48MIv6aG+PDgDIy0nPOmoQoFMvZ04ZVz78/sGW8quX+gb5OGqsc7OLQXKNVdrwWGadKLZmBGgzrERuXX0cHlE2zKjPuk7zbXQWoJN31RzWe4iP4BBJ51PPTzhk/2EWzzWy3zaD0XY499/QC6I7HHa2lqfd3YXD/G2Vk+kFeRCgURUETb8wX34hQKO9kUPPPPPMoRHzLDLyeuLigfBo6n/TCPvozjfNoj4a5KNvbm5qAr5//75Z1Ed7e3QAQF5Oetbhf4BuDaZtw2hinI0ScJvrfPVYuQN0dB20W3X1uGnvSvfcciuMYgK0PaL3pj9X+LT15ht5Rt6jMxidD03J9tcPyuNORrS+bkKA3jMEaO8QNP3CfPmFAI12wvz80rGRhWWzoCEhQC8cO/DMgWML5llBwjfwerx/J2fxPoguAdbR5wuBB/no0QXIqs+XIe/t0QEAXXDSsw7vA3Sj4R78wffj6TPzUl8zwshrpeEwYceu/9URXQX8/Q8+7OASYHPoKJFHhTocra08ISt3epVxSzHXH6ejYZ+uNuU9bViXRaePlJPJYOQbGqCdhV0MvTWHE6Y7GeZvq5xML8iDAI2qIGj6hfnyCwEamZaPvfTMM1FTHjn0zEvHog7dGqCjNZeXWwK0Lu9ESkxOC817F6CjS4B19PlC4EE+enQBsurzZch7e3QAQBec9KzD9wAdJOa3f/52497KTsZtE6BN4Y2FV43a8Q0/+3mQuWV9WaGze0DrVvoOg5dkw7evRhcdN8tsI6O7S37w/dYvA4xdAR0Lxx1eg+yuZu0nK2G756Q1qSeMtiswGB2NXq5cdobeyoMAvQcI0N4haPqF+fILARoZwsTcvKJ5eeTQAVnQuBg5CtDLx4PFKS04DNBWtk4U7iF5B8FRZPPg2urOtDtWj5xLgHX07ULgQT66cwGy6ttlyHt7dABAd5z0rMPzAH317aDPNirnZ3rX5uCpVtpGgE67J8bPr4QrtzRWM8LKHDxo9t8rb+uFz1aodQO0rmwfLnhsX/scHjqWvHXoERstO3jnwZLcAVpXSOnIunL2fmKvBiN8S27aTjt7LYMAzShkxK+AXo7dbSNt2FvF99PhMH9b5WR6QR4EaFQFQdMvzJdfCNBI1gi+bhUOrzs+cDxovGGADuhTFSxsuV1Gj1dAB8ez99+0R1dAO5cA6+jbhcCDfHTnAmTVt8uQ9/boAIDuOOlZh9cBOoi5jVzbrJxBSzXRthGgW7JvWGbtqps5gr2F4XU2uOp5zgq1LalXV4gHaFm/0cRb32FLoo1GM1KHb9vap462Abq5gnlXzZfsldvtJ3jacopSunnrz5Uw2q7AYHQ69MrlO/PL+rS7LyHUrbgH9N4gQHuHoOkX5ssvBGikifpyi9dHovIbXQFtMxcsm2eityugw/6cfFPpvQjQiZcA6+jDhcCDfPTEC5BVHy5D3tujAwC65qRnHV4H6OCS5CCS2pUzSKtReG2W3HCdluTqjPDq45ZUqsW58fTK2+GrSQ03I0DPffjz2DuMV2MdSa02d4Bu7qSnAK2nMfrxg1dj7y0YweHsgJ44kjZkMHKPC1cmf/XbC6Njt/XpnfnlqC+fOX89ezjZWnalT3MN87dVTqYX5EGARlUQNP3CfPmFAI38lo+9dODA8ZGkAB3m5sKugHbidZicMyX16NE3X/jqM797cGTXPO/CFw9vP9n4sYzES4B1yEuP7/7lF9unZWUZZssiDPLR5a+RB6HEC5CVvLSzs/Po0aPgL54nT8yWRdjbowMAeuekZx3efwlhMJrVNbxQt1lsrQAdu4a3tS/LcIpt8NRaYe7DU8G2zVAbS70ZedeJy27t1dG6jo68Adp6GryrWAtOfYeNDeUsNd5DGJflDAQvOT9ONJLec8touwKD0enQ4nzm/PVoSXQRdFSl2w7ZXNaPLojONczfVjmZXpAHARpVQdD0C/PlFwI0uhZettx6eXJ4447kO2Z0QYNza4BO3XnqBdG5A/QX26efbPz48dIBGRnVNXvIho/ufPPx3b8MymyeJjvIR3/06NGDBw+2QxnNN5tseP/+/Z1QriK8t0cHAJTBSc866hWgw2ZqRWQ7QOurVkh1I2xLoQ7KrxV2oxEVXisNa4C2jtW/AN36A7Y0dPtxbMSOFVZmHc39B0cPlqQX5PCEtxvpmzMYOcbyyrrehcPOzbkadC/335Bh/rbKyfSCPAjQqAqCpl+YL78QoJEu9YrjRudNurrZ9OL2VytnCPff2HmvATqfLx7ednJqIaPDDjvIR5e/MUzELVSHFXhvjw4AKImTnnXUKkDHwm5Cn7WeuuuHvTWspfGC3BiNTew9a+qVPxublB6ggyM28q7TizuqvcEbsHcb/gjB3prvKszxwZK39SX7vDVH0ntuGW1XYDByjKgg298rKI+1QUf32Ugc0WrdXf4sw/xtlZPpBXkQoFEVBE2/MF9+IUAjXVLwLajzthce/EABt+DIresrf9NGrq/pG+Sjd33dcZpcXxK4t0cHAJTBSc86anYLDmdoGnYWWiPoufENnWzdMkw7Do4Yld/wKD9/u5l0OwnQGnzd0a7VppdxfdvpP6zdrGMHWrzy9vcbuw3eariOXaijhaZQO3vraKSdUgaj47G8sq730LBvxBEtt6t0fCRumGuYv61yMr0gDwI0qoKg6Rfmyy8EaKRrE6Bj3zeYqH01jlj5ONjq0EjCPaDLvgJaFdhhcxVYNchHL7ACd9F/9/boAIDCOelZRy0DtJVHW67zbYwop3Y4rKuVNUDPmvtHNy4T/vbbb586+PapucY9K1o2CUY8QDsryHB/iqSRFaB7H+bHaVuxs5o+g1HuWG7ciMO5DjpjRNm665tv6DB/W+VkekEe/QvQKysr5lFfEKC9Q9D0C/PlFwI00iUFX6vzJgXoMBm3fAlhwk4SNnTy8cLIoePyZM8CtCikw3ZRYNUgH72QCtx1/93bowMAiuWkZx21CNAMBmOAht2g2976WVaQNXXl7Ht0tB3mb6ucTC/Io9wAvbKycvz48e985zv7G+Sx+NGPfjQ2NmZWKgcB2jsETb8wX34hQCNd2HSTJAbo8DsJw/q8sGxF4tSdxMXycUKAzlZggBY9dtiuC6wa5KP3WIF77L97e3QAQIGc9KyDAM1gMLwbyyvrF65Malk+c/76+NScHZflVXk6OnZbO7WuE73a9TB/W+VkekEeZQXosbExuzsLefpXf/VX5klIlhw/ftxsUDQCtHcImn5hvvxCgEa6pCuOrQuNowDdTM8JEnbS/gpoYy+vgFZdd9geC6wa5KN3XYEL6b97e3QAQFGc9KyDAM1gMHwcyyvr41NzUWLW4TzVJW2vku5wmL+tcjK9II/iA/TKykoUmjUx2xc7y6vy9MyZM/Y65rVCEaC9Q9D0C/PlFwI00iUFX6vzBh1ZJadnFW7QmQoGaPF46YATWNuOQgqsGuSjb29vm6zbsQL7794eHQBQCCc96yBAMxgMf4dm6AtXJuMlenTsdo/33HCG+dsqJ9ML8ig4QNv1ue3VzbKCrvmd73yn8DtEE6C9Q9D0C/PlFwI00qW242aAdi5kTlno6GSdUCG34Bh984WvPvNHh0Z3zfMu5LoWWFY2mxVkkI+e60pkWdlsVpC9PToAoHdOetZBgGYwGLUZy519LWF3w/xtlZPpBXkUHKC1PsufTlCOLnw2zxuiYF34ddAEaO8QNP3CfPmFAI10SVccWxcatwvQ7XtxkgPHFsIdBYq4Anp39I2eA7STWbNH4RHW2X/2qNnRTdztTOEJ2Oy3MwRoAKggJz3rIEAzGAxGJ8P8bZWT6QV5FBmgo/psnjdEVzqr+JXRaRv2ggDtHYKmX5gvvxCgka6LAO0k42S9XAHd/1twfPHwtpNZ2w7ZxGzcs0E+uvwdYuJux2QTs3HP9vboAIBCOOlZBwGawWAwOhnmb6ucTC/Io7AAfebMGe3LzrXPGpfFj0LRY/NySDbR5fbdontEgPYOQdMvzJdfCNBIlxagzUXK4XcPOsk3zMCvjzxdOBZ+L2GXGjttBOiceys2Qw9yAt7bo+9tAt7bowMACuGkZx0EaAaDwehkmL+tcjK9II/CAvR3vvOd/fv3OzfZiKq0eR62Zl3Tac26ZoE34iBAe4eg6Rfmyy8EaKSzArSdgJtfORjmZleB+bej66nL9vjuXzqNte14svFjs3HPBvnoOzs7pux27MGDB2bjnu3t0QEAhXDSsw4CNIPBYHQyzN9WOZlekEcxAVrzcfweGnrJs3PPDb0jR9qNOIq6CJoA7R2Cpl+YL78QoIFsXUTYx0sHzMY9G+Sjd5GAt7e3zcY929ujAwAK4aRnHQRoBoPB6GSYv61yMr0gj2ICtIZm5/Jnoa3ZuSmH1mrnLhxCV44v7w4B2jsETb8wX34hQAPZHt35ptNYZTya+t+ebPxYhjxwXpIhm5iNezbIR79//74pu5bNzc0HIXlgFllkE7Nxz/b26ACAQjjpWQcBmsFgMDoZ5m+rnEwvyKOYAJ14/400aVc6yxJZXtRdOAjQ3iFo+oX58gsBGsjmBFYZT1rvMhFPsfLUvNYze7c6BufoJutaHrTe4yIeguWpea1nZo+Wfh4dAFAIJz3rIEAzGAxGJ8P8bZWT6QV5FBOg94ecK50TaX2O36xD6FcREqAHFkHTL8yXXwjQQAbnW/ge3/1L80KMvGSn2EK+i2+Qjy5/gZisG9rZ2TEvxMhLdgiWDc0LPdjbowMAiuKkZx0EaAaDwehkmL+tcjK9II8iA7R5ki6jPitdoZOQ3RYB2jsETb8wX34hQAPZNK1m5Ffb46UDur553rNBPrqG3Yz4a9ve3tb1zfOe7e3RAQCFcNKzDgI0g8FgdDLM31Y5mV6QRwEBusMrl/XWz9mr6a08CNCDiaDpF+bLLwRooK28l/QWcglwZJCPLn+NmEedybt+tr09OgCgd0561lGRAD0xPcdgMBhVHuZvq5xML8ijf1dA6xcVxm/9bOtkPx0iQHuHoOkX5ssvBGgAAADUkpOedVQkQANALZlekEcxAVpvndFjXO7kEunOEaC9Q9D0C/PlFwI0AAAAaslJzzoI0ABQHtML8igmQOvVzcePHzfPk7SNyxqgZVfmeW8I0N4haPqF+fILARoAAAC15KRnHQRoACiP6QV5FBOgx8bG9md+u6A4fvz4mTNnzJMknVxG3TkCtHcImn5hvvxCgAYAAEAtOelZBwEaAMpjekEexQTolZUVzcfZF0FnKPb+G4IA7R2Cpl+YL78QoAEAAFBLTnrWQYAGgPKYXpBHMQFa6EXQ3/nOd1ZWVsyiVmdC5kkr2US2FUVd/iwI0N4haPqF+fILARoAAAC15KRnHQRoACiP6QV5FBaghV4EnXgjjk8++UQTszwwiywZG3aNAO0dgqZfmC+/EKABAABQS0561kGABoDymF6QR5EBemVl5Tvf+c7+pOugh4eHw/68Xx6YRaHo3h0F3nxDEaC9Q9D0C/PlFwI0AAAAaslJzzoI0ABQHtML8igyQAu7QTv3gz4fMk9CskIYpYOVC7z5hiJAe4eg6Rfmyy8EaAAAANSSk551EKABoDymF+RRcIAWKysrP/rRj6KyfObMGTsuy6vy9Pjx49qpRbF33ogQoL1D0PQL8+UXAjQAAABqyUnPOgjQAFAe0wvyKD5AqzNnzkSJWTlPheZps0HRCNDeIWj6hfnyCwEaAAAAteSkZx0EaAAoj+kFeZQVoIVe7PyjH/1I7/Ic+U54d47C77nhIEB7h6DpF+bLLwRoAAAA1JKTnnUQoAGgPKYX5FFigHastH4tYdkI0N4haPqF+fILARoAAAC15KRnHQRoACiP6QV59C9A9xkB2jsETb8wX34hQAMAAKCWnPSsgwANAOUxvSAPAjSqgqDpF+bLLwRoAAAA1JKTnnUQoAGgPKYX5EGARlUQNP3CfPmFAA0AAIBactKzDgI0AJTH9II8CNCoCoKmX5gvvxCgAQAAUEtOetZBgAaA8phekAcBGlVB0PQL8+UXAjQAAABqyUnPOgjQAFAe0wvyIECjKgiafmG+/EKABgAAQC056VkHARpT03PnL1w9fXaEwejPkM+bfOrM56/uTC/IgwCNqiBo+oX58gsBGgAAALXkpGcdBOgBd+Xq+MTkzPb2rnkOlE8+b/Kpk8+eeV5rphfkQYBGVRA0/cJ8+YUADQAAgFpy0rMOAvQgm5qem5icMU+A/pLP3iBcB216QR4EaFQFQdMv///27qZHiitN9Hh/Cbpmda80V+ot36K9vUs+Ab1BrdmwtS3khWVZMNLIjWjEDiQkNpYpemRflTSMS7ixRcO4XXM7wQVFFvVelKswrzbcvE/Ec/LUyRMvlZGR8XIi/z89Qhn5ElXEybJLf4cjWa+wEKABAADQSV561iFAz7Lv7vzAuc9oirz35B1oNrrL9IIiCNBoC4JmWFivsBCgAQAA0EleetYhQM+yxVt3zS2gCbPwDjS9oAgCNNqCoBkW1issBGgAAAB0kpeedQjQs4wAjWYRoFMRoNEWBM2wsF5hIUADAACgk7z0rEOAnmUEaDSLAJ2KAI22IGiGhfUKCwEaAAAAneSlZx0C9CwjQKNZBOhUBGi0BUEzLKxXWAjQAAAA6CQvPesQoGcZARrNIkCnIkCjLQiaYWG9wkKABgAAQCd56VmHAD3LCNBoFgE6FQEabUHQDAvrFRYCNAAAADrJS886BOhZRoBGswjQqQjQddjd3f3DH/4gf5pth9z53nvvLS4umu1R+Y92TM1B8+XLl6dPn/7HP/5hth3ykKzX5cuXzfao/EerIG+A48ePe9+qbP7+979P/f7rUX+AlmOeddjlflkUWRqzPSr/0aJkOX7jOHLP8tXlpzj1x79OBGgAAAB0kpeedQjQs4wAjWaN8w48ePZiqdeXMdtjkCevru/KC812o0wvKIIAXYfV1dUTJ064oWpxcVGbVH5idh/1spfH3fmZM2fMvUdJZs0G1R+g5aC5ZdAmXX0oq3W6j8qT5Riao5ngZcf8J6vULyoLatdXv7rcY2/oc+rXSICWQ2R/WNyFkD/tIUqyj+pL9FCnsjvP+XEresz1pzjn26sHARoAAACd5KVnHQL0LCNAo1lHvgOXev1zF6/rmLvGYF/yzZ2euas5phcUQYCuiUYomxfPxOz9Nnt5vEe1YHpP1ue4UczuPJ/trWa7afUHTc2R9lh5mdIulsd71FtZpc8RcsPclbF8VtYXzXkPyJ/ykDxBH6pZ/esl5PjYv7L7Bpb7vaPt8h6VFU8+WZ4jBzbnxyFrgVy6OiZUjyHrzVAFAjQAAAA6yUvPOh0M0Hu3z588eWPZbBWwfOPkyfO398zWLCBAo1lHvgO1I+sZzeauNN6jsikvuXR1Qcbc1RzTC4ogQNdncXFRs1d+pXIrmBcfhRvghEYx3a3eI+L+PBKgk/sR8lVmPEAL+eufOHFCjo8eIrMGaezRS4ZIechrl3L83WVS8gR5mrcKVlbflOe7u5I92+XWl3hrXZtG1kv/ynoM5S9u1iaNe1jkqNqDJnStvRWUl9ilyd9zkl19+bNVP1MuAjQAAAA6yUvPOp08A3p5/uRECfrg9oXJXhgqAjSalf8OPHj24tzF69fmb5ntDBqpkxfckBem3l8z0wuKIEA3wG2I2sKSUVJjpelbMRvU5IYGL32t8EKnPEGfLH+aF4/SlwsCtOWWfa2cyRasB9wcxJhdR3mybMo66mttkXTJPXJ/cq1V1heVRbR3ep1U5O+zUs2ul/cXl0Nk18Ll/QjYddGX64+Jrl3yyFu6NKdPn9Y/cw647Nb9mZL965ewsr7PGhCgAQAA0EleetYJPEBHJy0XcOH2wUQvPP/t8HXdQoBGs/Lfgavru0cGaI3UqWc6a4DOP3W6BqYXFEGArtvu7u6JEydsotKmmdWzsh7VZCayopuXvVL348WyxjUYNLUw2uOjm1lFMutRebkuig3ZHjnUxwteA1pfot+Yfl1vZYU8artqnRr/DwbuoZDN1J8Flfqo/lDoYfd+NFz6NPladt3dRfHIQ/Izdfr0ad1tvppXjQANAACATvLSs04HAvSYZywffHveC9AzdKpzBgI0mlU+QH9zpyfPSb3WMwG6ddoToDVXZfWmrMSsko9eHqZnK7nbKD8ToHPlx8esxKySj8oedFeu5G71nZC8X6V+UVlHuyu5Ld+zfOf6kEvfFVl7rkjNAVoPhfDe20qOQDIxW96j7upbWbuVh/TAugukt919Ku9nSvbp7Tb/+6wUARoAAACd5KVnnS4F6OjKG/NuVI4uqWFPXs4J0KMPxWYjUBOg0azyAVqeIJN6nQ0CdOu0J0ArW6bOjHF5WZuo3HCsLSyZm21Ns3VSvoQ8WZ+fRb7E3bt3Z/wMaHt484+VsofXDZHyWn3Ui7/6HLnfXS+5UShAuzuX+5NL75Ln5D9h6upfLxEX3TN6JPXg5LCHWo6e/kzZHxbZiT5k2feAu7L6Kn1CUvI58o15ATre5Yj8fVaHAA0AAIBO8tKzTtgBOsrExQyjchyY58d9eVdTNAEazSoZoPX056xPGvzy5j0CdLu0NkCb7dFzIeOqlnICpvayr7766vTp0+5rhftyj+xKI1q+5LfUrAYDtNmOk6INzVlHWO6R++VROc7ua4X78iQ51OMHaN38/PPP9Q0gt+XLmYSZkPrmqVqDAdpsjK5gzvtZl1IOo3egkm8AoUdeyA15yBziNLo3fY4unPc9xN/syFfMelPVgAANAACATvLSs06XPoQw/wzoUZwBHSFAo1n570AtyKmX11D5T1jq9eVReU6zn0NoekERBOiaJOuYm6KSoUpoCPtNxrU7ckqW7EpzWL7kt9SsUAK0HN44P6Zc8sJ9eVL+AdfltgsnTzt79mzyO0zeE793/DdPDUIJ0PKorlfyKCUP5jhkjWRvqT9i+UvcLAI0AAAAOslLzzpdCtBFJAJ0CgI0UK2sd6B+tKDmY3NXgn2O2U6jhVqmwQZtekERBOiaeGVKa6MtYnFVM7e1ey4sLOjZsjaQaSzTlJZKn+Z2zKyX6KNti2VtCNCyCjY660LobV2Iv/71r7Ioej6yHkM92uawptGnKdmJuTeb+3yR/A7z30h1akOAliNj//OMe2T0uMkPkR4cdynltjnWaezTUulrvTVy6fuk1+vJn7rDVKn/SalqBGgAAAB0kpeedToQoDPysceryZwBHSFAo1k5AfrS1YVz8dnNWe04//obSi8DLWO2m2B6QREE6Jq4dUxoybJh0c1q7u1kf7TcpubSIqmNLPly91HvW2pc4wFabsii2LzoHmH3tnsMPbIH2aHs1myPkpfkPJq62+QKel8i55upWuMBWg+OXRf3/ey9t93lcyUPr9BDGofiAvS7kl2538/x48e9pZEn2CfXjAANAACATvLSs05HArSXjz0pNXk2AvNRCNBoVv47UM9fXur1zfYoW6jNdoIW6pxzqOthekERBOia2CKmzes3o+dRxlUtalJeT0wNZGqcppZ8ubt/L9I1rsEAbZujWwbdI2wXSHhr5JJdyQ5lt2Z7lLuTpNTdJlfQW/ecb6ZqzQZo+SvLerlH230/ewvhHTQreXjzZe3Hst+e0v3rd6K35Xse/8tNFwEaAAAAneSlZ50uBuhEXE7W5r3b50+ev70XXSQ6X7cjNQEazcp/B+qHEKYWZL3+xjinP/MhhC3StgC9OLxWwOXLl5P/A75syp2/iWmu0vs1Wslrbb3KobsVNsNlvUp7pfvMNqg/aMrfXQ6aHF4hh0X+NA/E3KPnLpltvnpDn5BDd2u/lu4kKTUl2zdA6qZIfVU96l8v/cueOXNGj4ObepXcYw766H/gkdvyQnm53DAPZ0vu1rL7Mdujkquj7HfVyDJZBGgAAAB0kpeedToYoKO4PNqO0wO0vSd6ePTTC4c7yT+xOnwEaDRrnAB9bf6W2Xbo2c05pz8LAnTrtCpAL2Z/DFq+rKQlslqYe3/Oy8WMB2gtwrIoOUkxlTxZXpIaE+VQywGXw262HbL0WQ+p1N26K6hPEO53m7/Elap5vfSvL+vl/seAMWX9sBQ9eln7UfKou8S68/jnPvrBF/a2PqFmBGgAAAB0kpeedboXoJfnT56cvzGSnIcBOn4oujdx0rSeCn3+9p69ffL8t92OzxECNJo1cYCW+4+MywTo1mlPgF4cXllYg1ROwErKCWSpLaxQUJOnub2scXUGTa3PZ86c0axZ6DjoS+T4m21H1iHV90D+uui35D3HLmjW9ykPTRBkp6LO9XL/+nLkjzyYntQfFmEPr9lOo8+JynEs68n6Hcqj9j9sZK2LPEd3JQr9LUoiQAOef/lq8D//bfBP/8qYkaMhx6RqW1tbDx486CEmh0IOiDk0AIBJeelZpwMB2hUl5qgsJ895FlFZjrOyvTEiqtLKOxu6uwjQaNZkAXqc628IAnTrtCdA7+7u/vnPfzYbcQsz8Snbe++9d//+fc1eGt3Mix2pTW3R+Qy0VJrJ9KuI1IralJqD5oULF+yBcptgluPHj9+7d0+PXk5bTF0v+Vpnz541G6PsibEieW6sLaTykF3ZlixineslPv/8c3vMvSicRY6MsLf1tS57eM12pxGgAde/fDX4X5/5BZaRY1Jpg97a2trc3JR/eJjtmSeHQg4IDRoASvLSs05XAnR8GY3D6Bxt+ok5vqpGfCJ09GB8srNyrgR94fayzdBdv/6GIECjWRMHaLnzyLJMgG6d9gRojKnmoImSWK+wEKABF+c+Z40cmeo8ePCA+uyRAyKHxWwAACbipWedoAP04TnLydOdTZEeFZ/avDyvbfrwGYkXx4bXkhZdvRwHARrNOvIdeOnqwrmL15d6/UIdWZ4sLxnnLOkamF5QBAEabUHQDAvrFRYCNODyqivjTnV6vbwPVJlZHBYAKMlLzzoduwQHCiFAo1lHvgP1wwZ1zF1jsC9Z6vXNXc0xvaAIAjTagqAZFtYrLARowOUlV8ad6lBaU3FYAKAkLz3rEKBnGQEazRrnHainMxdKyfr8g2cvzHajTC8oggCNtiBohoX1CgsBGnB5yZVxpzqU1lQcFgAoyUvPOgToWUaARrNm4R1oekERBGi0BUEzLKxXWAjQgMtLrow71aG0puKwAEBJXnrWIUDPMgI0mkWATkWARlsQNMPCeoWFAA24vOTKuFMdSmsqDgsAlOSlZx0C9CwjQKNZBOhUBGi0BUEzLKxXWAjQgMtLrow71aG0puKwAEBJXnrWIUDPMgI0mkWATkWARlsQNMPCeoWFAA24vOTKuFMdSmsqDgsAlOSlZx0C9CwjQKNZBOhUlQTog2cvJhvz+mkgQAeHoBkW1issBGjA5SVXxp3qUFpTcVgAoCQvPesQoGcZARrNIkCnmnKAPnj24tr8rXMXr082l64uLPX6Zl/lEKCDQ9AMC+sVFgI04PKSK+NOdSitqTgsAFCSl551CNCzjACNZhGgU005QH958961+Vtmo7hv7vQuXV0wG+UQoIND0AwL6xUWAjTg8pIr4051KK2pOCwAUJKXnnUI0LOMAI1mEaBTTTlAX7q6sLq+azYmcu7i9alci4MAHRyCZlhYr7AQoAGXl1wZd6pDaU3FYQGAkrz0rEOAnmXf3fnh5cvXZgOol7z35B1oNrrL9IIiCNBoC4JmWFivsBCgAZeXXEvP67n3V377ydvE/VObuY9Xjn303LuzoqkOpTUVhwUASvLSsw4BepY9Wln7cXk6F3cFipL3nrwDzUZ3mV5QxNQC9MGzF0u9/qWrC9/c6cmNQmN2ESNAzyyCZlhYr7AQoAGXl1xLz9v7g8H+43eH93yyfez9lcwpnJJfX9kZDF69+qDKxm2nOm0trXf/9LtTX2yYjRTy+O9+96fK/k9KAjQAlOSlZx0C9Iz7/ocHPy73OQ8adZL3m7zr5L1ntjvN9IIiphOgl3p9/QjBiceeN02AnlkEzbCwXmEhQAMuL7mWHj9Af/g49yfi1dsPD1871sj+xf7KG+/+KqY6UymtO9dP/W4yn6UnZLvDYWLe+eKPo7k5EaCjl2TsbQIEaAAoyUvPOgRoPFpZ++7OD4u37jJMPSPvt1k491mZXlDEdAL0pasLZarxUq9vP7qQAD2zCJphYb3CQoAGXF5yLT2pAfrdlcMn2Hn39avsAP3pvn+u9OH8HEXKV68+8O83M/dpYm+TTnWmV1qjRjySgA8bcfzQH7/Y0fuN6OFT10fvGxG/Ssg+N+7+Kb59+HwvQMeb8njeSdNFEKABoCQvPesQoAGgOqYXFDGFAH3w7MW5i9fNxkRW13cvXV3Q2wTomUXQDAvrFRYCNODykuvkYy61EdXh/Yd78e3tubMaoH+57ATi4ez9Z06AXjLf3gTuLyX2NulUp5YAPbj7WSJAb3xxavQU5jTxic/Xd/SF0U5sg3YDtNZnP3CXQoAGgJK+uP4Xrz7LPQRoAKiO6QVFEKDRFgTNsLBeYSFAAy4vuU48H66aHbq+vjm1S3DMfZx2avMn25V+4GF16gnQ8SU1Rmtz9GjRE5ajL3Hqs7tRaD7ceeLrTgMBGgBK+q+//7cXoOUeAjQAVMf0giKmH6CXev0vb97zxjyWgQANQdAMC+sVFgI04PKSa+mZ0iU4Rmfu45XLO4Pe969H73/74cq76Gzrj737pzbVmXKATnBOUh7JzSlJ+lB84nN+UnbqdhUI0ABQ0tOffv6vv/+3ngctf8ptuYcADQDVMb2giOkH6Gvzt2Tz0tUFW5+/uXPEL9YEaAiCZlhYr7AQoAGXl1xLT2qALn4JDme0Pkf2/Ie+1o9z3/n52EfPvYemMtWp5wzoxAU34idnXTQjfmHkcG/2rlzTuwoHARoASvJKsQ4BGgCqY3pBEVUF6COjs4sADUHQDAvrFRYCNODykmvpGQbos89/+/7+nAnQ2Y4I0G/nPjL1+f69aG/+Ez7dP/a3d/F+Xn1QQYOuTk0BOt5wPnLQ20yhV3we7iDeV+51NlIuM10CARoASvJKsQ4BGgCqY3pBEQRotAVBMyysV1gI0IDLS66lJw7QD/eO/Z+3B4PBleG1odMuwRGfv/x6kB2gX8/pWdKDwdf/8ebrV79c8S/3/Hbu3i+Dwdsr/zGQrxU16Dh5jz6n1FSnrgA9GohHH8qyc/3Uqet3d6ILdxCgASAwXinWIUADQHVMLyiipgCtz7Fz6eqC+wQCNARBMyysV1gI0IDLS66l5pPtY+//bH6neT348NP9xGU30iftgwTfzn1kdhXF65tRYt5/+PPcWec5n74yefpmtHk/uvnL5aleD7o6Uw7QCYeVOWrIZiv3AtCpCNAAEBivFOsQoAGgOqYXFFHhNaB1ZFPutAH6y5v3NDfLbbmhLyFAQxA0w8J6hYUADbi85DrxzH288sFjs09zDegls3mkg1V/bzLR+dHORZ/jM6nf/eeC7ct6+vNg33lt1KAT14kuM9Wp7Qxo3Y4vu3F0TU6IX3IkAjQAtIZXinUI0ABQHdMLiqgqQMufS72+jFZmG6A1LntnSVcXoLcBADH5B6P5B38RBGh0kpdcJ54rexp//Q8hjE+LtlfGSDxaZKIkvfOzOV36k5/19OfUi3tMa6pTY4AenqQch+gvogtr5LPB2tzmDGgACIhXinUI0ABQHdMLiqj7Ehw1B2izgRBoIEMoWK+wEKABl5dcS4+fmD98/G4weDfMxMMrRLuX4Bj/wwPNhTj25j7e/+Bh9NmD95cSz5nqVKfOAD3Y+OJUdKLyeKU4fvlwhwRoAAiMV4p1CNAAUB3TC4ogQKMtCJphYb3CQoAGXF5yLT1egH59ZWcweP1u+EmD0aO+vM8hTMzfo+7c24kuvjHdq22kTnVqDdAmKo9z+rNeJ9q+nAANAIHxSrEOARoAqmN6QREEaLQFQTMsrFdYCNCAy0uupWc0QH/yKvr9ZufnuU/THi02b+c+Wjn2tzg9i1evPhj/1OlJpzoVBOj4xqj4ShrO/bkpOaZPtvlay/VRCNAA0BpeKdYhQANAdUwvKKKqAO3OpasLYwZouSH3650lEaCDQ9AMC+sVFgI04PKSa+lxEvPZ53qhDNH720rcoCcM0HMfrxx7f08v+iy+XoquxTF4/csH768c+9h+LOH0pzpTKa3R2ceHhic4j5wBbepzvBk9MLy4c5b4xYdBmTOgASAwXinWIUADQHVMLyhi+gFaNr1x73Sfo7eFBmgZ2c9Sr2/uLYcAHRyCZlhYr7AQoAGXl1zLztlfTWI++/y3//5qX77A3uCflqIv1PvbyrGPXhUL0LKT+DrRl4eB073o84er8V1P3+i1pIcnWU9zqlNhaT0M0PEt53xmvRh0XoOOX+E8gQANAIHxSrEOARoAqmN6QRHTD9AT0BOfp5WeFQE6OATNsLBeYSFAAy4vuU4+n2xHITiOzvurg7mFuD4PBubjB+MGPXj9/6JHvQ8hlEmexfzpfnT/v/+iOxFf3xx9gh3d82Bw/3uztymW6OpUHaBP/dF87uBhfVb6gYQZTVlPqXZecmSAjs+wJkADQGt4pViHAA0A1TG9oIi2BGh7DehpIUAHh6AZFtYrLARowOUl14nHnI8cu/Kvgyt75kbWc0YkP05wmJUzu3Ni9CsK9yzpklOdygP0Z386lYjPRmaD9i4ALdICtL7ckfFlJkGABoCSvFKsQ4AGgOqYXlBEKwL0Uq9PgAZBMyysV1gI0IDLS66MO9WhtKbisABASV4p1iFAA0B1TC8oYgoBWlybv/XNnZ5e2XmCkZd/efOe2deUEKCDQ9AMC+sVFgI04PKSK+NOdSitqTgsAFCSV4p1CNB4tLL23Z0fFm/dZZh6Rt5v8q4z77+uM72giOkE6NX13Wvzt85dvD7ZXLq6cOB8JuFUEKCDQ9AMC+sVFgI04PKSK+NOdSitqTgsAFCSV4p1CNAz7vsfHvy43H/58rXZBqon7zd518l7z2x3mukFRUwnQCv3pObxx7x42gjQwSFohoX1CgsBGnB5yZVxpzqU1lQcFgAoySvFOgToWfZoZe3H5b7ZAOol771ZOA/a9IIiphmgW4UAHRyCZlhYr7AQoAGXl1wZd6pDaU3FYQGAkrxSrEOAnmXf3fmBc5/RFHnvyTvQbHSX6QVFEKDRFgTNsLBeYSFAAy4vuTLuVIfSmorDAgAleaVYhwA9yxZv3TW3gCbMwjvQ9IIiCNBoC4JmWFivsBCgAZeXXBl3qkNpTcVhAYCSvFKsQ4CeZQRoNIsAnYoAjbYgaIaF9QoLARpwecmVcac6lNZUHBYAKMkrxToE6FlGgEazCNCpCNBoC4JmWFivsBCgAZeXXBl3qkNpTcVhAYCSvFKsQ4CeZQRoNIsAnYoAjbYgaIaF9QoLARpwecmVcac6lNZUHBYAKMkrxToE6FlGgEazCNCpCNBoC4JmWFivsBCgAZeXXBl3qkNpTcVhAYCSvFKsQ4CeZQRoNIsAnYoAjbYgaIaF9QoLARpw/Y9/86sroyNHpjoPHjyQf3KYDcTkgMhhMRsAgIl4pViHAD3LCNBoFgE6FQEabUHQDAvrFRYCNOA69Zdf//kzv70yckzkyJhjVIGNjY3NzU0atCWHQg6IHBazDQCYiFeKdQjQs4wAjWaN8w48ePZiqdeXMdtjkCevru/KC812o0wvKIIAjbYgaIaF9QoLARpwPX/+/NRffuU8aHfkaMgxkSNjjlEFfv31142NjQcPHvQQk0MhB0QOizlAAICJeKVYZ3P7p+3dfQL0bCJAo1lHvgOXev1zF6/rmLvGYF/yzZ3mL+BmekERBGi0BUEzLKxXWAjQgOvFixfPkUaOjDlGFfgVGcwBAgBMxCvFOh0J0Hu3z588eWPZbKmDb8+fvHD7wGyN6eD2hZMn50d31F0EaDTryHegdmQ9o9nclcZ7VDblJZeuLsiYu5pjekERBGi0BUEzLKxXWAjQgOvNmzcmuGKUHBlzjCog/7gwwRUOOSzmAAEAJuKVYp3oEhy7+9u7BztPD8IN0FFr9vvz4GD5htx7/tu8BL08fzJiO/XyDdnyd9RdBGg0K/8dePDsxbmL16/N3zLbGTRSJy+4IS9Mvb9mphcUQYBGWxA0w8J6hYUADXjevHnDedAuORqV1mdFg/ZQnwGgPK8U62zt7GuA1jLgPTrBmC9Wr6gjzy9rPs6jodl52mieznp9Z4s0ARrNyn8Hrq7vHhmgNVKnnumsATr/1OkamF5QBAEabUHQDAvrFRYCNAAAADrJK8U6WzuH198INkAv3zh5/vaeBuTMWJy4Ikd0tQ0nQMcX3/Av2dHxK3IQoNGs8gH6mzs9eU7qtZ4J0K1DgA4OQTMsrFdYJg7QP66s/fhobXllffnxxqPVzZUnW4+fbPbXtlbXt1c3dp5s7D7Z2Fnb3JVZ33rKMAzDMAzDME3NxvbextZedPENPf058AB9WJZLBOj4Whw3bstznNysd3Y2PxOg0bTyAVqeIJN6nQ0CdOsQoIND0AwL6xWWiQN0lJ4frT9c2Xj4eHNldevxk+3+k63Vte0n61F9Xtt4uraxu775VEZ+3WcYhmEYhmGYBkfrs/vxg1OpzzL6S3WNnJOUsy6hYWUF6MNyHe8i2lu8Wz2xursI0GhWyQCtpz9nfdLglzfvEaDbhQAdHIJmWFivsEwcoB8+3ni4svHo8eajflyf13ai+ry2s7axuxZ15z2bnuXXfYZhGIZhGIapbaIznUdne/fw3OewA7RG58MAffQZ0OaDB10jYdpm7C6f+6wI0GhW/jtQC3Lq5TVU/hOWen15VJ7T7OcQml5QBAEabUHQDAvrFZaJA/Sj1c1H/ejc55Un2/31nfiyG1F9jv4/x+29je2fNrb3Nnd+kpHf9RmGYRiGYRimkdl+emBmV+vz1D5+UEd/qa6Lnqc8VoD27d0+738IYcTkaedCHB1GgEazst6B+tGCmo/NXQn2OWY7jRZqmQYbtOkFRRCg0RYEzbCwXmGZOEA/frL9eHW7/2Snv7YbXXNj8+n6RnTic3TWSXSayUF8pon9RZ9hGIZhGIZhmh2TnqdYn2X0l+p6RCc1zy9HydgJ0NF1nDMdXlIjeu1ogNZ7Yh2/8oZFgEazcgL0pasL5+Kzm7Pacf71N5ReBlrGbDfB9IIiCNBoC4JmWFivsEwcoPtr2/0n26trO6vr5pMGN+JrbmzFpzzH6Xlffst3f9FnGIZhGIZhmMbHK8glR3+prsfyfFSKUwL08FIbcV+OzpKOzouOTnm2ZdlcZ+P8hfhTB+OzoXUnegZ096++ESNAo1n570A9f3mp1zfbo2yhNtsJWqhzzqGuh+kFRRCg0RYEzbCwXmEhQDMMwzAMwzCzMF44ntboL9V1GgnQF24vjxGg4+tB37gRfXrhjahE68v1/jTJK3V0AwEazcp/B+qHEKYWZL3+xjinP/MhhC2i/+4xGwgBQTMsrFdYJg7Qq+s7q2s7T9Z3n2w8jerztvm8QfvZ4jY9e7+jMwzDMAzDMExnRn+prpMN0HFWHidA67Wio/vjJ8hmfH98VrTfmuM7u3pCNAEazRonQF+bv2W2HXp2c87pz4IA3ToE6OAQNMPCeoWFAM0wDMMwDMMwE4/+Ul0nG6D1RtZZzLEoNGunPojDtM3N+qoby8s3RmpznJ+H50d3DwEazZo4QMv9R8ZlAnTrEKCDQ9AMC+sVFgI0wzAMwzAMw0w8+kt1nYYB2gTlYV/OPANarxxtnx/dGr5ksLccXZfD3I4vDK23O4oAjWZNFqDHuf6GIEC3DgE6OATNsLBeYSFAMwzDMAzDMMzEo79U18kE6GFfPjJAD42cAe2Iz3pWna7PggCNZk0coOXOI8syAbp1CNDBIWiGhfUKCwGaYRiGYRiGYSYe/aW6Thqgh+dBlw7QeuJzdz940EWARrOOfAdeurpw7uL1pV6/UEeWJ8tLxjlLugamFxRBgEZbEDTDwnqFhQDNMAzDMAzDMBOP/lJdpzg93zAfJOgE6EPDpjx6fyJAD099noX0rAjQaNaR70D9sEEdc9cY7EuWen1zV3NMLyiCAI22IGiGhfUKS2qA/t9pzGNDBGiGYRiGYRiG0V+qQ3AYoKOELbp+wY0kAjSaNc47UE9nLpSS9fkHz16Y7UaZXjBkasIo89gQARptQdAMS6Xr9f3/fXjkmKdiPKkBWph/MwyZex0EaIZhGIZhGIbRX6oRBAI0mjUL70DTCxymKQyZex0EaLQFATosBOiwZAVoYf79kPZvCEGAZhiGYRiGYRj9pRpBIECjWbMZoIUpCxltgQCNtiBAh4UAHZacAC2y/g0hCNAMwzAMwzAMo79UIwgEaDRrZgO0yGkLBGi0BQE6LKxXWPIDdA4CNMMwDMMwDMPoL9UIAgEazZrlAJ2DAI22IGiGpdL1evv23fbu/tbOTzM18leWv7g5BNNGgGYYhmEYhmGYiUd/qUYQCNBoFgE6FQEabUGADkul69Vf23795pdXr9/M1MhfWf7i5hBMGwGaYRiGYRiGYSYe/aUaQSBAo1kE6FQEaLQFATosla7X/Yer5taMqe4vPo0AvWsD9NbOPgGaYRiGYRiGmZ3RX6oRBAI0mkWATkWARlsQoMNCgK4CAZphGIZhGIZhWjj6SzWCQIBGswjQqQjQaAsCdFgI0FVoZ4B+sr67SoBmGIZhGIZhZnj0l2oE4bs7P7x8+dpsAPWS9568A81Gd5leUAQBGm1BgA4LAboKbQ7Qa5sEaIZhGIZhGGZGR3+pRhAeraz9uNw3G0C95L0n70Cz0V2mF4zv4OD/A94693zwmKgvAAAAAElFTkSuQmCC;" vertex="1" parent="1">
          <mxGeometry x="-100" y="50" width="1920" height="1080" as="geometry" />
        </mxCell>
        <mxCell id="XgqZpSQLJunnmOZwg-OT-5" value="" style="rounded=0;whiteSpace=wrap;html=1;fillColor=#dae8fc;strokeColor=#6c8ebf;gradientColor=none;opacity=35;" vertex="1" parent="1">
          <mxGeometry x="-100" y="50" width="1920" height="70" as="geometry" />
        </mxCell>
        <mxCell id="XgqZpSQLJunnmOZwg-OT-7" value="" style="rounded=0;whiteSpace=wrap;html=1;fillColor=#f8cecc;strokeColor=#b85450;opacity=35;" vertex="1" parent="1">
          <mxGeometry x="420" y="120" width="950" height="1010" as="geometry" />
        </mxCell>
        <mxCell id="XgqZpSQLJunnmOZwg-OT-9" value="" style="rounded=0;whiteSpace=wrap;html=1;fillColor=#fff2cc;strokeColor=#d6b656;opacity=25;" vertex="1" parent="1">
          <mxGeometry x="1370" y="120" width="450" height="1010" as="geometry" />
        </mxCell>
        <mxCell id="XgqZpSQLJunnmOZwg-OT-10" value="" style="ellipse;whiteSpace=wrap;html=1;aspect=fixed;opacity=50;shadow=1;strokeWidth=8;" vertex="1" parent="1">
          <mxGeometry x="-100" y="970" width="70" height="70" as="geometry" />
        </mxCell>
        <mxCell id="XgqZpSQLJunnmOZwg-OT-11" value="" style="ellipse;whiteSpace=wrap;html=1;aspect=fixed;fillColor=#e1d5e7;strokeColor=#9673a6;opacity=50;shadow=1;strokeWidth=8;" vertex="1" parent="1">
          <mxGeometry x="-100" y="140" width="70" height="70" as="geometry" />
        </mxCell>
        <mxCell id="XgqZpSQLJunnmOZwg-OT-12" value="" style="ellipse;whiteSpace=wrap;html=1;aspect=fixed;fillColor=#dae8fc;strokeColor=#6c8ebf;opacity=50;shadow=1;strokeWidth=8;" vertex="1" parent="1">
          <mxGeometry x="-100" y="900" width="70" height="70" as="geometry" />
        </mxCell>
        <mxCell id="XgqZpSQLJunnmOZwg-OT-13" value="" style="ellipse;whiteSpace=wrap;html=1;aspect=fixed;fillColor=#d5e8d4;strokeColor=#9ac482;opacity=50;shadow=1;strokeWidth=8;" vertex="1" parent="1">
          <mxGeometry x="-100" y="210" width="70" height="70" as="geometry" />
        </mxCell>
        <mxCell id="XgqZpSQLJunnmOZwg-OT-14" value="" style="ellipse;whiteSpace=wrap;html=1;aspect=fixed;fillColor=#fff2cc;strokeColor=#d6b656;opacity=50;shadow=1;strokeWidth=8;" vertex="1" parent="1">
          <mxGeometry x="-100" y="280" width="70" height="70" as="geometry" />
        </mxCell>
        <mxCell id="XgqZpSQLJunnmOZwg-OT-15" value="" style="ellipse;whiteSpace=wrap;html=1;aspect=fixed;fillColor=#f8cecc;strokeColor=#b85450;opacity=50;shadow=1;strokeWidth=8;" vertex="1" parent="1">
          <mxGeometry x="-100" y="350" width="70" height="70" as="geometry" />
        </mxCell>
        <mxCell id="XgqZpSQLJunnmOZwg-OT-16" value="" style="rounded=0;whiteSpace=wrap;html=1;fillColor=#d5e8d4;strokeColor=#82b366;opacity=35;" vertex="1" parent="1">
          <mxGeometry x="-30" y="120" width="450" height="1010" as="geometry" />
        </mxCell>
        <mxCell id="XgqZpSQLJunnmOZwg-OT-17" value="" style="rounded=0;whiteSpace=wrap;html=1;strokeWidth=0;strokeColor=none;" vertex="1" parent="1">
          <mxGeometry x="-80" y="1060" width="30" height="50" as="geometry" />
        </mxCell>
      </root>
    </mxGraphModel>
  </diagram>
</mxfile>
